<svg width="1440" height="72" viewBox="0 0 1440 72" fill="none" xmlns="http://www.w3.org/2000/svg">
<g opacity="0.55">
<rect x="1317.5" y="10.5" width="52" height="52" stroke="#94C7DC" stroke-opacity="0.5" stroke-width="3"/>
<path d="M1311 36L1344 3L1360.5 19.5L1377 36L1344 69L1311 36Z" stroke="#94C7DC" stroke-opacity="0.5" stroke-width="3"/>
<path d="M1322 36L1328 30L1334 36L1328 42L1322 36Z" stroke="#94C7DC" stroke-opacity="0.5" stroke-width="2"/>
<path d="M1338 21L1344 15L1350 21L1344 27L1338 21Z" stroke="#94C7DC" stroke-opacity="0.5" stroke-width="2"/>
<path d="M1353 36L1359 30L1365 36L1359 42L1353 36Z" stroke="#94C7DC" stroke-opacity="0.5" stroke-width="2"/>
<path d="M1338 52L1344 46L1350 52L1344 58L1338 52Z" stroke="#94C7DC" stroke-opacity="0.5" stroke-width="2"/>
<line x1="1332.35" y1="25.6464" x2="1356.35" y2="49.6464" stroke="#94C7DC" stroke-opacity="0.5"/>
<line y1="-0.5" x2="33.9411" y2="-0.5" transform="matrix(-0.707107 0.707107 0.707107 0.707107 1356 26)" stroke="#94C7DC" stroke-opacity="0.5"/>
</g>
<g opacity="0.55">
<rect x="725.5" y="10.5" width="52" height="52" stroke="#94C7DC" stroke-opacity="0.5" stroke-width="3"/>
<path d="M719 36L752 3L768.5 19.5L785 36L752 69L719 36Z" stroke="#94C7DC" stroke-opacity="0.5" stroke-width="3"/>
<path d="M730 36L736 30L742 36L736 42L730 36Z" stroke="#94C7DC" stroke-opacity="0.5" stroke-width="2"/>
<path d="M746 21L752 15L758 21L752 27L746 21Z" stroke="#94C7DC" stroke-opacity="0.5" stroke-width="2"/>
<path d="M761 36L767 30L773 36L767 42L761 36Z" stroke="#94C7DC" stroke-opacity="0.5" stroke-width="2"/>
<path d="M746 52L752 46L758 52L752 58L746 52Z" stroke="#94C7DC" stroke-opacity="0.5" stroke-width="2"/>
<line x1="740.354" y1="25.6464" x2="764.354" y2="49.6464" stroke="#94C7DC" stroke-opacity="0.5"/>
<line y1="-0.5" x2="33.9411" y2="-0.5" transform="matrix(-0.707107 0.707107 0.707107 0.707107 764 26)" stroke="#94C7DC" stroke-opacity="0.5"/>
</g>
<g opacity="0.55">
<rect x="1021.5" y="10.5" width="52" height="52" stroke="#94C7DC" stroke-opacity="0.5" stroke-width="3"/>
<path d="M1015 36L1048 3L1064.5 19.5L1081 36L1048 69L1015 36Z" stroke="#94C7DC" stroke-opacity="0.5" stroke-width="3"/>
<path d="M1026 36L1032 30L1038 36L1032 42L1026 36Z" stroke="#94C7DC" stroke-opacity="0.5" stroke-width="2"/>
<path d="M1042 21L1048 15L1054 21L1048 27L1042 21Z" stroke="#94C7DC" stroke-opacity="0.5" stroke-width="2"/>
<path d="M1057 36L1063 30L1069 36L1063 42L1057 36Z" stroke="#94C7DC" stroke-opacity="0.5" stroke-width="2"/>
<path d="M1042 52L1048 46L1054 52L1048 58L1042 52Z" stroke="#94C7DC" stroke-opacity="0.5" stroke-width="2"/>
<line x1="1036.35" y1="25.6464" x2="1060.35" y2="49.6464" stroke="#94C7DC" stroke-opacity="0.5"/>
<line y1="-0.5" x2="33.9411" y2="-0.5" transform="matrix(-0.707107 0.707107 0.707107 0.707107 1060 26)" stroke="#94C7DC" stroke-opacity="0.5"/>
</g>
<g opacity="0.55">
<rect x="429.5" y="10.5" width="52" height="52" stroke="#94C7DC" stroke-opacity="0.5" stroke-width="3"/>
<path d="M423 36L456 3L472.5 19.5L489 36L456 69L423 36Z" stroke="#94C7DC" stroke-opacity="0.5" stroke-width="3"/>
<path d="M434 36L440 30L446 36L440 42L434 36Z" stroke="#94C7DC" stroke-opacity="0.5" stroke-width="2"/>
<path d="M450 21L456 15L462 21L456 27L450 21Z" stroke="#94C7DC" stroke-opacity="0.5" stroke-width="2"/>
<path d="M465 36L471 30L477 36L471 42L465 36Z" stroke="#94C7DC" stroke-opacity="0.5" stroke-width="2"/>
<path d="M450 52L456 46L462 52L456 58L450 52Z" stroke="#94C7DC" stroke-opacity="0.5" stroke-width="2"/>
<line x1="444.354" y1="25.6464" x2="468.354" y2="49.6464" stroke="#94C7DC" stroke-opacity="0.5"/>
<line y1="-0.5" x2="33.9411" y2="-0.5" transform="matrix(-0.707107 0.707107 0.707107 0.707107 468 26)" stroke="#94C7DC" stroke-opacity="0.5"/>
</g>
<g opacity="0.55">
<rect x="1169.5" y="10.5" width="52" height="52" stroke="#94C7DC" stroke-opacity="0.5" stroke-width="3"/>
<path d="M1163 36L1196 3L1212.5 19.5L1229 36L1196 69L1163 36Z" stroke="#94C7DC" stroke-opacity="0.5" stroke-width="3"/>
<path d="M1174 36L1180 30L1186 36L1180 42L1174 36Z" stroke="#94C7DC" stroke-opacity="0.5" stroke-width="2"/>
<path d="M1190 21L1196 15L1202 21L1196 27L1190 21Z" stroke="#94C7DC" stroke-opacity="0.5" stroke-width="2"/>
<path d="M1205 36L1211 30L1217 36L1211 42L1205 36Z" stroke="#94C7DC" stroke-opacity="0.5" stroke-width="2"/>
<path d="M1190 52L1196 46L1202 52L1196 58L1190 52Z" stroke="#94C7DC" stroke-opacity="0.5" stroke-width="2"/>
<line x1="1184.35" y1="25.6464" x2="1208.35" y2="49.6464" stroke="#94C7DC" stroke-opacity="0.5"/>
<line y1="-0.5" x2="33.9411" y2="-0.5" transform="matrix(-0.707107 0.707107 0.707107 0.707107 1208 26)" stroke="#94C7DC" stroke-opacity="0.5"/>
</g>
<g opacity="0.55">
<rect x="577.5" y="10.5" width="52" height="52" stroke="#94C7DC" stroke-opacity="0.5" stroke-width="3"/>
<path d="M571 36L604 3L620.5 19.5L637 36L604 69L571 36Z" stroke="#94C7DC" stroke-opacity="0.5" stroke-width="3"/>
<path d="M582 36L588 30L594 36L588 42L582 36Z" stroke="#94C7DC" stroke-opacity="0.5" stroke-width="2"/>
<path d="M598 21L604 15L610 21L604 27L598 21Z" stroke="#94C7DC" stroke-opacity="0.5" stroke-width="2"/>
<path d="M613 36L619 30L625 36L619 42L613 36Z" stroke="#94C7DC" stroke-opacity="0.5" stroke-width="2"/>
<path d="M598 52L604 46L610 52L604 58L598 52Z" stroke="#94C7DC" stroke-opacity="0.5" stroke-width="2"/>
<line x1="592.354" y1="25.6464" x2="616.354" y2="49.6464" stroke="#94C7DC" stroke-opacity="0.5"/>
<line y1="-0.5" x2="33.9411" y2="-0.5" transform="matrix(-0.707107 0.707107 0.707107 0.707107 616 26)" stroke="#94C7DC" stroke-opacity="0.5"/>
</g>
<g opacity="0.55">
<rect x="873.5" y="10.5" width="52" height="52" stroke="#94C7DC" stroke-opacity="0.5" stroke-width="3"/>
<path d="M867 36L900 3L916.5 19.5L933 36L900 69L867 36Z" stroke="#94C7DC" stroke-opacity="0.5" stroke-width="3"/>
<path d="M878 36L884 30L890 36L884 42L878 36Z" stroke="#94C7DC" stroke-opacity="0.5" stroke-width="2"/>
<path d="M894 21L900 15L906 21L900 27L894 21Z" stroke="#94C7DC" stroke-opacity="0.5" stroke-width="2"/>
<path d="M909 36L915 30L921 36L915 42L909 36Z" stroke="#94C7DC" stroke-opacity="0.5" stroke-width="2"/>
<path d="M894 52L900 46L906 52L900 58L894 52Z" stroke="#94C7DC" stroke-opacity="0.5" stroke-width="2"/>
<line x1="888.354" y1="25.6464" x2="912.354" y2="49.6464" stroke="#94C7DC" stroke-opacity="0.5"/>
<line y1="-0.5" x2="33.9411" y2="-0.5" transform="matrix(-0.707107 0.707107 0.707107 0.707107 912 26)" stroke="#94C7DC" stroke-opacity="0.5"/>
</g>
<g opacity="0.55">
<rect x="281.5" y="10.5" width="52" height="52" stroke="#94C7DC" stroke-opacity="0.5" stroke-width="3"/>
<path d="M275 36L308 3L324.5 19.5L341 36L308 69L275 36Z" stroke="#94C7DC" stroke-opacity="0.5" stroke-width="3"/>
<path d="M286 36L292 30L298 36L292 42L286 36Z" stroke="#94C7DC" stroke-opacity="0.5" stroke-width="2"/>
<path d="M302 21L308 15L314 21L308 27L302 21Z" stroke="#94C7DC" stroke-opacity="0.5" stroke-width="2"/>
<path d="M317 36L323 30L329 36L323 42L317 36Z" stroke="#94C7DC" stroke-opacity="0.5" stroke-width="2"/>
<path d="M302 52L308 46L314 52L308 58L302 52Z" stroke="#94C7DC" stroke-opacity="0.5" stroke-width="2"/>
<line x1="296.354" y1="25.6464" x2="320.354" y2="49.6464" stroke="#94C7DC" stroke-opacity="0.5"/>
<line y1="-0.5" x2="33.9411" y2="-0.5" transform="matrix(-0.707107 0.707107 0.707107 0.707107 320 26)" stroke="#94C7DC" stroke-opacity="0.5"/>
</g>
<g opacity="0.55">
<rect x="59.5" y="10.5" width="52" height="52" stroke="#94C7DC" stroke-opacity="0.5" stroke-width="3"/>
<path d="M53 36L86 3L102.5 19.5L119 36L86 69L53 36Z" stroke="#94C7DC" stroke-opacity="0.5" stroke-width="3"/>
<path d="M64 36L70 30L76 36L70 42L64 36Z" stroke="#94C7DC" stroke-opacity="0.5" stroke-width="2"/>
<path d="M80 21L86 15L92 21L86 27L80 21Z" stroke="#94C7DC" stroke-opacity="0.5" stroke-width="2"/>
<path d="M95 36L101 30L107 36L101 42L95 36Z" stroke="#94C7DC" stroke-opacity="0.5" stroke-width="2"/>
<path d="M80 52L86 46L92 52L86 58L80 52Z" stroke="#94C7DC" stroke-opacity="0.5" stroke-width="2"/>
<line x1="74.3536" y1="25.6464" x2="98.3536" y2="49.6464" stroke="#94C7DC" stroke-opacity="0.5"/>
<line y1="-0.5" x2="33.9411" y2="-0.5" transform="matrix(-0.707107 0.707107 0.707107 0.707107 98 26)" stroke="#94C7DC" stroke-opacity="0.5"/>
</g>
<g opacity="0.55">
<rect x="1243.5" y="10.5" width="52" height="52" stroke="#94C7DC" stroke-opacity="0.5" stroke-width="3"/>
<path d="M1237 36L1270 3L1286.5 19.5L1303 36L1270 69L1237 36Z" stroke="#94C7DC" stroke-opacity="0.5" stroke-width="3"/>
<path d="M1248 36L1254 30L1260 36L1254 42L1248 36Z" stroke="#94C7DC" stroke-opacity="0.5" stroke-width="2"/>
<path d="M1264 21L1270 15L1276 21L1270 27L1264 21Z" stroke="#94C7DC" stroke-opacity="0.5" stroke-width="2"/>
<path d="M1279 36L1285 30L1291 36L1285 42L1279 36Z" stroke="#94C7DC" stroke-opacity="0.5" stroke-width="2"/>
<path d="M1264 52L1270 46L1276 52L1270 58L1264 52Z" stroke="#94C7DC" stroke-opacity="0.5" stroke-width="2"/>
<line x1="1258.35" y1="25.6464" x2="1282.35" y2="49.6464" stroke="#94C7DC" stroke-opacity="0.5"/>
<line y1="-0.5" x2="33.9411" y2="-0.5" transform="matrix(-0.707107 0.707107 0.707107 0.707107 1282 26)" stroke="#94C7DC" stroke-opacity="0.5"/>
</g>
<g opacity="0.55">
<rect x="651.5" y="10.5" width="52" height="52" stroke="#94C7DC" stroke-opacity="0.5" stroke-width="3"/>
<path d="M645 36L678 3L694.5 19.5L711 36L678 69L645 36Z" stroke="#94C7DC" stroke-opacity="0.5" stroke-width="3"/>
<path d="M656 36L662 30L668 36L662 42L656 36Z" stroke="#94C7DC" stroke-opacity="0.5" stroke-width="2"/>
<path d="M672 21L678 15L684 21L678 27L672 21Z" stroke="#94C7DC" stroke-opacity="0.5" stroke-width="2"/>
<path d="M687 36L693 30L699 36L693 42L687 36Z" stroke="#94C7DC" stroke-opacity="0.5" stroke-width="2"/>
<path d="M672 52L678 46L684 52L678 58L672 52Z" stroke="#94C7DC" stroke-opacity="0.5" stroke-width="2"/>
<line x1="666.354" y1="25.6464" x2="690.354" y2="49.6464" stroke="#94C7DC" stroke-opacity="0.5"/>
<line y1="-0.5" x2="33.9411" y2="-0.5" transform="matrix(-0.707107 0.707107 0.707107 0.707107 690 26)" stroke="#94C7DC" stroke-opacity="0.5"/>
</g>
<g opacity="0.55">
<rect x="947.5" y="10.5" width="52" height="52" stroke="#94C7DC" stroke-opacity="0.5" stroke-width="3"/>
<path d="M941 36L974 3L990.5 19.5L1007 36L974 69L941 36Z" stroke="#94C7DC" stroke-opacity="0.5" stroke-width="3"/>
<path d="M952 36L958 30L964 36L958 42L952 36Z" stroke="#94C7DC" stroke-opacity="0.5" stroke-width="2"/>
<path d="M968 21L974 15L980 21L974 27L968 21Z" stroke="#94C7DC" stroke-opacity="0.5" stroke-width="2"/>
<path d="M983 36L989 30L995 36L989 42L983 36Z" stroke="#94C7DC" stroke-opacity="0.5" stroke-width="2"/>
<path d="M968 52L974 46L980 52L974 58L968 52Z" stroke="#94C7DC" stroke-opacity="0.5" stroke-width="2"/>
<line x1="962.354" y1="25.6464" x2="986.354" y2="49.6464" stroke="#94C7DC" stroke-opacity="0.5"/>
<line y1="-0.5" x2="33.9411" y2="-0.5" transform="matrix(-0.707107 0.707107 0.707107 0.707107 986 26)" stroke="#94C7DC" stroke-opacity="0.5"/>
</g>
<g opacity="0.55">
<rect x="355.5" y="10.5" width="52" height="52" stroke="#94C7DC" stroke-opacity="0.5" stroke-width="3"/>
<path d="M349 36L382 3L398.5 19.5L415 36L382 69L349 36Z" stroke="#94C7DC" stroke-opacity="0.5" stroke-width="3"/>
<path d="M360 36L366 30L372 36L366 42L360 36Z" stroke="#94C7DC" stroke-opacity="0.5" stroke-width="2"/>
<path d="M376 21L382 15L388 21L382 27L376 21Z" stroke="#94C7DC" stroke-opacity="0.5" stroke-width="2"/>
<path d="M391 36L397 30L403 36L397 42L391 36Z" stroke="#94C7DC" stroke-opacity="0.5" stroke-width="2"/>
<path d="M376 52L382 46L388 52L382 58L376 52Z" stroke="#94C7DC" stroke-opacity="0.5" stroke-width="2"/>
<line x1="370.354" y1="25.6464" x2="394.354" y2="49.6464" stroke="#94C7DC" stroke-opacity="0.5"/>
<line y1="-0.5" x2="33.9411" y2="-0.5" transform="matrix(-0.707107 0.707107 0.707107 0.707107 394 26)" stroke="#94C7DC" stroke-opacity="0.5"/>
</g>
<g opacity="0.55">
<rect x="133.5" y="10.5" width="52" height="52" stroke="#94C7DC" stroke-opacity="0.5" stroke-width="3"/>
<path d="M127 36L160 3L176.5 19.5L193 36L160 69L127 36Z" stroke="#94C7DC" stroke-opacity="0.5" stroke-width="3"/>
<path d="M138 36L144 30L150 36L144 42L138 36Z" stroke="#94C7DC" stroke-opacity="0.5" stroke-width="2"/>
<path d="M154 21L160 15L166 21L160 27L154 21Z" stroke="#94C7DC" stroke-opacity="0.5" stroke-width="2"/>
<path d="M169 36L175 30L181 36L175 42L169 36Z" stroke="#94C7DC" stroke-opacity="0.5" stroke-width="2"/>
<path d="M154 52L160 46L166 52L160 58L154 52Z" stroke="#94C7DC" stroke-opacity="0.5" stroke-width="2"/>
<line x1="148.354" y1="25.6464" x2="172.354" y2="49.6464" stroke="#94C7DC" stroke-opacity="0.5"/>
<line y1="-0.5" x2="33.9411" y2="-0.5" transform="matrix(-0.707107 0.707107 0.707107 0.707107 172 26)" stroke="#94C7DC" stroke-opacity="0.5"/>
</g>
<g opacity="0.55">
<rect x="1095.5" y="10.5" width="52" height="52" stroke="#94C7DC" stroke-opacity="0.5" stroke-width="3"/>
<path d="M1089 36L1122 3L1138.5 19.5L1155 36L1122 69L1089 36Z" stroke="#94C7DC" stroke-opacity="0.5" stroke-width="3"/>
<path d="M1100 36L1106 30L1112 36L1106 42L1100 36Z" stroke="#94C7DC" stroke-opacity="0.5" stroke-width="2"/>
<path d="M1116 21L1122 15L1128 21L1122 27L1116 21Z" stroke="#94C7DC" stroke-opacity="0.5" stroke-width="2"/>
<path d="M1131 36L1137 30L1143 36L1137 42L1131 36Z" stroke="#94C7DC" stroke-opacity="0.5" stroke-width="2"/>
<path d="M1116 52L1122 46L1128 52L1122 58L1116 52Z" stroke="#94C7DC" stroke-opacity="0.5" stroke-width="2"/>
<line x1="1110.35" y1="25.6464" x2="1134.35" y2="49.6464" stroke="#94C7DC" stroke-opacity="0.5"/>
<line y1="-0.5" x2="33.9411" y2="-0.5" transform="matrix(-0.707107 0.707107 0.707107 0.707107 1134 26)" stroke="#94C7DC" stroke-opacity="0.5"/>
</g>
<g opacity="0.55">
<rect x="503.5" y="10.5" width="52" height="52" stroke="#94C7DC" stroke-opacity="0.5" stroke-width="3"/>
<path d="M497 36L530 3L546.5 19.5L563 36L530 69L497 36Z" stroke="#94C7DC" stroke-opacity="0.5" stroke-width="3"/>
<path d="M508 36L514 30L520 36L514 42L508 36Z" stroke="#94C7DC" stroke-opacity="0.5" stroke-width="2"/>
<path d="M524 21L530 15L536 21L530 27L524 21Z" stroke="#94C7DC" stroke-opacity="0.5" stroke-width="2"/>
<path d="M539 36L545 30L551 36L545 42L539 36Z" stroke="#94C7DC" stroke-opacity="0.5" stroke-width="2"/>
<path d="M524 52L530 46L536 52L530 58L524 52Z" stroke="#94C7DC" stroke-opacity="0.5" stroke-width="2"/>
<line x1="518.354" y1="25.6464" x2="542.354" y2="49.6464" stroke="#94C7DC" stroke-opacity="0.5"/>
<line y1="-0.5" x2="33.9411" y2="-0.5" transform="matrix(-0.707107 0.707107 0.707107 0.707107 542 26)" stroke="#94C7DC" stroke-opacity="0.5"/>
</g>
<g opacity="0.55">
<rect x="799.5" y="10.5" width="52" height="52" stroke="#94C7DC" stroke-opacity="0.5" stroke-width="3"/>
<path d="M793 36L826 3L842.5 19.5L859 36L826 69L793 36Z" stroke="#94C7DC" stroke-opacity="0.5" stroke-width="3"/>
<path d="M804 36L810 30L816 36L810 42L804 36Z" stroke="#94C7DC" stroke-opacity="0.5" stroke-width="2"/>
<path d="M820 21L826 15L832 21L826 27L820 21Z" stroke="#94C7DC" stroke-opacity="0.5" stroke-width="2"/>
<path d="M835 36L841 30L847 36L841 42L835 36Z" stroke="#94C7DC" stroke-opacity="0.5" stroke-width="2"/>
<path d="M820 52L826 46L832 52L826 58L820 52Z" stroke="#94C7DC" stroke-opacity="0.5" stroke-width="2"/>
<line x1="814.354" y1="25.6464" x2="838.354" y2="49.6464" stroke="#94C7DC" stroke-opacity="0.5"/>
<line y1="-0.5" x2="33.9411" y2="-0.5" transform="matrix(-0.707107 0.707107 0.707107 0.707107 838 26)" stroke="#94C7DC" stroke-opacity="0.5"/>
</g>
<g opacity="0.55">
<rect x="207.5" y="10.5" width="52" height="52" stroke="#94C7DC" stroke-opacity="0.5" stroke-width="3"/>
<path d="M201 36L234 3L250.5 19.5L267 36L234 69L201 36Z" stroke="#94C7DC" stroke-opacity="0.5" stroke-width="3"/>
<path d="M212 36L218 30L224 36L218 42L212 36Z" stroke="#94C7DC" stroke-opacity="0.5" stroke-width="2"/>
<path d="M228 21L234 15L240 21L234 27L228 21Z" stroke="#94C7DC" stroke-opacity="0.5" stroke-width="2"/>
<path d="M243 36L249 30L255 36L249 42L243 36Z" stroke="#94C7DC" stroke-opacity="0.5" stroke-width="2"/>
<path d="M228 52L234 46L240 52L234 58L228 52Z" stroke="#94C7DC" stroke-opacity="0.5" stroke-width="2"/>
<line x1="222.354" y1="25.6464" x2="246.354" y2="49.6464" stroke="#94C7DC" stroke-opacity="0.5"/>
<line y1="-0.5" x2="33.9411" y2="-0.5" transform="matrix(-0.707107 0.707107 0.707107 0.707107 246 26)" stroke="#94C7DC" stroke-opacity="0.5"/>
</g>
<g opacity="0.55">
<rect x="-14.5" y="10.5" width="52" height="52" stroke="#94C7DC" stroke-opacity="0.5" stroke-width="3"/>
<path d="M-21 36L12 3L28.5 19.5L45 36L12 69L-21 36Z" stroke="#94C7DC" stroke-opacity="0.5" stroke-width="3"/>
<path d="M-10 36L-4 30L2 36L-4 42L-10 36Z" stroke="#94C7DC" stroke-opacity="0.5" stroke-width="2"/>
<path d="M6 21L12 15L18 21L12 27L6 21Z" stroke="#94C7DC" stroke-opacity="0.5" stroke-width="2"/>
<path d="M21 36L27 30L33 36L27 42L21 36Z" stroke="#94C7DC" stroke-opacity="0.5" stroke-width="2"/>
<path d="M6 52L12 46L18 52L12 58L6 52Z" stroke="#94C7DC" stroke-opacity="0.5" stroke-width="2"/>
<line x1="0.353553" y1="25.6464" x2="24.3536" y2="49.6464" stroke="#94C7DC" stroke-opacity="0.5"/>
<line y1="-0.5" x2="33.9411" y2="-0.5" transform="matrix(-0.707107 0.707107 0.707107 0.707107 24 26)" stroke="#94C7DC" stroke-opacity="0.5"/>
</g>
<g opacity="0.55">
<rect x="1391.5" y="10.5" width="52" height="52" stroke="#94C7DC" stroke-opacity="0.5" stroke-width="3"/>
<path d="M1385 36L1418 3L1434.5 19.5L1451 36L1418 69L1385 36Z" stroke="#94C7DC" stroke-opacity="0.5" stroke-width="3"/>
<path d="M1396 36L1402 30L1408 36L1402 42L1396 36Z" stroke="#94C7DC" stroke-opacity="0.5" stroke-width="2"/>
<path d="M1412 21L1418 15L1424 21L1418 27L1412 21Z" stroke="#94C7DC" stroke-opacity="0.5" stroke-width="2"/>
<path d="M1427 36L1433 30L1439 36L1433 42L1427 36Z" stroke="#94C7DC" stroke-opacity="0.5" stroke-width="2"/>
<path d="M1412 52L1418 46L1424 52L1418 58L1412 52Z" stroke="#94C7DC" stroke-opacity="0.5" stroke-width="2"/>
<line x1="1406.35" y1="25.6464" x2="1430.35" y2="49.6464" stroke="#94C7DC" stroke-opacity="0.5"/>
<line y1="-0.5" x2="33.9411" y2="-0.5" transform="matrix(-0.707107 0.707107 0.707107 0.707107 1430 26)" stroke="#94C7DC" stroke-opacity="0.5"/>
</g>
</svg>
