<svg width="202" height="276" viewBox="0 0 202 276" fill="none" xmlns="http://www.w3.org/2000/svg">
<g opacity="0.1">
<rect x="-46.1361" y="76.5232" width="178.031" height="178.031" transform="rotate(-14.7585 -46.1361 76.5232)" stroke="#252A37" stroke-width="10"/>
<path d="M-45.2601 166.577L35.0963 28.7406L104.014 68.9188L172.933 109.097L92.5761 246.933L-45.2601 166.577Z" stroke="#252A37" stroke-width="10"/>
<path d="M-8.89474 156.997L5.71551 131.936L30.7766 146.546L16.1664 171.607L-8.89474 156.997Z" stroke="#252A37" stroke-width="10"/>
<path d="M30.9369 93.4734L45.5471 68.4123L70.6083 83.0225L55.998 108.084L30.9369 93.4734Z" stroke="#252A37" stroke-width="10"/>
<path d="M93.5897 129.999L108.2 104.938L133.261 119.548L118.651 144.609L93.5897 129.999Z" stroke="#252A37" stroke-width="10"/>
<path d="M57.9351 195.958L72.5453 170.897L97.6064 185.507L82.9962 210.568L57.9351 195.958Z" stroke="#252A37" stroke-width="10"/>
<line x1="17.974" y1="110.909" x2="118.219" y2="169.35" stroke="#252A37" stroke-width="10"/>
<line y1="-5" x2="116.036" y2="-5" transform="matrix(-0.503646 0.86391 0.86391 0.503646 94.7985 94.3262)" stroke="#252A37" stroke-width="10"/>
</g>
</svg>
