<svg width="198" height="291" viewBox="0 0 198 291" fill="none" xmlns="http://www.w3.org/2000/svg">
<g opacity="0.1">
<rect x="29.0212" y="80.4031" width="188.033" height="188.033" transform="rotate(-14.7585 29.0212 80.4031)" stroke="#252A37" stroke-width="10"/>
<path d="M30.2687 175.437L114.9 30.2684L187.484 72.5839L260.068 114.899L175.437 260.068L30.2687 175.437Z" stroke="#252A37" stroke-width="10"/>
<path d="M68.5686 165.347L83.9561 138.953L110.35 154.34L94.9629 180.734L68.5686 165.347Z" stroke="#252A37" stroke-width="10"/>
<path d="M110.519 98.4446L125.907 72.0503L152.301 87.4378L136.913 113.832L110.519 98.4446Z" stroke="#252A37" stroke-width="10"/>
<path d="M176.505 136.913L191.892 110.519L218.287 125.907L202.899 152.301L176.505 136.913Z" stroke="#252A37" stroke-width="10"/>
<path d="M138.953 206.381L154.341 179.987L180.735 195.374L165.348 221.769L138.953 206.381Z" stroke="#252A37" stroke-width="10"/>
<line x1="96.7327" y1="117.037" x2="202.31" y2="178.587" stroke="#252A37" stroke-width="10"/>
<line y1="-5" x2="122.208" y2="-5" transform="matrix(-0.503646 0.86391 0.86391 0.503646 177.778 99.3438)" stroke="#252A37" stroke-width="10"/>
</g>
</svg>
