<svg width="276" height="276" viewBox="0 0 276 276" fill="none" xmlns="http://www.w3.org/2000/svg">
<g opacity="0.1">
<rect x="27.8639" y="76.5232" width="178.031" height="178.031" transform="rotate(-14.7585 27.8639 76.5232)" stroke="#252A37" stroke-width="10"/>
<path d="M28.7399 166.577L109.096 28.7406L178.014 68.9188L246.933 109.097L166.576 246.933L28.7399 166.577Z" stroke="#252A37" stroke-width="10"/>
<path d="M65.1053 156.997L79.7155 131.936L104.777 146.546L90.1664 171.607L65.1053 156.997Z" stroke="#252A37" stroke-width="10"/>
<path d="M104.937 93.4734L119.547 68.4123L144.608 83.0225L129.998 108.084L104.937 93.4734Z" stroke="#252A37" stroke-width="10"/>
<path d="M167.59 129.999L182.2 104.938L207.261 119.548L192.651 144.609L167.59 129.999Z" stroke="#252A37" stroke-width="10"/>
<path d="M131.935 195.958L146.545 170.897L171.606 185.507L156.996 210.568L131.935 195.958Z" stroke="#252A37" stroke-width="10"/>
<line x1="91.974" y1="110.909" x2="192.219" y2="169.35" stroke="#252A37" stroke-width="10"/>
<line y1="-5" x2="116.036" y2="-5" transform="matrix(-0.503646 0.86391 0.86391 0.503646 168.799 94.3262)" stroke="#252A37" stroke-width="10"/>
</g>
</svg>
