<svg width="139" height="139" viewBox="0 0 139 139" fill="none" xmlns="http://www.w3.org/2000/svg">
<rect x="-3.05438" y="1.78066" width="89.4199" height="89.4199" transform="matrix(-0.967008 -0.254745 -0.254745 0.967008 121.951 35.9184)" stroke="#252A37" stroke-width="5"/>
<path d="M123.998 83.6462L83.6466 14.4315L49.0392 34.607L14.4319 54.7826L54.783 123.997L123.998 83.6462Z" stroke="#252A37" stroke-width="5"/>
<path d="M105.737 78.8355L98.4002 66.251L85.8157 73.5876L93.1523 86.1721L105.737 78.8355Z" stroke="#252A37" stroke-width="5"/>
<path d="M85.7352 46.9371L78.3986 34.3526L65.8141 41.6892L73.1507 54.2737L85.7352 46.9371Z" stroke="#252A37" stroke-width="5"/>
<path d="M54.274 65.2789L46.9374 52.6944L34.3529 60.031L41.6895 72.6154L54.274 65.2789Z" stroke="#252A37" stroke-width="5"/>
<path d="M72.178 98.4L64.8415 85.8155L52.257 93.1521L59.5936 105.737L72.178 98.4Z" stroke="#252A37" stroke-width="5"/>
<line y1="-2.5" x2="58.2676" y2="-2.5" transform="matrix(-0.86391 0.503646 0.503646 0.86391 93.509 57.8613)" stroke="#252A37" stroke-width="5"/>
<line x1="55.8268" y1="46.1061" x2="85.173" y2="96.4441" stroke="#252A37" stroke-width="5"/>
</svg>
