<svg width="139" height="139" viewBox="0 0 139 139" fill="none" xmlns="http://www.w3.org/2000/svg">
<rect x="-3.05438" y="1.78066" width="89.4199" height="89.4199" transform="matrix(-0.967008 -0.254745 -0.254745 0.967008 122.521 35.9184)" stroke="#A6E1FA" stroke-width="5"/>
<path d="M124.568 83.6462L84.2171 14.4315L49.6098 34.607L15.0024 54.7826L55.3535 123.997L124.568 83.6462Z" stroke="#A6E1FA" stroke-width="5"/>
<path d="M106.307 78.8355L98.9706 66.251L86.3861 73.5876L93.7227 86.1721L106.307 78.8355Z" stroke="#A6E1FA" stroke-width="5"/>
<path d="M86.3057 46.9371L78.9692 34.3526L66.3847 41.6892L73.7212 54.2737L86.3057 46.9371Z" stroke="#A6E1FA" stroke-width="5"/>
<path d="M54.8445 65.2789L47.508 52.6944L34.9235 60.031L42.2601 72.6154L54.8445 65.2789Z" stroke="#A6E1FA" stroke-width="5"/>
<path d="M72.7486 98.4L65.412 85.8155L52.8275 93.1521L60.1641 105.737L72.7486 98.4Z" stroke="#A6E1FA" stroke-width="5"/>
<line y1="-2.5" x2="58.2676" y2="-2.5" transform="matrix(-0.86391 0.503646 0.503646 0.86391 94.0796 57.8613)" stroke="#A6E1FA" stroke-width="5"/>
<line x1="56.3973" y1="46.1061" x2="85.7436" y2="96.4441" stroke="#A6E1FA" stroke-width="5"/>
</svg>
