<svg width="21" height="21" viewBox="0 0 21 21" fill="none" xmlns="http://www.w3.org/2000/svg">
<path d="M10.2738 6.84961C8.38684 6.84961 6.84691 8.38957 6.84691 10.2766C6.84691 12.1636 8.38684 13.7036 10.2738 13.7036C12.1608 13.7036 13.7008 12.1636 13.7008 10.2766C13.7008 8.38957 12.1608 6.84961 10.2738 6.84961ZM20.552 10.2766C20.552 8.85747 20.5649 7.45119 20.4852 6.03463C20.4055 4.38927 20.0302 2.929 18.827 1.72583C17.6213 0.520083 16.1636 0.147305 14.5183 0.0676077C13.0992 -0.0120898 11.6929 0.000764695 10.2764 0.000764695C8.8573 0.000764695 7.45105 -0.0120898 6.03452 0.0676077C4.38919 0.147305 2.92895 0.522654 1.7258 1.72583C0.520074 2.93157 0.147302 4.38927 0.0676064 6.03463C-0.0120895 7.45376 0.000764681 8.86004 0.000764681 10.2766C0.000764681 11.6932 -0.0120895 13.102 0.0676064 14.5186C0.147302 16.1639 0.522645 17.6242 1.7258 18.8274C2.93152 20.0331 4.38919 20.4059 6.03452 20.4856C7.45363 20.5653 8.85987 20.5524 10.2764 20.5524C11.6955 20.5524 13.1018 20.5653 14.5183 20.4856C16.1636 20.4059 17.6239 20.0305 18.827 18.8274C20.0327 17.6216 20.4055 16.1639 20.4852 14.5186C20.5675 13.102 20.552 11.6957 20.552 10.2766V10.2766ZM10.2738 15.5495C7.35593 15.5495 5.00105 13.1946 5.00105 10.2766C5.00105 7.35864 7.35593 5.00371 10.2738 5.00371C13.1917 5.00371 15.5466 7.35864 15.5466 10.2766C15.5466 13.1946 13.1917 15.5495 10.2738 15.5495ZM15.7626 6.01921C15.0813 6.01921 14.5311 5.46904 14.5311 4.78775C14.5311 4.10647 15.0813 3.5563 15.7626 3.5563C16.4438 3.5563 16.994 4.10647 16.994 4.78775C16.9942 4.94953 16.9625 5.10975 16.9007 5.25925C16.8389 5.40875 16.7482 5.54459 16.6338 5.65898C16.5194 5.77337 16.3836 5.86407 16.2341 5.92588C16.0846 5.9877 15.9243 6.01941 15.7626 6.01921V6.01921Z" fill="#252A37"/>
</svg>
