<svg width="28" height="28" viewBox="0 0 28 28" fill="none" xmlns="http://www.w3.org/2000/svg">
<path d="M13.2525 9.82812C11.3655 9.82812 9.82561 11.3681 9.82561 13.2551C9.82561 15.1421 11.3655 16.6821 13.2525 16.6821C15.1395 16.6821 16.6795 15.1421 16.6795 13.2551C16.6795 11.3681 15.1395 9.82812 13.2525 9.82812ZM23.5307 13.2551C23.5307 11.836 23.5436 10.4297 23.4639 9.01315C23.3842 7.36778 23.0089 5.90752 21.8057 4.70434C20.6 3.4986 19.1423 3.12582 17.497 3.04612C16.0779 2.96643 14.6716 2.97928 13.2551 2.97928C11.836 2.97928 10.4298 2.96643 9.01322 3.04612C7.36789 3.12582 5.90765 3.50117 4.7045 4.70434C3.49877 5.91009 3.126 7.36778 3.04631 9.01315C2.96661 10.4323 2.97946 11.8386 2.97946 13.2551C2.97946 14.6717 2.96661 16.0805 3.04631 17.4971C3.126 19.1424 3.50134 20.6027 4.7045 21.8059C5.91022 23.0116 7.36789 23.3844 9.01322 23.4641C10.4323 23.5438 11.8386 23.5309 13.2551 23.5309C14.6742 23.5309 16.0805 23.5438 17.497 23.4641C19.1423 23.3844 20.6026 23.0091 21.8057 21.8059C23.0114 20.6001 23.3842 19.1424 23.4639 17.4971C23.5462 16.0805 23.5307 14.6742 23.5307 13.2551ZM13.2525 18.528C10.3346 18.528 7.97974 16.1731 7.97974 13.2551C7.97974 10.3372 10.3346 7.98222 13.2525 7.98222C16.1704 7.98222 18.5253 10.3372 18.5253 13.2551C18.5253 16.1731 16.1704 18.528 13.2525 18.528ZM18.7413 8.99772C18.06 8.99772 17.5098 8.44755 17.5098 7.76627C17.5098 7.08499 18.06 6.53482 18.7413 6.53482C19.4225 6.53482 19.9727 7.08499 19.9727 7.76627C19.9729 7.92804 19.9412 8.08827 19.8794 8.23777C19.8176 8.38727 19.7269 8.5231 19.6125 8.63749C19.4981 8.75188 19.3623 8.84258 19.2128 8.9044C19.0633 8.96621 18.903 8.99793 18.7413 8.99772Z" fill="white"/>
</svg>
