<svg width="41" height="44" viewBox="0 0 41 44" fill="none" xmlns="http://www.w3.org/2000/svg">
<path d="M39.8331 18.8571L34.6923 6.28571H37.8462V3.14286H22.0769V0H18.9231V3.14286H3.15385V6.28571H6.30769L1.19846 18.8571H0V22H0.473077C0.965077 23.5651 1.96485 24.9229 3.31154 25.8657C4.64135 26.8267 6.24197 27.3441 7.88462 27.3441C9.52727 27.3441 11.1279 26.8267 12.4577 25.8657C13.8055 24.9171 14.8117 23.5619 15.3277 22H15.7692V18.8571H14.35L9.08308 6.28571H18.9231V31.4286H12.6154L11.3854 31.9943L5.07769 39.8829L6.30769 42.4286H34.6923L35.9223 39.8829L29.6146 31.9943L28.3846 31.4286H22.0769V6.28571H31.9485L26.6815 18.8571H25.2308V22H25.7038C26.2197 23.5571 27.2151 24.9124 28.5486 25.8731C29.8821 26.8338 31.4857 27.351 33.1312 27.351C34.7766 27.351 36.3802 26.8338 37.7137 25.8731C39.0472 24.9124 40.0426 23.5571 40.5585 22H41V18.8571H39.8331ZM10.1554 23.6029C9.45985 23.9864 8.67951 24.1917 7.88462 24.2C7.09913 24.1959 6.32794 23.9902 5.64538 23.6029C4.94936 23.2227 4.36295 22.6708 3.94231 22H11.8269C11.4098 22.6626 10.8358 23.213 10.1554 23.6029ZM10.9438 18.8571H4.63615L7.79 11.3143L10.9438 18.8571ZM27.6277 34.5714L31.5385 39.2857H9.46154L13.3723 34.5714H27.6277ZM33.2415 11.3771L36.3954 18.92H30.0877L33.2415 11.3771ZM35.3862 23.6657C34.6966 24.0639 33.9123 24.2702 33.1154 24.2629C32.3279 24.274 31.5528 24.0673 30.8762 23.6657C30.1791 23.2592 29.594 22.6869 29.1731 22H37.0577C36.6667 22.6993 36.0879 23.2761 35.3862 23.6657Z" fill="white"/>
</svg>
