<svg width="387" height="111" viewBox="0 0 387 111" fill="none" xmlns="http://www.w3.org/2000/svg">
<path d="M86.0344 15.2403C84.9304 14.6643 84.0304 14.5203 83.3344 14.8083C82.6384 15.0723 82.1584 15.6243 81.8944 16.4643C81.6304 17.3043 81.5584 18.3483 81.6784 19.5963C81.8224 20.8443 82.1704 22.1403 82.7224 23.4843C83.5144 25.0203 84.4744 26.3523 85.6024 27.4803C86.7304 28.6083 87.9544 29.5323 89.2744 30.2523C90.6184 30.9723 92.0104 31.5003 93.4504 31.8363C94.9144 32.1483 96.3784 32.2683 97.8424 32.1963C98.5144 29.3883 99.2464 26.6403 100.038 23.9523C100.83 21.2643 101.706 18.7323 102.666 16.3563C103.626 13.9803 104.694 11.8083 105.87 9.84026C107.046 7.84826 108.342 6.15626 109.758 4.76426C111.174 3.34826 112.734 2.26826 114.438 1.52426C116.142 0.780262 118.014 0.456262 120.054 0.552264C120.99 0.600263 121.818 0.792262 122.538 1.12826C123.282 1.44026 123.918 1.84826 124.446 2.35226C124.998 2.85626 125.454 3.43226 125.814 4.08026C126.174 4.70426 126.462 5.35226 126.678 6.02426C126.894 6.69626 127.038 7.35626 127.11 8.00426C127.182 8.62826 127.206 9.20426 127.182 9.73226C126.99 12.8283 126.282 15.6123 125.058 18.0843C123.834 20.5323 122.262 22.6803 120.342 24.5283C118.446 26.3763 116.298 27.9603 113.898 29.2803C111.522 30.5763 109.098 31.6203 106.626 32.4123C105.954 34.8363 105.306 37.2363 104.682 39.6123C104.082 41.9883 103.518 44.2683 102.99 46.4523C102.462 48.6123 101.982 50.6283 101.55 52.5003C101.142 54.3483 100.782 55.9683 100.47 57.3603C100.182 58.7283 99.9424 59.8203 99.7504 60.6363C99.5824 61.4523 99.4984 61.8843 99.4984 61.9323C99.1624 63.2523 98.8144 64.4763 98.4544 65.6043C98.1184 66.7083 97.7464 67.7283 97.3384 68.6643C99.2824 69.6003 101.298 70.5843 103.386 71.6163C105.474 72.6483 107.574 73.6443 109.686 74.6043C111.798 75.5643 113.886 76.4403 115.95 77.2323C118.038 78.0483 120.042 78.6963 121.962 79.1763C123.906 79.6563 125.73 79.9443 127.434 80.0403C129.162 80.1363 130.722 79.9443 132.114 79.4643C132.306 79.3923 132.546 79.2843 132.834 79.1403C133.146 78.9963 133.446 78.8643 133.734 78.7443C134.046 78.6483 134.322 78.5883 134.562 78.5643C134.802 78.5403 134.97 78.6123 135.066 78.7803C135.186 78.9483 135.21 79.2363 135.138 79.6443C135.066 80.0763 134.85 80.6643 134.49 81.4083C134.082 82.3203 133.41 83.2083 132.474 84.0723C131.562 84.9363 130.326 85.6923 128.766 86.3403C126.918 87.1083 125.034 87.4803 123.114 87.4563C121.194 87.4563 119.25 87.1683 117.282 86.5923C115.338 86.0403 113.382 85.2603 111.414 84.2523C109.47 83.2683 107.55 82.1643 105.654 80.9403C103.758 79.7403 101.898 78.4803 100.074 77.1603C98.2504 75.8643 96.4984 74.6283 94.8184 73.4523C94.1224 74.4603 93.4024 75.3003 92.6584 75.9723C91.9384 76.6683 91.1824 77.2443 90.3904 77.7003C89.6224 78.1563 88.8304 78.5163 88.0144 78.7803C87.1984 79.0683 86.3824 79.2963 85.5664 79.4643C84.3424 79.7523 83.1784 79.7523 82.0744 79.4643C80.9944 79.2003 80.0104 78.7443 79.1224 78.0963C78.2584 77.4723 77.5144 76.6923 76.8904 75.7563C76.2904 74.8443 75.8584 73.8723 75.5944 72.8403C75.3304 71.8323 75.2584 70.8123 75.3784 69.7803C75.5224 68.7483 75.8824 67.8003 76.4584 66.9363C77.0584 66.0723 77.8984 65.3523 78.9784 64.7763C80.0824 64.1763 81.4864 63.8043 83.1904 63.6603C84.1024 63.5883 85.1944 63.7323 86.4664 64.0923C87.7384 64.4523 89.1664 64.9683 90.7504 65.6403C91.3264 63.6003 91.8664 61.3563 92.3704 58.9083C92.8984 56.4363 93.4144 53.8563 93.9184 51.1683C94.4464 48.4563 94.9864 45.6843 95.5384 42.8523C96.1144 39.9963 96.7264 37.1403 97.3744 34.2843C95.6464 34.4043 93.8704 34.3803 92.0464 34.2123C90.2224 34.0203 88.4704 33.6003 86.7904 32.9523C85.1104 32.2803 83.5744 31.3443 82.1824 30.1443C80.8144 28.9443 79.6984 27.3723 78.8344 25.4283C78.1864 23.9403 77.7664 22.4043 77.5744 20.8203C77.4064 19.2363 77.4184 17.7723 77.6104 16.4283C77.8264 15.0603 78.1984 13.8963 78.7264 12.9363C79.2784 11.9763 79.9264 11.3643 80.6704 11.1003C81.4384 10.8363 82.2784 11.0163 83.1904 11.6403C84.1024 12.2403 85.0504 13.4403 86.0344 15.2403ZM120.162 3.64826C119.466 3.67226 118.758 4.02026 118.038 4.69226C117.342 5.36426 116.634 6.28826 115.914 7.46426C115.194 8.61626 114.474 9.99626 113.754 11.6043C113.034 13.1883 112.314 14.9283 111.594 16.8243C110.898 18.6963 110.202 20.6883 109.506 22.8003C108.834 24.9123 108.174 27.0723 107.526 29.2803C109.494 28.3203 111.414 27.1563 113.286 25.7883C115.158 24.3963 116.826 22.8723 118.29 21.2163C119.754 19.5363 120.93 17.7603 121.818 15.8883C122.73 13.9923 123.198 12.0363 123.222 10.0203C123.246 7.90826 122.958 6.31226 122.358 5.23226C121.782 4.12826 121.05 3.60026 120.162 3.64826ZM84.9544 75.9363C85.8424 75.6723 86.6464 75.0123 87.3664 73.9563C88.0864 72.9243 88.7584 71.5803 89.3824 69.9243C88.2304 69.2523 87.1384 68.7123 86.1064 68.3043C85.0744 67.8963 84.1144 67.6683 83.2264 67.6203C82.5064 67.5963 81.8944 67.8243 81.3904 68.3043C80.9104 68.7843 80.5624 69.3843 80.3464 70.1043C80.1304 70.8003 80.0464 71.5563 80.0944 72.3723C80.1664 73.1883 80.3824 73.9083 80.7424 74.5323C81.1264 75.1803 81.6544 75.6483 82.3264 75.9363C83.0224 76.2483 83.8984 76.2483 84.9544 75.9363ZM116.826 62.2203C116.754 61.4043 116.778 60.4083 116.898 59.2323C116.994 58.0563 117.222 56.8323 117.582 55.5603C117.918 54.2883 118.374 53.0163 118.95 51.7443C119.55 50.4483 120.282 49.2843 121.146 48.2523C122.034 47.2203 123.054 46.3563 124.206 45.6603C125.382 44.9403 126.714 44.5203 128.202 44.4003C128.826 44.3283 129.426 44.5323 130.002 45.0123C130.602 45.4683 131.034 46.2123 131.298 47.2443C131.514 46.2123 131.646 45.5163 131.694 45.1563C131.718 44.7963 131.85 44.5923 132.09 44.5443C132.354 44.4963 132.654 44.5803 132.99 44.7963C133.35 44.9883 133.722 45.2883 134.106 45.6963C134.49 46.0803 134.85 46.5363 135.186 47.0643C135.522 47.5683 135.786 48.1203 135.978 48.7203C136.194 49.2963 136.302 49.8723 136.302 50.4483C136.302 50.6403 136.218 51.0363 136.05 51.6363C135.906 52.2123 135.714 52.9203 135.474 53.7603C135.258 54.6003 135.006 55.5243 134.718 56.5323C134.43 57.5163 134.154 58.5003 133.89 59.4843C133.626 60.4683 133.374 61.4163 133.134 62.3283C132.918 63.2403 132.75 64.0323 132.63 64.7043C132.366 65.9523 132.33 66.6603 132.522 66.8283C132.714 66.9723 133.122 66.7803 133.746 66.2523C134.586 65.5803 135.414 64.7403 136.23 63.7323C137.07 62.7003 137.862 61.6083 138.606 60.4563C139.35 59.2803 140.034 58.1043 140.658 56.9283C141.306 55.7283 141.87 54.6363 142.35 53.6523C142.83 52.6443 143.226 51.7923 143.538 51.0963C143.85 50.4003 144.042 49.9683 144.114 49.8003C144.426 49.1043 144.714 48.6843 144.978 48.5403C145.266 48.3723 145.482 48.3963 145.626 48.6123C145.794 48.8043 145.878 49.1523 145.878 49.6563C145.878 50.1363 145.758 50.6883 145.518 51.3123C145.206 52.1523 144.762 53.2083 144.186 54.4803C143.61 55.7523 142.926 57.1083 142.134 58.5483C141.342 59.9643 140.466 61.3923 139.506 62.8323C138.546 64.2723 137.55 65.5683 136.518 66.7203C135.486 67.8483 134.418 68.7723 133.314 69.4923C132.234 70.2123 131.166 70.5723 130.11 70.5723C129.894 70.5723 129.63 70.5363 129.318 70.4643C129.006 70.3683 128.694 70.2123 128.382 69.9963C128.07 69.7803 127.782 69.4803 127.518 69.0963C127.278 68.7123 127.086 68.2203 126.942 67.6203C126.102 68.4603 125.178 69.0483 124.17 69.3843C123.186 69.6963 122.31 69.8283 121.542 69.7803C120.702 69.7083 119.994 69.3843 119.418 68.8083C118.842 68.2323 118.374 67.5483 118.014 66.7563C117.654 65.9643 117.378 65.1483 117.186 64.3083C116.994 63.4683 116.874 62.7723 116.826 62.2203ZM130.506 50.5923C130.41 49.8963 130.242 49.3443 130.002 48.9363C129.762 48.5283 129.486 48.3003 129.174 48.2523C128.598 48.1803 127.962 48.5403 127.266 49.3323C126.57 50.1003 125.91 51.1563 125.286 52.5003C124.662 53.8203 124.122 55.3323 123.666 57.0363C123.21 58.7403 122.934 60.4683 122.838 62.2203C122.838 62.4123 122.85 62.7483 122.874 63.2283C122.922 63.7083 123.006 64.1883 123.126 64.6683C123.27 65.1483 123.438 65.5803 123.63 65.9643C123.846 66.3243 124.11 66.5043 124.422 66.5043C124.734 66.5043 125.07 66.2763 125.43 65.8203C125.814 65.3643 126.174 64.8603 126.51 64.3083C126.894 63.6603 127.266 62.9163 127.626 62.0763L127.662 62.1123L130.506 50.5923ZM163.505 21.9003C164.537 21.8283 165.377 22.0323 166.025 22.5123C166.673 22.9923 167.165 23.5923 167.501 24.3123C167.837 25.0323 168.041 25.8003 168.113 26.6163C168.209 27.4083 168.221 28.0923 168.149 28.6683C167.765 32.1723 167.021 35.2443 165.917 37.8843C164.837 40.5003 163.613 42.7203 162.245 44.5443C160.901 46.3683 159.521 47.8083 158.105 48.8643C156.713 49.8963 155.513 50.5923 154.505 50.9523C154.097 52.8723 153.773 54.8643 153.533 56.9283C153.293 58.9683 153.185 61.0923 153.209 63.3003C153.209 63.8043 153.233 64.3203 153.281 64.8483C153.329 65.3523 153.401 65.8083 153.497 66.2163C153.617 66.6003 153.761 66.9243 153.929 67.1883C154.121 67.4283 154.337 67.5483 154.577 67.5483C154.985 67.5483 155.465 67.2963 156.017 66.7923C156.593 66.2883 157.193 65.6283 157.817 64.8123C158.441 63.9963 159.077 63.0603 159.725 62.0043C160.397 60.9483 161.045 59.8683 161.669 58.7643C162.293 57.6603 162.881 56.5803 163.433 55.5243C164.009 54.4683 164.513 53.5203 164.945 52.6803C165.377 51.8163 165.725 51.1083 165.989 50.5563C166.253 50.0043 166.409 49.7043 166.457 49.6563C166.625 49.3923 166.793 49.2243 166.961 49.1523C167.153 49.0803 167.321 49.1043 167.465 49.2243C167.609 49.3203 167.717 49.5123 167.789 49.8003C167.861 50.0883 167.861 50.4603 167.789 50.9163C167.765 51.0123 167.621 51.3843 167.357 52.0323C167.117 52.6563 166.769 53.4483 166.313 54.4083C165.857 55.3443 165.317 56.4123 164.693 57.6123C164.093 58.8123 163.433 60.0243 162.713 61.2483C161.993 62.4723 161.225 63.6723 160.409 64.8483C159.617 66.0003 158.801 67.0323 157.961 67.9443C157.145 68.8323 156.317 69.5523 155.477 70.1043C154.637 70.6563 153.821 70.9323 153.029 70.9323C152.597 70.9323 152.045 70.8243 151.373 70.6083C150.725 70.3923 150.089 69.9363 149.465 69.2403C148.865 68.5443 148.349 67.5483 147.917 66.2523C147.509 64.9563 147.305 63.2283 147.305 61.0683C147.305 59.5563 147.413 57.8403 147.629 55.9203C147.845 54.0003 148.145 51.9963 148.529 49.9083C148.937 47.8203 149.417 45.6843 149.969 43.5003C150.545 41.3163 151.193 39.2043 151.913 37.1643C152.633 35.1243 153.413 33.1923 154.253 31.3683C155.117 29.5443 156.041 27.9483 157.025 26.5803C158.009 25.2123 159.041 24.1083 160.121 23.2683C161.201 22.4283 162.329 21.9723 163.505 21.9003ZM163.721 28.8123C163.193 29.6283 162.557 30.6723 161.813 31.9443C161.093 33.1923 160.337 34.6563 159.545 36.3363C158.753 37.9923 157.961 39.8403 157.169 41.8803C156.401 43.9203 155.717 46.1043 155.117 48.4323C156.149 47.9763 157.241 47.1123 158.393 45.8403C159.569 44.5683 160.697 43.0203 161.777 41.1963C162.857 39.3483 163.829 37.2843 164.693 35.0043C165.557 32.7243 166.193 30.3243 166.601 27.8043C166.721 27.0603 166.673 26.6403 166.457 26.5443C166.241 26.4483 165.965 26.5203 165.629 26.7603C165.293 27.0003 164.933 27.3363 164.549 27.7683C164.189 28.1763 163.913 28.5243 163.721 28.8123ZM172.057 44.5803C171.961 44.1963 172.033 44.0163 172.273 44.0403C172.537 44.0403 172.873 44.1843 173.281 44.4723C173.713 44.7363 174.181 45.1203 174.685 45.6243C175.189 46.1283 175.657 46.6923 176.089 47.3163C176.545 47.9163 176.917 48.5523 177.205 49.2243C177.493 49.8723 177.637 50.4843 177.637 51.0603C177.637 51.2523 177.565 51.6363 177.421 52.2123C177.277 52.7883 177.085 53.4843 176.845 54.3003C176.605 55.1163 176.341 56.0163 176.053 57.0003C175.765 57.9603 175.477 58.9323 175.189 59.9163C174.925 60.9003 174.673 61.8483 174.433 62.7603C174.217 63.6483 174.049 64.4283 173.929 65.1003C173.809 65.7243 173.725 66.1923 173.677 66.5043C173.629 66.7923 173.629 66.9603 173.677 67.0083C173.749 67.0563 173.869 67.0083 174.037 66.8643C174.229 66.7203 174.493 66.5163 174.829 66.2523C175.669 65.5803 176.485 64.7643 177.277 63.8043C178.069 62.8203 178.813 61.7883 179.509 60.7083C180.205 59.6283 180.841 58.5483 181.417 57.4683C182.017 56.3643 182.533 55.3563 182.965 54.4443C183.421 53.5323 183.781 52.7523 184.045 52.1043C184.333 51.4563 184.513 51.0483 184.585 50.8803C184.921 50.1843 185.221 49.7643 185.485 49.6203C185.773 49.4523 185.989 49.4763 186.133 49.6923C186.301 49.8843 186.373 50.2323 186.349 50.7363C186.349 51.2163 186.241 51.7683 186.025 52.3923C185.713 53.2323 185.281 54.2643 184.729 55.4883C184.177 56.7123 183.529 57.9963 182.785 59.3403C182.041 60.6843 181.213 62.0283 180.301 63.3723C179.389 64.7163 178.429 65.9283 177.421 67.0083C176.437 68.0643 175.405 68.9283 174.325 69.6003C173.269 70.2483 172.213 70.5723 171.157 70.5723C170.893 70.5723 170.581 70.5123 170.221 70.3923C169.861 70.2723 169.513 70.0563 169.177 69.7443C168.841 69.4083 168.553 68.9523 168.313 68.3763C168.049 67.7763 167.917 67.0203 167.917 66.1083C167.917 65.9163 168.049 65.3883 168.313 64.5243C168.577 63.6603 168.913 62.6043 169.321 61.3563C169.705 60.0843 170.101 58.6923 170.509 57.1803C170.941 55.6683 171.301 54.1443 171.589 52.6083C171.901 51.0723 172.117 49.6083 172.237 48.2163C172.357 46.8003 172.297 45.5883 172.057 44.5803ZM174.973 39.9723C175.045 39.3723 175.177 38.8083 175.369 38.2803C175.561 37.7523 175.777 37.2963 176.017 36.9123C176.281 36.5043 176.557 36.1923 176.845 35.9763C177.157 35.7363 177.457 35.6163 177.745 35.6163C178.033 35.6163 178.285 35.7363 178.501 35.9763C178.717 36.1923 178.885 36.5043 179.005 36.9123C179.149 37.2963 179.233 37.7523 179.257 38.2803C179.281 38.8083 179.257 39.3723 179.185 39.9723C179.089 40.5723 178.933 41.1363 178.717 41.6643C178.525 42.1923 178.297 42.6603 178.033 43.0683C177.769 43.4523 177.481 43.7643 177.169 44.0043C176.881 44.2443 176.593 44.3643 176.305 44.3643C176.017 44.3643 175.765 44.2443 175.549 44.0043C175.333 43.7643 175.165 43.4523 175.045 43.0683C174.925 42.6603 174.853 42.1923 174.829 41.6643C174.805 41.1363 174.853 40.5723 174.973 39.9723ZM200.771 45.9483C201.851 45.9483 202.763 46.2723 203.507 46.9203C204.251 47.5683 204.863 48.3843 205.343 49.3683C205.823 50.3283 206.195 51.3843 206.459 52.5363C206.723 53.6643 206.891 54.7203 206.963 55.7043C207.683 55.6083 208.403 55.4163 209.123 55.1283C209.843 54.8403 210.575 54.4203 211.319 53.8683C212.087 53.3163 212.855 52.6083 213.623 51.7443C214.415 50.8563 215.231 49.7643 216.071 48.4683C216.239 48.1803 216.443 48.0243 216.683 48.0003C216.923 47.9523 217.127 48.0243 217.295 48.2163C217.463 48.3843 217.559 48.6603 217.583 49.0443C217.607 49.4283 217.511 49.8963 217.295 50.4483C216.719 51.8643 216.035 53.0643 215.243 54.0483C214.451 55.0083 213.599 55.8123 212.687 56.4603C211.799 57.0843 210.863 57.5763 209.879 57.9363C208.895 58.2723 207.935 58.5123 206.999 58.6563C206.951 59.3523 206.867 60.1683 206.747 61.1043C206.627 62.0163 206.423 62.9643 206.135 63.9483C205.871 64.9323 205.511 65.9043 205.055 66.8643C204.599 67.8243 204.023 68.6883 203.327 69.4563C202.631 70.2243 201.791 70.8483 200.807 71.3283C199.847 71.8323 198.719 72.1083 197.423 72.1563C196.871 72.2043 196.283 72.1083 195.659 71.8683C195.059 71.6523 194.495 71.2803 193.967 70.7523C193.463 70.2243 193.019 69.5403 192.635 68.7003C192.251 67.8603 192.023 66.8523 191.951 65.6763C191.855 64.3083 192.011 63.0603 192.419 61.9323C192.851 60.7803 193.391 59.7843 194.039 58.9443C194.687 58.0803 195.383 57.3963 196.127 56.8923C196.871 56.3883 197.519 56.0763 198.071 55.9563C198.599 55.8363 199.115 55.7643 199.619 55.7403C200.123 55.7163 200.627 55.7043 201.131 55.7043C200.987 54.7923 200.771 53.9763 200.483 53.2563C200.219 52.5123 199.919 51.8883 199.583 51.3843C199.271 50.8563 198.935 50.4603 198.575 50.1963C198.215 49.9323 197.891 49.8123 197.603 49.8363C197.147 49.8603 196.703 50.0523 196.271 50.4123C195.863 50.7723 195.467 51.2283 195.083 51.7803C194.723 52.3083 194.375 52.8963 194.039 53.5443C193.703 54.1923 193.403 54.8283 193.139 55.4523C192.875 56.0763 192.647 56.6523 192.455 57.1803C192.263 57.7083 192.119 58.1163 192.023 58.4043C191.855 59.5083 191.699 60.6483 191.555 61.8243C191.435 62.9763 191.327 64.1883 191.231 65.4603C191.207 65.8203 191.195 66.2163 191.195 66.6483C191.195 67.0563 191.195 67.4403 191.195 67.8003C191.195 68.1603 191.195 68.4723 191.195 68.7363C191.219 69.0003 191.219 69.1563 191.195 69.2043C190.955 69.8523 190.631 70.2123 190.223 70.2843C189.839 70.3323 189.431 70.0563 188.999 69.4563C188.591 68.8563 188.207 67.9203 187.847 66.6483C187.487 65.3523 187.235 63.6963 187.091 61.6803C187.043 60.9603 187.091 59.8923 187.235 58.4763C187.379 57.0363 187.619 55.3923 187.955 53.5443C188.315 51.6963 188.747 49.7043 189.251 47.5683C189.779 45.4323 190.379 43.3083 191.051 41.1963C191.723 39.0603 192.467 37.0083 193.283 35.0403C194.099 33.0723 194.975 31.3203 195.911 29.7843C196.847 28.2483 197.843 27.0003 198.899 26.0403C199.955 25.0563 201.047 24.5163 202.175 24.4203C203.639 24.3003 204.791 24.5403 205.631 25.1403C206.471 25.7163 207.059 26.4723 207.395 27.4083C207.755 28.3443 207.911 29.3763 207.863 30.5043C207.839 31.6083 207.707 32.6403 207.467 33.6003C207.083 35.0643 206.591 36.3363 205.991 37.4163C205.391 38.4963 204.719 39.4203 203.975 40.1883C203.255 40.9323 202.487 41.5443 201.671 42.0243C200.879 42.4803 200.111 42.8523 199.367 43.1403C198.623 43.4043 197.927 43.5963 197.279 43.7163C196.631 43.8363 196.103 43.9083 195.695 43.9323C194.855 46.0683 194.111 48.4563 193.463 51.0963C193.823 50.4723 194.231 49.8603 194.687 49.2603C195.167 48.6363 195.707 48.0843 196.307 47.6043C196.907 47.1003 197.579 46.7043 198.323 46.4163C199.067 46.1043 199.883 45.9483 200.771 45.9483ZM197.387 69.2043C197.771 69.1563 198.191 68.9043 198.647 68.4483C199.127 67.9683 199.559 67.2963 199.943 66.4323C200.351 65.5683 200.687 64.5003 200.951 63.2283C201.239 61.9323 201.371 60.4563 201.347 58.8003C200.987 58.7763 200.663 58.7523 200.375 58.7283C200.111 58.7043 199.895 58.6923 199.727 58.6923C198.647 58.7403 197.735 59.0403 196.991 59.5923C196.271 60.1443 195.683 60.7923 195.227 61.5363C194.795 62.2563 194.495 63.0003 194.327 63.7683C194.183 64.5363 194.147 65.1723 194.219 65.6763C194.363 66.4443 194.519 67.0683 194.687 67.5483C194.879 68.0283 195.107 68.4003 195.371 68.6643C195.635 68.9043 195.923 69.0603 196.235 69.1323C196.571 69.2043 196.955 69.2283 197.387 69.2043ZM205.379 29.9283C205.115 29.9763 204.671 30.2283 204.047 30.6843C203.447 31.1163 202.739 31.8123 201.923 32.7723C201.131 33.7083 200.255 34.9203 199.295 36.4083C198.359 37.8723 197.447 39.6483 196.559 41.7363C197.159 41.6643 197.867 41.4603 198.683 41.1243C199.523 40.7883 200.375 40.3083 201.239 39.6843C202.103 39.0363 202.931 38.2323 203.723 37.2723C204.539 36.2883 205.223 35.1243 205.775 33.7803C205.919 33.4683 206.027 33.0843 206.099 32.6283C206.171 32.1723 206.195 31.7403 206.171 31.3323C206.171 30.9243 206.111 30.5883 205.991 30.3243C205.871 30.0363 205.667 29.9043 205.379 29.9283ZM240.541 50.2683C240.157 51.3963 239.629 52.7043 238.957 54.1923C238.285 55.6803 237.505 57.2163 236.617 58.8003C235.729 60.3603 234.757 61.9083 233.701 63.4443C232.669 64.9563 231.601 66.3003 230.497 67.4763C229.393 68.6283 228.277 69.5523 227.149 70.2483C226.045 70.9443 224.989 71.2563 223.981 71.1843C222.469 71.0883 221.197 70.7283 220.165 70.1043C219.157 69.4803 218.353 68.7123 217.753 67.8003C217.129 66.8883 216.685 65.9043 216.421 64.8483C216.133 63.7923 215.965 62.7723 215.917 61.7883C215.773 59.5323 216.001 57.3843 216.601 55.3443C217.201 53.2803 218.041 51.4563 219.121 49.8723C220.201 48.2883 221.425 47.0283 222.793 46.0923C224.185 45.1323 225.589 44.6283 227.005 44.5803C228.157 44.5323 229.045 44.6883 229.669 45.0483C230.317 45.4083 230.785 45.8523 231.073 46.3803C231.385 46.9083 231.553 47.4723 231.577 48.0723C231.625 48.6723 231.637 49.1883 231.613 49.6203C231.493 51.1803 231.073 52.5603 230.353 53.7603C229.633 54.9363 228.805 55.9563 227.869 56.8203C226.957 57.6843 226.033 58.3923 225.097 58.9443C224.161 59.4723 223.417 59.8563 222.865 60.0963C222.577 61.5123 222.433 62.9043 222.433 64.2723C222.457 65.4723 222.613 66.4203 222.901 67.1163C223.213 67.7883 223.753 68.0643 224.521 67.9443C225.097 67.8483 225.721 67.6443 226.393 67.3323C227.065 66.9963 227.749 66.5763 228.445 66.0723C229.141 65.5443 229.825 64.9203 230.497 64.2003C231.193 63.4563 231.853 62.6163 232.477 61.6803C233.149 60.6723 233.821 59.5443 234.493 58.2963C235.189 57.0483 235.837 55.8123 236.437 54.5883C237.037 53.3643 237.565 52.2363 238.021 51.2043C238.501 50.1483 238.861 49.3323 239.101 48.7563C239.437 48.0603 239.737 47.6403 240.001 47.4963C240.289 47.3283 240.505 47.3523 240.649 47.5683C240.817 47.7843 240.901 48.1443 240.901 48.6483C240.901 49.1283 240.781 49.6683 240.541 50.2683ZM228.841 47.6043C228.481 47.7003 228.073 48.0243 227.617 48.5763C227.161 49.1283 226.681 49.8363 226.177 50.7003C225.697 51.5643 225.229 52.5603 224.773 53.6883C224.317 54.7923 223.909 55.9683 223.549 57.2163C224.245 56.9763 224.941 56.5443 225.637 55.9203C226.357 55.2963 227.005 54.6123 227.581 53.8683C228.181 53.1003 228.673 52.3203 229.057 51.5283C229.465 50.7363 229.705 50.0283 229.777 49.4043C229.825 49.1883 229.837 48.9603 229.813 48.7203C229.789 48.4803 229.741 48.2763 229.669 48.1083C229.597 47.9163 229.489 47.7723 229.345 47.6763C229.201 47.5803 229.033 47.5563 228.841 47.6043ZM258.265 21.9003C259.297 21.8283 260.137 22.0323 260.785 22.5123C261.433 22.9923 261.925 23.5923 262.261 24.3123C262.597 25.0323 262.801 25.8003 262.873 26.6163C262.969 27.4083 262.981 28.0923 262.909 28.6683C262.525 32.1723 261.781 35.2443 260.677 37.8843C259.597 40.5003 258.373 42.7203 257.005 44.5443C255.661 46.3683 254.281 47.8083 252.865 48.8643C251.473 49.8963 250.273 50.5923 249.265 50.9523C248.857 52.8723 248.533 54.8643 248.293 56.9283C248.053 58.9683 247.945 61.0923 247.969 63.3003C247.969 63.8043 247.993 64.3203 248.041 64.8483C248.089 65.3523 248.161 65.8083 248.257 66.2163C248.377 66.6003 248.521 66.9243 248.689 67.1883C248.881 67.4283 249.097 67.5483 249.337 67.5483C249.745 67.5483 250.225 67.2963 250.777 66.7923C251.353 66.2883 251.953 65.6283 252.577 64.8123C253.201 63.9963 253.837 63.0603 254.485 62.0043C255.157 60.9483 255.805 59.8683 256.429 58.7643C257.053 57.6603 257.641 56.5803 258.193 55.5243C258.769 54.4683 259.273 53.5203 259.705 52.6803C260.137 51.8163 260.485 51.1083 260.749 50.5563C261.013 50.0043 261.169 49.7043 261.217 49.6563C261.385 49.3923 261.553 49.2243 261.721 49.1523C261.913 49.0803 262.081 49.1043 262.225 49.2243C262.369 49.3203 262.477 49.5123 262.549 49.8003C262.621 50.0883 262.621 50.4603 262.549 50.9163C262.525 51.0123 262.381 51.3843 262.117 52.0323C261.877 52.6563 261.529 53.4483 261.073 54.4083C260.617 55.3443 260.077 56.4123 259.453 57.6123C258.853 58.8123 258.193 60.0243 257.473 61.2483C256.753 62.4723 255.985 63.6723 255.169 64.8483C254.377 66.0003 253.561 67.0323 252.721 67.9443C251.905 68.8323 251.077 69.5523 250.237 70.1043C249.397 70.6563 248.581 70.9323 247.789 70.9323C247.357 70.9323 246.805 70.8243 246.133 70.6083C245.485 70.3923 244.849 69.9363 244.225 69.2403C243.625 68.5443 243.109 67.5483 242.677 66.2523C242.269 64.9563 242.065 63.2283 242.065 61.0683C242.065 59.5563 242.173 57.8403 242.389 55.9203C242.605 54.0003 242.905 51.9963 243.289 49.9083C243.697 47.8203 244.177 45.6843 244.729 43.5003C245.305 41.3163 245.953 39.2043 246.673 37.1643C247.393 35.1243 248.173 33.1923 249.013 31.3683C249.877 29.5443 250.801 27.9483 251.785 26.5803C252.769 25.2123 253.801 24.1083 254.881 23.2683C255.961 22.4283 257.089 21.9723 258.265 21.9003ZM258.481 28.8123C257.953 29.6283 257.317 30.6723 256.573 31.9443C255.853 33.1923 255.097 34.6563 254.305 36.3363C253.513 37.9923 252.721 39.8403 251.929 41.8803C251.161 43.9203 250.477 46.1043 249.877 48.4323C250.909 47.9763 252.001 47.1123 253.153 45.8403C254.329 44.5683 255.457 43.0203 256.537 41.1963C257.617 39.3483 258.589 37.2843 259.453 35.0043C260.317 32.7243 260.953 30.3243 261.361 27.8043C261.481 27.0603 261.433 26.6403 261.217 26.5443C261.001 26.4483 260.725 26.5203 260.389 26.7603C260.053 27.0003 259.693 27.3363 259.309 27.7683C258.949 28.1763 258.673 28.5243 258.481 28.8123ZM280.821 21.9003C281.853 21.8283 282.693 22.0323 283.341 22.5123C283.989 22.9923 284.481 23.5923 284.817 24.3123C285.153 25.0323 285.357 25.8003 285.429 26.6163C285.525 27.4083 285.537 28.0923 285.465 28.6683C285.081 32.1723 284.337 35.2443 283.233 37.8843C282.153 40.5003 280.929 42.7203 279.561 44.5443C278.217 46.3683 276.837 47.8083 275.421 48.8643C274.029 49.8963 272.829 50.5923 271.821 50.9523C271.413 52.8723 271.089 54.8643 270.849 56.9283C270.609 58.9683 270.501 61.0923 270.525 63.3003C270.525 63.8043 270.549 64.3203 270.597 64.8483C270.645 65.3523 270.717 65.8083 270.813 66.2163C270.933 66.6003 271.077 66.9243 271.245 67.1883C271.437 67.4283 271.653 67.5483 271.893 67.5483C272.301 67.5483 272.781 67.2963 273.333 66.7923C273.909 66.2883 274.509 65.6283 275.133 64.8123C275.757 63.9963 276.393 63.0603 277.041 62.0043C277.713 60.9483 278.361 59.8683 278.985 58.7643C279.609 57.6603 280.197 56.5803 280.749 55.5243C281.325 54.4683 281.829 53.5203 282.261 52.6803C282.693 51.8163 283.041 51.1083 283.305 50.5563C283.569 50.0043 283.725 49.7043 283.773 49.6563C283.941 49.3923 284.109 49.2243 284.277 49.1523C284.469 49.0803 284.637 49.1043 284.781 49.2243C284.925 49.3203 285.033 49.5123 285.105 49.8003C285.177 50.0883 285.177 50.4603 285.105 50.9163C285.081 51.0123 284.937 51.3843 284.673 52.0323C284.433 52.6563 284.085 53.4483 283.629 54.4083C283.173 55.3443 282.633 56.4123 282.009 57.6123C281.409 58.8123 280.749 60.0243 280.029 61.2483C279.309 62.4723 278.541 63.6723 277.725 64.8483C276.933 66.0003 276.117 67.0323 275.277 67.9443C274.461 68.8323 273.633 69.5523 272.793 70.1043C271.953 70.6563 271.137 70.9323 270.345 70.9323C269.913 70.9323 269.361 70.8243 268.689 70.6083C268.041 70.3923 267.405 69.9363 266.781 69.2403C266.181 68.5443 265.665 67.5483 265.233 66.2523C264.825 64.9563 264.621 63.2283 264.621 61.0683C264.621 59.5563 264.729 57.8403 264.945 55.9203C265.161 54.0003 265.461 51.9963 265.845 49.9083C266.253 47.8203 266.733 45.6843 267.285 43.5003C267.861 41.3163 268.509 39.2043 269.229 37.1643C269.949 35.1243 270.729 33.1923 271.569 31.3683C272.433 29.5443 273.357 27.9483 274.341 26.5803C275.325 25.2123 276.357 24.1083 277.437 23.2683C278.517 22.4283 279.645 21.9723 280.821 21.9003ZM281.037 28.8123C280.509 29.6283 279.873 30.6723 279.129 31.9443C278.409 33.1923 277.653 34.6563 276.861 36.3363C276.069 37.9923 275.277 39.8403 274.485 41.8803C273.717 43.9203 273.033 46.1043 272.433 48.4323C273.465 47.9763 274.557 47.1123 275.709 45.8403C276.885 44.5683 278.013 43.0203 279.093 41.1963C280.173 39.3483 281.145 37.2843 282.009 35.0043C282.873 32.7243 283.509 30.3243 283.917 27.8043C284.037 27.0603 283.989 26.6403 283.773 26.5443C283.557 26.4483 283.281 26.5203 282.945 26.7603C282.609 27.0003 282.249 27.3363 281.865 27.7683C281.505 28.1763 281.229 28.5243 281.037 28.8123ZM285.162 62.2203C285.09 61.4043 285.114 60.4083 285.234 59.2323C285.33 58.0563 285.558 56.8323 285.918 55.5603C286.254 54.2883 286.71 53.0163 287.286 51.7443C287.886 50.4483 288.618 49.2843 289.482 48.2523C290.37 47.2203 291.39 46.3563 292.542 45.6603C293.718 44.9403 295.05 44.5203 296.538 44.4003C297.162 44.3283 297.762 44.5323 298.338 45.0123C298.938 45.4683 299.37 46.2123 299.634 47.2443C299.85 46.2123 299.982 45.5163 300.03 45.1563C300.054 44.7963 300.186 44.5923 300.426 44.5443C300.69 44.4963 300.99 44.5803 301.326 44.7963C301.686 44.9883 302.058 45.2883 302.442 45.6963C302.826 46.0803 303.186 46.5363 303.522 47.0643C303.858 47.5683 304.122 48.1203 304.314 48.7203C304.53 49.2963 304.638 49.8723 304.638 50.4483C304.638 50.6403 304.554 51.0363 304.386 51.6363C304.242 52.2123 304.05 52.9203 303.81 53.7603C303.594 54.6003 303.342 55.5243 303.054 56.5323C302.766 57.5163 302.49 58.5003 302.226 59.4843C301.962 60.4683 301.71 61.4163 301.47 62.3283C301.254 63.2403 301.086 64.0323 300.966 64.7043C300.702 65.9523 300.666 66.6603 300.858 66.8283C301.05 66.9723 301.458 66.7803 302.082 66.2523C302.922 65.5803 303.75 64.7403 304.566 63.7323C305.406 62.7003 306.198 61.6083 306.942 60.4563C307.686 59.2803 308.37 58.1043 308.994 56.9283C309.642 55.7283 310.206 54.6363 310.686 53.6523C311.166 52.6443 311.562 51.7923 311.874 51.0963C312.186 50.4003 312.378 49.9683 312.45 49.8003C312.762 49.1043 313.05 48.6843 313.314 48.5403C313.602 48.3723 313.818 48.3963 313.962 48.6123C314.13 48.8043 314.214 49.1523 314.214 49.6563C314.214 50.1363 314.094 50.6883 313.854 51.3123C313.542 52.1523 313.098 53.2083 312.522 54.4803C311.946 55.7523 311.262 57.1083 310.47 58.5483C309.678 59.9643 308.802 61.3923 307.842 62.8323C306.882 64.2723 305.886 65.5683 304.854 66.7203C303.822 67.8483 302.754 68.7723 301.65 69.4923C300.57 70.2123 299.502 70.5723 298.446 70.5723C298.23 70.5723 297.966 70.5363 297.654 70.4643C297.342 70.3683 297.03 70.2123 296.718 69.9963C296.406 69.7803 296.118 69.4803 295.854 69.0963C295.614 68.7123 295.422 68.2203 295.278 67.6203C294.438 68.4603 293.514 69.0483 292.506 69.3843C291.522 69.6963 290.646 69.8283 289.878 69.7803C289.038 69.7083 288.33 69.3843 287.754 68.8083C287.178 68.2323 286.71 67.5483 286.35 66.7563C285.99 65.9643 285.714 65.1483 285.522 64.3083C285.33 63.4683 285.21 62.7723 285.162 62.2203ZM298.842 50.5923C298.746 49.8963 298.578 49.3443 298.338 48.9363C298.098 48.5283 297.822 48.3003 297.51 48.2523C296.934 48.1803 296.298 48.5403 295.602 49.3323C294.906 50.1003 294.246 51.1563 293.622 52.5003C292.998 53.8203 292.458 55.3323 292.002 57.0363C291.546 58.7403 291.27 60.4683 291.174 62.2203C291.174 62.4123 291.186 62.7483 291.21 63.2283C291.258 63.7083 291.342 64.1883 291.462 64.6683C291.606 65.1483 291.774 65.5803 291.966 65.9643C292.182 66.3243 292.446 66.5043 292.758 66.5043C293.07 66.5043 293.406 66.2763 293.766 65.8203C294.15 65.3643 294.51 64.8603 294.846 64.3083C295.23 63.6603 295.602 62.9163 295.962 62.0763L295.998 62.1123L298.842 50.5923ZM144.221 89.9551H150.92V91.1172L148.828 91.4316V99.2383H160.245V91.4316L158.166 91.1172V89.9551H164.866V91.1172L162.801 91.4316V109.096L164.866 109.41V110.572H158.166V109.41L160.245 109.096V100.879H148.828V109.096L150.92 109.41V110.572H144.221V109.41L146.299 109.096V91.4316L144.221 91.1172V89.9551ZM174.193 107.92C173.308 106.999 172.634 105.915 172.169 104.666C171.713 103.408 171.486 102.141 171.486 100.865C171.486 99.5801 171.613 98.4453 171.868 97.4609C172.124 96.4766 172.474 95.5788 172.921 94.7676C173.377 93.9564 173.919 93.2318 174.548 92.5938C175.186 91.9557 175.883 91.418 176.64 90.9805C178.18 90.0872 179.83 89.6406 181.589 89.6406C183.348 89.6406 184.875 89.9004 186.169 90.4199C187.463 90.9303 188.553 91.6367 189.437 92.5391C191.232 94.3711 192.13 96.7773 192.13 99.7578C192.13 103.076 191.123 105.783 189.109 107.879C188.179 108.845 187.094 109.588 185.855 110.107C184.624 110.627 183.243 110.887 181.712 110.887C180.19 110.887 178.777 110.622 177.474 110.094C176.18 109.565 175.086 108.84 174.193 107.92ZM176.202 93.8105C175.537 94.5853 175.022 95.4876 174.657 96.5176C174.302 97.5475 174.124 98.5547 174.124 99.5391C174.124 100.523 174.197 101.408 174.343 102.191C174.489 102.975 174.703 103.718 174.986 104.42C175.277 105.113 175.637 105.755 176.066 106.348C176.503 106.94 177.009 107.451 177.583 107.879C178.805 108.79 180.245 109.246 181.904 109.246C184.173 109.246 186.019 108.476 187.441 106.936C188.835 105.423 189.532 103.449 189.532 101.016C189.532 98.3359 188.926 96.1074 187.714 94.3301C186.329 92.2975 184.305 91.2812 181.644 91.2812C179.447 91.2812 177.633 92.1243 176.202 93.8105ZM217.262 89.9551L217.59 94.3438H216.359L215.662 91.6094H209.824V109.096L212.832 109.41V110.572H204.287V109.41L207.268 109.096V91.6094H201.457L200.719 94.3438H199.516L199.844 89.9551H217.262ZM234.067 100.688H229.036V108.932H236.651L237.636 106.512H238.675L238.223 110.572H224.387V109.41L226.466 109.096V91.4316L224.387 91.1172V89.9551H237.622L237.936 94.0156H236.733L235.995 91.6094H229.036V99.0469H234.067L234.477 97.5977H235.448V102.123H234.477L234.067 100.688ZM251.502 89.9551V91.1172L249.451 91.4316V108.932H256.943L257.75 105.869H258.871L258.748 110.572H244.802V109.41L246.88 109.096V91.4316L244.802 91.1172V89.9551H251.502Z" fill="white"/>
<rect x="8.95093" y="24.8408" width="45.9603" height="45.9603" stroke="white" stroke-width="3"/>
<path d="M3 47.3762L32.3762 18L47.0643 32.6881L61.7523 47.3762L32.3762 76.7523L3 47.3762Z" stroke="white" stroke-width="3"/>
<path d="M12.7921 47.3763L18.1332 42.0352L23.4744 47.3763L18.1332 52.7174L12.7921 47.3763Z" stroke="white" stroke-width="2"/>
<path d="M27.035 34.0237L32.3762 28.6826L37.7173 34.0237L32.3762 39.3649L27.035 34.0237Z" stroke="white" stroke-width="2"/>
<path d="M40.3878 47.3763L45.7289 42.0352L51.0701 47.3763L45.7289 52.7174L40.3878 47.3763Z" stroke="white" stroke-width="2"/>
<path d="M27.035 61.6194L32.3762 56.2783L37.7173 61.6194L32.3762 66.9606L27.035 61.6194Z" stroke="white" stroke-width="2"/>
<line x1="22.0475" y1="38.1211" x2="43.412" y2="59.4855" stroke="white"/>
<line y1="-0.5" x2="30.2139" y2="-0.5" transform="matrix(-0.707107 0.707107 0.707107 0.707107 43.0583 38.4746)" stroke="white"/>
<rect x="331.199" y="24.8408" width="45.9603" height="45.9603" stroke="white" stroke-width="3"/>
<path d="M325.248 47.3762L354.624 18L369.312 32.6881L384 47.3762L354.624 76.7523L325.248 47.3762Z" stroke="white" stroke-width="3"/>
<path d="M335.04 47.3763L340.381 42.0352L345.722 47.3763L340.381 52.7174L335.04 47.3763Z" stroke="white" stroke-width="2"/>
<path d="M349.283 34.0237L354.624 28.6826L359.965 34.0237L354.624 39.3649L349.283 34.0237Z" stroke="white" stroke-width="2"/>
<path d="M362.635 47.3763L367.977 42.0352L373.318 47.3763L367.977 52.7174L362.635 47.3763Z" stroke="white" stroke-width="2"/>
<path d="M349.283 61.6194L354.624 56.2783L359.965 61.6194L354.624 66.9606L349.283 61.6194Z" stroke="white" stroke-width="2"/>
<line x1="344.295" y1="38.1211" x2="365.66" y2="59.4855" stroke="white"/>
<line y1="-0.5" x2="30.2139" y2="-0.5" transform="matrix(-0.707107 0.707107 0.707107 0.707107 365.306 38.4746)" stroke="white"/>
</svg>
