<svg width="434" height="112" viewBox="0 0 434 112" fill="none" xmlns="http://www.w3.org/2000/svg">
<path d="M121.801 15.668C120.697 15.092 119.797 14.948 119.101 15.236C118.405 15.5 117.925 16.052 117.661 16.892C117.397 17.732 117.325 18.776 117.445 20.024C117.589 21.272 117.937 22.568 118.489 23.912C119.281 25.448 120.241 26.78 121.369 27.908C122.497 29.036 123.721 29.96 125.041 30.68C126.385 31.4 127.777 31.928 129.217 32.264C130.681 32.576 132.145 32.696 133.609 32.624C134.281 29.816 135.013 27.068 135.805 24.38C136.597 21.692 137.473 19.16 138.433 16.784C139.393 14.408 140.461 12.236 141.637 10.268C142.813 8.276 144.109 6.584 145.525 5.192C146.941 3.776 148.501 2.696 150.205 1.952C151.909 1.208 153.781 0.883996 155.821 0.979998C156.757 1.028 157.585 1.22 158.305 1.55599C159.049 1.868 159.685 2.276 160.213 2.78C160.765 3.284 161.221 3.86 161.581 4.508C161.941 5.132 162.229 5.78 162.445 6.452C162.661 7.124 162.805 7.784 162.877 8.432C162.949 9.056 162.973 9.632 162.949 10.16C162.757 13.256 162.049 16.04 160.825 18.512C159.601 20.96 158.029 23.108 156.109 24.956C154.213 26.804 152.065 28.388 149.665 29.708C147.289 31.004 144.865 32.048 142.393 32.84C141.721 35.264 141.073 37.664 140.449 40.04C139.849 42.416 139.285 44.696 138.757 46.88C138.229 49.04 137.749 51.056 137.317 52.928C136.909 54.776 136.549 56.396 136.237 57.788C135.949 59.156 135.709 60.248 135.517 61.064C135.349 61.88 135.265 62.312 135.265 62.36C134.929 63.68 134.581 64.904 134.221 66.032C133.885 67.136 133.513 68.156 133.105 69.092C135.049 70.028 137.065 71.012 139.153 72.044C141.241 73.076 143.341 74.072 145.453 75.032C147.565 75.992 149.653 76.868 151.717 77.66C153.805 78.476 155.809 79.124 157.729 79.604C159.673 80.084 161.497 80.372 163.201 80.468C164.929 80.564 166.489 80.372 167.881 79.892C168.073 79.82 168.313 79.712 168.601 79.568C168.913 79.424 169.213 79.292 169.501 79.172C169.813 79.076 170.089 79.016 170.329 78.992C170.569 78.968 170.737 79.04 170.833 79.208C170.953 79.376 170.977 79.664 170.905 80.072C170.833 80.504 170.617 81.092 170.257 81.836C169.849 82.748 169.177 83.636 168.241 84.5C167.329 85.364 166.093 86.12 164.533 86.768C162.685 87.536 160.801 87.908 158.881 87.884C156.961 87.884 155.017 87.596 153.049 87.02C151.105 86.468 149.149 85.688 147.181 84.68C145.237 83.696 143.317 82.592 141.421 81.368C139.525 80.168 137.665 78.908 135.841 77.588C134.017 76.292 132.265 75.056 130.585 73.88C129.889 74.888 129.169 75.728 128.425 76.4C127.705 77.096 126.949 77.672 126.157 78.128C125.389 78.584 124.597 78.944 123.781 79.208C122.965 79.496 122.149 79.724 121.333 79.892C120.109 80.18 118.945 80.18 117.841 79.892C116.761 79.628 115.777 79.172 114.889 78.524C114.025 77.9 113.281 77.12 112.657 76.184C112.057 75.272 111.625 74.3 111.361 73.268C111.097 72.26 111.025 71.24 111.145 70.208C111.289 69.176 111.649 68.228 112.225 67.364C112.825 66.5 113.665 65.78 114.745 65.204C115.849 64.604 117.253 64.232 118.957 64.088C119.869 64.016 120.961 64.16 122.233 64.52C123.505 64.88 124.933 65.396 126.517 66.068C127.093 64.028 127.633 61.784 128.137 59.336C128.665 56.864 129.181 54.284 129.685 51.596C130.213 48.884 130.753 46.112 131.305 43.28C131.881 40.424 132.493 37.568 133.141 34.712C131.413 34.832 129.637 34.808 127.813 34.64C125.989 34.448 124.237 34.028 122.557 33.38C120.877 32.708 119.341 31.772 117.949 30.572C116.581 29.372 115.465 27.8 114.601 25.856C113.953 24.368 113.533 22.832 113.341 21.248C113.173 19.664 113.185 18.2 113.377 16.856C113.593 15.488 113.965 14.324 114.493 13.364C115.045 12.404 115.693 11.792 116.437 11.528C117.205 11.264 118.045 11.444 118.957 12.068C119.869 12.668 120.817 13.868 121.801 15.668ZM155.929 4.076C155.233 4.1 154.525 4.448 153.805 5.12C153.109 5.792 152.401 6.716 151.681 7.89199C150.961 9.044 150.241 10.424 149.521 12.032C148.801 13.616 148.081 15.356 147.361 17.252C146.665 19.124 145.969 21.116 145.273 23.228C144.601 25.34 143.941 27.5 143.293 29.708C145.261 28.748 147.181 27.584 149.053 26.216C150.925 24.824 152.593 23.3 154.057 21.644C155.521 19.964 156.697 18.188 157.585 16.316C158.497 14.42 158.965 12.464 158.989 10.448C159.013 8.336 158.725 6.74 158.125 5.66C157.549 4.556 156.817 4.028 155.929 4.076ZM120.721 76.364C121.609 76.1 122.413 75.44 123.133 74.384C123.853 73.352 124.525 72.008 125.149 70.352C123.997 69.68 122.905 69.14 121.873 68.732C120.841 68.324 119.881 68.096 118.993 68.048C118.273 68.024 117.661 68.252 117.157 68.732C116.677 69.212 116.329 69.812 116.113 70.532C115.897 71.228 115.813 71.984 115.861 72.8C115.933 73.616 116.149 74.336 116.509 74.96C116.893 75.608 117.421 76.076 118.093 76.364C118.789 76.676 119.665 76.676 120.721 76.364ZM152.593 62.648C152.521 61.832 152.545 60.836 152.665 59.66C152.761 58.484 152.989 57.26 153.349 55.988C153.685 54.716 154.141 53.444 154.717 52.172C155.317 50.876 156.049 49.712 156.913 48.68C157.801 47.648 158.821 46.784 159.973 46.088C161.149 45.368 162.481 44.948 163.969 44.828C164.593 44.756 165.193 44.96 165.769 45.44C166.369 45.896 166.801 46.64 167.065 47.672C167.281 46.64 167.413 45.944 167.461 45.584C167.485 45.224 167.617 45.02 167.857 44.972C168.121 44.924 168.421 45.008 168.757 45.224C169.117 45.416 169.489 45.716 169.873 46.124C170.257 46.508 170.617 46.964 170.953 47.492C171.289 47.996 171.553 48.548 171.745 49.148C171.961 49.724 172.069 50.3 172.069 50.876C172.069 51.068 171.985 51.464 171.817 52.064C171.673 52.64 171.481 53.348 171.241 54.188C171.025 55.028 170.773 55.952 170.485 56.96C170.197 57.944 169.921 58.928 169.657 59.912C169.393 60.896 169.141 61.844 168.901 62.756C168.685 63.668 168.517 64.46 168.397 65.132C168.133 66.38 168.097 67.088 168.289 67.256C168.481 67.4 168.889 67.208 169.513 66.68C170.353 66.008 171.181 65.168 171.997 64.16C172.837 63.128 173.629 62.036 174.373 60.884C175.117 59.708 175.801 58.532 176.425 57.356C177.073 56.156 177.637 55.064 178.117 54.08C178.597 53.072 178.993 52.22 179.305 51.524C179.617 50.828 179.809 50.396 179.881 50.228C180.193 49.532 180.481 49.112 180.745 48.968C181.033 48.8 181.249 48.824 181.393 49.04C181.561 49.232 181.645 49.58 181.645 50.084C181.645 50.564 181.525 51.116 181.285 51.74C180.973 52.58 180.529 53.636 179.953 54.908C179.377 56.18 178.693 57.536 177.901 58.976C177.109 60.392 176.233 61.82 175.273 63.26C174.313 64.7 173.317 65.996 172.285 67.148C171.253 68.276 170.185 69.2 169.081 69.92C168.001 70.64 166.933 71 165.877 71C165.661 71 165.397 70.964 165.085 70.892C164.773 70.796 164.461 70.64 164.149 70.424C163.837 70.208 163.549 69.908 163.285 69.524C163.045 69.14 162.853 68.648 162.709 68.048C161.869 68.888 160.945 69.476 159.937 69.812C158.953 70.124 158.077 70.256 157.309 70.208C156.469 70.136 155.761 69.812 155.185 69.236C154.609 68.66 154.141 67.976 153.781 67.184C153.421 66.392 153.145 65.576 152.953 64.736C152.761 63.896 152.641 63.2 152.593 62.648ZM166.273 51.02C166.177 50.324 166.009 49.772 165.769 49.364C165.529 48.956 165.253 48.728 164.941 48.68C164.365 48.608 163.729 48.968 163.033 49.76C162.337 50.528 161.677 51.584 161.053 52.928C160.429 54.248 159.889 55.76 159.433 57.464C158.977 59.168 158.701 60.896 158.605 62.648C158.605 62.84 158.617 63.176 158.641 63.656C158.689 64.136 158.773 64.616 158.893 65.096C159.037 65.576 159.205 66.008 159.397 66.392C159.613 66.752 159.877 66.932 160.189 66.932C160.501 66.932 160.837 66.704 161.197 66.248C161.581 65.792 161.941 65.288 162.277 64.736C162.661 64.088 163.033 63.344 163.393 62.504L163.429 62.54L166.273 51.02ZM199.271 22.328C200.303 22.256 201.143 22.46 201.791 22.94C202.439 23.42 202.931 24.02 203.267 24.74C203.603 25.46 203.807 26.228 203.879 27.044C203.975 27.836 203.987 28.52 203.915 29.096C203.531 32.6 202.787 35.672 201.683 38.312C200.603 40.928 199.379 43.148 198.011 44.972C196.667 46.796 195.287 48.236 193.871 49.292C192.479 50.324 191.279 51.02 190.271 51.38C189.863 53.3 189.539 55.292 189.299 57.356C189.059 59.396 188.951 61.52 188.975 63.728C188.975 64.232 188.999 64.748 189.047 65.276C189.095 65.78 189.167 66.236 189.263 66.644C189.383 67.028 189.527 67.352 189.695 67.616C189.887 67.856 190.103 67.976 190.343 67.976C190.751 67.976 191.231 67.724 191.783 67.22C192.359 66.716 192.959 66.056 193.583 65.24C194.207 64.424 194.843 63.488 195.491 62.432C196.163 61.376 196.811 60.296 197.435 59.192C198.059 58.088 198.647 57.008 199.199 55.952C199.775 54.896 200.279 53.948 200.711 53.108C201.143 52.244 201.491 51.536 201.755 50.984C202.019 50.432 202.175 50.132 202.223 50.084C202.391 49.82 202.559 49.652 202.727 49.58C202.919 49.508 203.087 49.532 203.231 49.652C203.375 49.748 203.483 49.94 203.555 50.228C203.627 50.516 203.627 50.888 203.555 51.344C203.531 51.44 203.387 51.812 203.123 52.46C202.883 53.084 202.535 53.876 202.079 54.836C201.623 55.772 201.083 56.84 200.459 58.04C199.859 59.24 199.199 60.452 198.479 61.676C197.759 62.9 196.991 64.1 196.175 65.276C195.383 66.428 194.567 67.46 193.727 68.372C192.911 69.26 192.083 69.98 191.243 70.532C190.403 71.084 189.587 71.36 188.795 71.36C188.363 71.36 187.811 71.252 187.139 71.036C186.491 70.82 185.855 70.364 185.231 69.668C184.631 68.972 184.115 67.976 183.683 66.68C183.275 65.384 183.071 63.656 183.071 61.496C183.071 59.984 183.179 58.268 183.395 56.348C183.611 54.428 183.911 52.424 184.295 50.336C184.703 48.248 185.183 46.112 185.735 43.928C186.311 41.744 186.959 39.632 187.679 37.592C188.399 35.552 189.179 33.62 190.019 31.796C190.883 29.972 191.807 28.376 192.791 27.008C193.775 25.64 194.807 24.536 195.887 23.696C196.967 22.856 198.095 22.4 199.271 22.328ZM199.487 29.24C198.959 30.056 198.323 31.1 197.579 32.372C196.859 33.62 196.103 35.084 195.311 36.764C194.519 38.42 193.727 40.268 192.935 42.308C192.167 44.348 191.483 46.532 190.883 48.86C191.915 48.404 193.007 47.54 194.159 46.268C195.335 44.996 196.463 43.448 197.543 41.624C198.623 39.776 199.595 37.712 200.459 35.432C201.323 33.152 201.959 30.752 202.367 28.232C202.487 27.488 202.439 27.068 202.223 26.972C202.007 26.876 201.731 26.948 201.395 27.188C201.059 27.428 200.699 27.764 200.315 28.196C199.955 28.604 199.679 28.952 199.487 29.24ZM207.824 45.008C207.728 44.624 207.8 44.444 208.04 44.468C208.304 44.468 208.64 44.612 209.048 44.9C209.48 45.164 209.948 45.548 210.452 46.052C210.956 46.556 211.424 47.12 211.856 47.744C212.312 48.344 212.684 48.98 212.972 49.652C213.26 50.3 213.404 50.912 213.404 51.488C213.404 51.68 213.332 52.064 213.188 52.64C213.044 53.216 212.852 53.912 212.612 54.728C212.372 55.544 212.108 56.444 211.82 57.428C211.532 58.388 211.244 59.36 210.956 60.344C210.692 61.328 210.44 62.276 210.2 63.188C209.984 64.076 209.816 64.856 209.696 65.528C209.576 66.152 209.492 66.62 209.444 66.932C209.396 67.22 209.396 67.388 209.444 67.436C209.516 67.484 209.636 67.436 209.804 67.292C209.996 67.148 210.26 66.944 210.596 66.68C211.436 66.008 212.252 65.192 213.044 64.232C213.836 63.248 214.58 62.216 215.276 61.136C215.972 60.056 216.608 58.976 217.184 57.896C217.784 56.792 218.3 55.784 218.732 54.872C219.188 53.96 219.548 53.18 219.812 52.532C220.1 51.884 220.28 51.476 220.352 51.308C220.688 50.612 220.988 50.192 221.252 50.048C221.54 49.88 221.756 49.904 221.9 50.12C222.068 50.312 222.14 50.66 222.116 51.164C222.116 51.644 222.008 52.196 221.792 52.82C221.48 53.66 221.048 54.692 220.496 55.916C219.944 57.14 219.296 58.424 218.552 59.768C217.808 61.112 216.98 62.456 216.068 63.8C215.156 65.144 214.196 66.356 213.188 67.436C212.204 68.492 211.172 69.356 210.092 70.028C209.036 70.676 207.98 71 206.924 71C206.66 71 206.348 70.94 205.988 70.82C205.628 70.7 205.28 70.484 204.944 70.172C204.608 69.836 204.32 69.38 204.08 68.804C203.816 68.204 203.684 67.448 203.684 66.536C203.684 66.344 203.816 65.816 204.08 64.952C204.344 64.088 204.68 63.032 205.088 61.784C205.472 60.512 205.868 59.12 206.276 57.608C206.708 56.096 207.068 54.572 207.356 53.036C207.668 51.5 207.884 50.036 208.004 48.644C208.124 47.228 208.064 46.016 207.824 45.008ZM210.74 40.4C210.812 39.8 210.944 39.236 211.136 38.708C211.328 38.18 211.544 37.724 211.784 37.34C212.048 36.932 212.324 36.62 212.612 36.404C212.924 36.164 213.224 36.044 213.512 36.044C213.8 36.044 214.052 36.164 214.268 36.404C214.484 36.62 214.652 36.932 214.772 37.34C214.916 37.724 215 38.18 215.024 38.708C215.048 39.236 215.024 39.8 214.952 40.4C214.856 41 214.7 41.564 214.484 42.092C214.292 42.62 214.064 43.088 213.8 43.496C213.536 43.88 213.248 44.192 212.936 44.432C212.648 44.672 212.36 44.792 212.072 44.792C211.784 44.792 211.532 44.672 211.316 44.432C211.1 44.192 210.932 43.88 210.812 43.496C210.692 43.088 210.62 42.62 210.596 42.092C210.572 41.564 210.62 41 210.74 40.4ZM236.538 46.376C237.618 46.376 238.53 46.7 239.274 47.348C240.018 47.996 240.63 48.812 241.11 49.796C241.59 50.756 241.962 51.812 242.226 52.964C242.49 54.092 242.658 55.148 242.73 56.132C243.45 56.036 244.17 55.844 244.89 55.556C245.61 55.268 246.342 54.848 247.086 54.296C247.854 53.744 248.622 53.036 249.39 52.172C250.182 51.284 250.998 50.192 251.838 48.896C252.006 48.608 252.21 48.452 252.45 48.428C252.69 48.38 252.894 48.452 253.062 48.644C253.23 48.812 253.326 49.088 253.35 49.472C253.374 49.856 253.278 50.324 253.062 50.876C252.486 52.292 251.802 53.492 251.01 54.476C250.218 55.436 249.366 56.24 248.454 56.888C247.566 57.512 246.63 58.004 245.646 58.364C244.662 58.7 243.702 58.94 242.766 59.084C242.718 59.78 242.634 60.596 242.514 61.532C242.394 62.444 242.19 63.392 241.902 64.376C241.638 65.36 241.278 66.332 240.822 67.292C240.366 68.252 239.79 69.116 239.094 69.884C238.398 70.652 237.558 71.276 236.574 71.756C235.614 72.26 234.486 72.536 233.19 72.584C232.638 72.632 232.05 72.536 231.426 72.296C230.826 72.08 230.262 71.708 229.734 71.18C229.23 70.652 228.786 69.968 228.402 69.128C228.018 68.288 227.79 67.28 227.718 66.104C227.622 64.736 227.778 63.488 228.186 62.36C228.618 61.208 229.158 60.212 229.806 59.372C230.454 58.508 231.15 57.824 231.894 57.32C232.638 56.816 233.286 56.504 233.838 56.384C234.366 56.264 234.882 56.192 235.386 56.168C235.89 56.144 236.394 56.132 236.898 56.132C236.754 55.22 236.538 54.404 236.25 53.684C235.986 52.94 235.686 52.316 235.35 51.812C235.038 51.284 234.702 50.888 234.342 50.624C233.982 50.36 233.658 50.24 233.37 50.264C232.914 50.288 232.47 50.48 232.038 50.84C231.63 51.2 231.234 51.656 230.85 52.208C230.49 52.736 230.142 53.324 229.806 53.972C229.47 54.62 229.17 55.256 228.906 55.88C228.642 56.504 228.414 57.08 228.222 57.608C228.03 58.136 227.886 58.544 227.79 58.832C227.622 59.936 227.466 61.076 227.322 62.252C227.202 63.404 227.094 64.616 226.998 65.888C226.974 66.248 226.962 66.644 226.962 67.076C226.962 67.484 226.962 67.868 226.962 68.228C226.962 68.588 226.962 68.9 226.962 69.164C226.986 69.428 226.986 69.584 226.962 69.632C226.722 70.28 226.398 70.64 225.99 70.712C225.606 70.76 225.198 70.484 224.766 69.884C224.358 69.284 223.974 68.348 223.614 67.076C223.254 65.78 223.002 64.124 222.858 62.108C222.81 61.388 222.858 60.32 223.002 58.904C223.146 57.464 223.386 55.82 223.722 53.972C224.082 52.124 224.514 50.132 225.018 47.996C225.546 45.86 226.146 43.736 226.818 41.624C227.49 39.488 228.234 37.436 229.05 35.468C229.866 33.5 230.742 31.748 231.678 30.212C232.614 28.676 233.61 27.428 234.666 26.468C235.722 25.484 236.814 24.944 237.942 24.848C239.406 24.728 240.558 24.968 241.398 25.568C242.238 26.144 242.826 26.9 243.162 27.836C243.522 28.772 243.678 29.804 243.63 30.932C243.606 32.036 243.474 33.068 243.234 34.028C242.85 35.492 242.358 36.764 241.758 37.844C241.158 38.924 240.486 39.848 239.742 40.616C239.022 41.36 238.254 41.972 237.438 42.452C236.646 42.908 235.878 43.28 235.134 43.568C234.39 43.832 233.694 44.024 233.046 44.144C232.398 44.264 231.87 44.336 231.462 44.36C230.622 46.496 229.878 48.884 229.23 51.524C229.59 50.9 229.998 50.288 230.454 49.688C230.934 49.064 231.474 48.512 232.074 48.032C232.674 47.528 233.346 47.132 234.09 46.844C234.834 46.532 235.65 46.376 236.538 46.376ZM233.154 69.632C233.538 69.584 233.958 69.332 234.414 68.876C234.894 68.396 235.326 67.724 235.71 66.86C236.118 65.996 236.454 64.928 236.718 63.656C237.006 62.36 237.138 60.884 237.114 59.228C236.754 59.204 236.43 59.18 236.142 59.156C235.878 59.132 235.662 59.12 235.494 59.12C234.414 59.168 233.502 59.468 232.758 60.02C232.038 60.572 231.45 61.22 230.994 61.964C230.562 62.684 230.262 63.428 230.094 64.196C229.95 64.964 229.914 65.6 229.986 66.104C230.13 66.872 230.286 67.496 230.454 67.976C230.646 68.456 230.874 68.828 231.138 69.092C231.402 69.332 231.69 69.488 232.002 69.56C232.338 69.632 232.722 69.656 233.154 69.632ZM241.146 30.356C240.882 30.404 240.438 30.656 239.814 31.112C239.214 31.544 238.506 32.24 237.69 33.2C236.898 34.136 236.022 35.348 235.062 36.836C234.126 38.3 233.214 40.076 232.326 42.164C232.926 42.092 233.634 41.888 234.45 41.552C235.29 41.216 236.142 40.736 237.006 40.112C237.87 39.464 238.698 38.66 239.49 37.7C240.306 36.716 240.99 35.552 241.542 34.208C241.686 33.896 241.794 33.512 241.866 33.056C241.938 32.6 241.962 32.168 241.938 31.76C241.938 31.352 241.878 31.016 241.758 30.752C241.638 30.464 241.434 30.332 241.146 30.356ZM276.308 50.696C275.924 51.824 275.396 53.132 274.724 54.62C274.052 56.108 273.272 57.644 272.384 59.228C271.496 60.788 270.524 62.336 269.468 63.872C268.436 65.384 267.368 66.728 266.264 67.904C265.16 69.056 264.044 69.98 262.916 70.676C261.812 71.372 260.756 71.684 259.748 71.612C258.236 71.516 256.964 71.156 255.932 70.532C254.924 69.908 254.12 69.14 253.52 68.228C252.896 67.316 252.452 66.332 252.188 65.276C251.9 64.22 251.732 63.2 251.684 62.216C251.54 59.96 251.768 57.812 252.368 55.772C252.968 53.708 253.808 51.884 254.888 50.3C255.968 48.716 257.192 47.456 258.56 46.52C259.952 45.56 261.356 45.056 262.772 45.008C263.924 44.96 264.812 45.116 265.436 45.476C266.084 45.836 266.552 46.28 266.84 46.808C267.152 47.336 267.32 47.9 267.344 48.5C267.392 49.1 267.404 49.616 267.38 50.048C267.26 51.608 266.84 52.988 266.12 54.188C265.4 55.364 264.572 56.384 263.636 57.248C262.724 58.112 261.8 58.82 260.864 59.372C259.928 59.9 259.184 60.284 258.632 60.524C258.344 61.94 258.2 63.332 258.2 64.7C258.224 65.9 258.38 66.848 258.668 67.544C258.98 68.216 259.52 68.492 260.288 68.372C260.864 68.276 261.488 68.072 262.16 67.76C262.832 67.424 263.516 67.004 264.212 66.5C264.908 65.972 265.592 65.348 266.264 64.628C266.96 63.884 267.62 63.044 268.244 62.108C268.916 61.1 269.588 59.972 270.26 58.724C270.956 57.476 271.604 56.24 272.204 55.016C272.804 53.792 273.332 52.664 273.788 51.632C274.268 50.576 274.628 49.76 274.868 49.184C275.204 48.488 275.504 48.068 275.768 47.924C276.056 47.756 276.272 47.78 276.416 47.996C276.584 48.212 276.668 48.572 276.668 49.076C276.668 49.556 276.548 50.096 276.308 50.696ZM264.608 48.032C264.248 48.128 263.84 48.452 263.384 49.004C262.928 49.556 262.448 50.264 261.944 51.128C261.464 51.992 260.996 52.988 260.54 54.116C260.084 55.22 259.676 56.396 259.316 57.644C260.012 57.404 260.708 56.972 261.404 56.348C262.124 55.724 262.772 55.04 263.348 54.296C263.948 53.528 264.44 52.748 264.824 51.956C265.232 51.164 265.472 50.456 265.544 49.832C265.592 49.616 265.604 49.388 265.58 49.148C265.556 48.908 265.508 48.704 265.436 48.536C265.364 48.344 265.256 48.2 265.112 48.104C264.968 48.008 264.8 47.984 264.608 48.032ZM294.032 22.328C295.064 22.256 295.904 22.46 296.552 22.94C297.2 23.42 297.692 24.02 298.028 24.74C298.364 25.46 298.568 26.228 298.64 27.044C298.736 27.836 298.748 28.52 298.676 29.096C298.292 32.6 297.548 35.672 296.444 38.312C295.364 40.928 294.14 43.148 292.772 44.972C291.428 46.796 290.048 48.236 288.632 49.292C287.24 50.324 286.04 51.02 285.032 51.38C284.624 53.3 284.3 55.292 284.06 57.356C283.82 59.396 283.712 61.52 283.736 63.728C283.736 64.232 283.76 64.748 283.808 65.276C283.856 65.78 283.928 66.236 284.024 66.644C284.144 67.028 284.288 67.352 284.456 67.616C284.648 67.856 284.864 67.976 285.104 67.976C285.512 67.976 285.992 67.724 286.544 67.22C287.12 66.716 287.72 66.056 288.344 65.24C288.968 64.424 289.604 63.488 290.252 62.432C290.924 61.376 291.572 60.296 292.196 59.192C292.82 58.088 293.408 57.008 293.96 55.952C294.536 54.896 295.04 53.948 295.472 53.108C295.904 52.244 296.252 51.536 296.516 50.984C296.78 50.432 296.936 50.132 296.984 50.084C297.152 49.82 297.32 49.652 297.488 49.58C297.68 49.508 297.848 49.532 297.992 49.652C298.136 49.748 298.244 49.94 298.316 50.228C298.388 50.516 298.388 50.888 298.316 51.344C298.292 51.44 298.148 51.812 297.884 52.46C297.644 53.084 297.296 53.876 296.84 54.836C296.384 55.772 295.844 56.84 295.22 58.04C294.62 59.24 293.96 60.452 293.24 61.676C292.52 62.9 291.752 64.1 290.936 65.276C290.144 66.428 289.328 67.46 288.488 68.372C287.672 69.26 286.844 69.98 286.004 70.532C285.164 71.084 284.348 71.36 283.556 71.36C283.124 71.36 282.572 71.252 281.9 71.036C281.252 70.82 280.616 70.364 279.992 69.668C279.392 68.972 278.876 67.976 278.444 66.68C278.036 65.384 277.832 63.656 277.832 61.496C277.832 59.984 277.94 58.268 278.156 56.348C278.372 54.428 278.672 52.424 279.056 50.336C279.464 48.248 279.944 46.112 280.496 43.928C281.072 41.744 281.72 39.632 282.44 37.592C283.16 35.552 283.94 33.62 284.78 31.796C285.644 29.972 286.568 28.376 287.552 27.008C288.536 25.64 289.568 24.536 290.648 23.696C291.728 22.856 292.856 22.4 294.032 22.328ZM294.248 29.24C293.72 30.056 293.084 31.1 292.34 32.372C291.62 33.62 290.864 35.084 290.072 36.764C289.28 38.42 288.488 40.268 287.696 42.308C286.928 44.348 286.244 46.532 285.644 48.86C286.676 48.404 287.768 47.54 288.92 46.268C290.096 44.996 291.224 43.448 292.304 41.624C293.384 39.776 294.356 37.712 295.22 35.432C296.084 33.152 296.72 30.752 297.128 28.232C297.248 27.488 297.2 27.068 296.984 26.972C296.768 26.876 296.492 26.948 296.156 27.188C295.82 27.428 295.46 27.764 295.076 28.196C294.716 28.604 294.44 28.952 294.248 29.24ZM298.372 62.648C298.3 61.832 298.324 60.836 298.444 59.66C298.54 58.484 298.768 57.26 299.128 55.988C299.464 54.716 299.92 53.444 300.496 52.172C301.096 50.876 301.828 49.712 302.692 48.68C303.58 47.648 304.6 46.784 305.752 46.088C306.928 45.368 308.26 44.948 309.748 44.828C310.372 44.756 310.972 44.96 311.548 45.44C312.148 45.896 312.58 46.64 312.844 47.672C313.06 46.64 313.192 45.944 313.24 45.584C313.264 45.224 313.396 45.02 313.636 44.972C313.9 44.924 314.2 45.008 314.536 45.224C314.896 45.416 315.268 45.716 315.652 46.124C316.036 46.508 316.396 46.964 316.732 47.492C317.068 47.996 317.332 48.548 317.524 49.148C317.74 49.724 317.848 50.3 317.848 50.876C317.848 51.068 317.764 51.464 317.596 52.064C317.452 52.64 317.26 53.348 317.02 54.188C316.804 55.028 316.552 55.952 316.264 56.96C315.976 57.944 315.7 58.928 315.436 59.912C315.172 60.896 314.92 61.844 314.68 62.756C314.464 63.668 314.296 64.46 314.176 65.132C313.912 66.38 313.876 67.088 314.068 67.256C314.26 67.4 314.668 67.208 315.292 66.68C316.132 66.008 316.96 65.168 317.776 64.16C318.616 63.128 319.408 62.036 320.152 60.884C320.896 59.708 321.58 58.532 322.204 57.356C322.852 56.156 323.416 55.064 323.896 54.08C324.376 53.072 324.772 52.22 325.084 51.524C325.396 50.828 325.588 50.396 325.66 50.228C325.972 49.532 326.26 49.112 326.524 48.968C326.812 48.8 327.028 48.824 327.172 49.04C327.34 49.232 327.424 49.58 327.424 50.084C327.424 50.564 327.304 51.116 327.064 51.74C326.752 52.58 326.308 53.636 325.732 54.908C325.156 56.18 324.472 57.536 323.68 58.976C322.888 60.392 322.012 61.82 321.052 63.26C320.092 64.7 319.096 65.996 318.064 67.148C317.032 68.276 315.964 69.2 314.86 69.92C313.78 70.64 312.712 71 311.656 71C311.44 71 311.176 70.964 310.864 70.892C310.552 70.796 310.24 70.64 309.928 70.424C309.616 70.208 309.328 69.908 309.064 69.524C308.824 69.14 308.632 68.648 308.488 68.048C307.648 68.888 306.724 69.476 305.716 69.812C304.732 70.124 303.856 70.256 303.088 70.208C302.248 70.136 301.54 69.812 300.964 69.236C300.388 68.66 299.92 67.976 299.56 67.184C299.2 66.392 298.924 65.576 298.732 64.736C298.54 63.896 298.42 63.2 298.372 62.648ZM312.052 51.02C311.956 50.324 311.788 49.772 311.548 49.364C311.308 48.956 311.032 48.728 310.72 48.68C310.144 48.608 309.508 48.968 308.812 49.76C308.116 50.528 307.456 51.584 306.832 52.928C306.208 54.248 305.668 55.76 305.212 57.464C304.756 59.168 304.48 60.896 304.384 62.648C304.384 62.84 304.396 63.176 304.42 63.656C304.468 64.136 304.552 64.616 304.672 65.096C304.816 65.576 304.984 66.008 305.176 66.392C305.392 66.752 305.656 66.932 305.968 66.932C306.28 66.932 306.616 66.704 306.976 66.248C307.36 65.792 307.72 65.288 308.056 64.736C308.44 64.088 308.812 63.344 309.172 62.504L309.208 62.54L312.052 51.02ZM168.709 90.3828H175.409V91.5449L173.317 91.8594V99.666H184.733V91.8594L182.655 91.5449V90.3828H189.354V91.5449L187.289 91.8594V109.523L189.354 109.838V111H182.655V109.838L184.733 109.523V101.307H173.317V109.523L175.409 109.838V111H168.709V109.838L170.787 109.523V91.8594L168.709 91.5449V90.3828ZM198.681 108.348C197.797 107.427 197.122 106.342 196.657 105.094C196.202 103.836 195.974 102.569 195.974 101.293C195.974 100.008 196.101 98.873 196.357 97.8887C196.612 96.9043 196.963 96.0065 197.409 95.1953C197.865 94.3841 198.407 93.6595 199.036 93.0215C199.674 92.3835 200.372 91.8457 201.128 91.4082C202.668 90.515 204.318 90.0684 206.077 90.0684C207.836 90.0684 209.363 90.3281 210.657 90.8477C211.952 91.3581 213.041 92.0645 213.925 92.9668C215.721 94.7988 216.618 97.2051 216.618 100.186C216.618 103.503 215.611 106.21 213.597 108.307C212.667 109.273 211.583 110.016 210.343 110.535C209.113 111.055 207.732 111.314 206.2 111.314C204.678 111.314 203.265 111.05 201.962 110.521C200.668 109.993 199.574 109.268 198.681 108.348ZM200.691 94.2383C200.025 95.013 199.51 95.9154 199.146 96.9453C198.79 97.9753 198.613 98.9824 198.613 99.9668C198.613 100.951 198.685 101.835 198.831 102.619C198.977 103.403 199.191 104.146 199.474 104.848C199.765 105.54 200.126 106.183 200.554 106.775C200.991 107.368 201.497 107.878 202.071 108.307C203.293 109.218 204.733 109.674 206.392 109.674C208.661 109.674 210.507 108.904 211.929 107.363C213.323 105.85 214.021 103.877 214.021 101.443C214.021 98.7637 213.415 96.5352 212.202 94.7578C210.817 92.7253 208.793 91.709 206.132 91.709C203.935 91.709 202.122 92.5521 200.691 94.2383ZM241.75 90.3828L242.078 94.7715H240.848L240.15 92.0371H234.312V109.523L237.32 109.838V111H228.775V109.838L231.756 109.523V92.0371H225.945L225.207 94.7715H224.004L224.332 90.3828H241.75ZM258.555 101.115H253.524V109.359H261.139L262.124 106.939H263.163L262.712 111H248.876V109.838L250.954 109.523V91.8594L248.876 91.5449V90.3828H262.11L262.425 94.4434H261.221L260.483 92.0371H253.524V99.4746H258.555L258.966 98.0254H259.936V102.551H258.966L258.555 101.115ZM275.99 90.3828V91.5449L273.939 91.8594V109.359H281.431L282.238 106.297H283.359L283.236 111H269.291V109.838L271.369 109.523V91.8594L269.291 91.5449V90.3828H275.99Z" fill="white"/>
<rect x="9.5" y="24.5" width="52" height="52" stroke="white" stroke-width="3"/>
<path d="M3 50L36 17L52.5 33.5L69 50L36 83L3 50Z" stroke="white" stroke-width="3"/>
<path d="M14 50L20 44L26 50L20 56L14 50Z" stroke="white" stroke-width="2"/>
<path d="M30 35L36 29L42 35L36 41L30 35Z" stroke="white" stroke-width="2"/>
<path d="M45 50L51 44L57 50L51 56L45 50Z" stroke="white" stroke-width="2"/>
<path d="M30 66L36 60L42 66L36 72L30 66Z" stroke="white" stroke-width="2"/>
<line x1="24.3536" y1="39.6464" x2="48.3536" y2="63.6464" stroke="white"/>
<line y1="-0.5" x2="33.9411" y2="-0.5" transform="matrix(-0.707107 0.707107 0.707107 0.707107 48 40)" stroke="white"/>
<rect x="371.5" y="24.5" width="52" height="52" stroke="white" stroke-width="3"/>
<path d="M365 50L398 17L414.5 33.5L431 50L398 83L365 50Z" stroke="white" stroke-width="3"/>
<path d="M376 50L382 44L388 50L382 56L376 50Z" stroke="white" stroke-width="2"/>
<path d="M392 35L398 29L404 35L398 41L392 35Z" stroke="white" stroke-width="2"/>
<path d="M407 50L413 44L419 50L413 56L407 50Z" stroke="white" stroke-width="2"/>
<path d="M392 66L398 60L404 66L398 72L392 66Z" stroke="white" stroke-width="2"/>
<line x1="386.354" y1="39.6464" x2="410.354" y2="63.6464" stroke="white"/>
<line y1="-0.5" x2="33.9411" y2="-0.5" transform="matrix(-0.707107 0.707107 0.707107 0.707107 410 40)" stroke="white"/>
</svg>
