<svg width="1440" height="72" viewBox="0 0 1440 72" fill="none" xmlns="http://www.w3.org/2000/svg">
<g opacity="0.55">
<rect x="1328.5" y="10.5" width="52" height="52" stroke="white" stroke-width="3"/>
<path d="M1322 36L1355 3L1371.5 19.5L1388 36L1355 69L1322 36Z" stroke="white" stroke-width="3"/>
<path d="M1333 36L1339 30L1345 36L1339 42L1333 36Z" stroke="white" stroke-width="2"/>
<path d="M1349 21L1355 15L1361 21L1355 27L1349 21Z" stroke="white" stroke-width="2"/>
<path d="M1364 36L1370 30L1376 36L1370 42L1364 36Z" stroke="white" stroke-width="2"/>
<path d="M1349 52L1355 46L1361 52L1355 58L1349 52Z" stroke="white" stroke-width="2"/>
<line x1="1343.35" y1="25.6464" x2="1367.35" y2="49.6464" stroke="white"/>
<line y1="-0.5" x2="33.9411" y2="-0.5" transform="matrix(-0.707107 0.707107 0.707107 0.707107 1367 26)" stroke="white"/>
</g>
<g opacity="0.55">
<rect x="736.5" y="10.5" width="52" height="52" stroke="white" stroke-width="3"/>
<path d="M730 36L763 3L779.5 19.5L796 36L763 69L730 36Z" stroke="white" stroke-width="3"/>
<path d="M741 36L747 30L753 36L747 42L741 36Z" stroke="white" stroke-width="2"/>
<path d="M757 21L763 15L769 21L763 27L757 21Z" stroke="white" stroke-width="2"/>
<path d="M772 36L778 30L784 36L778 42L772 36Z" stroke="white" stroke-width="2"/>
<path d="M757 52L763 46L769 52L763 58L757 52Z" stroke="white" stroke-width="2"/>
<line x1="751.354" y1="25.6464" x2="775.354" y2="49.6464" stroke="white"/>
<line y1="-0.5" x2="33.9411" y2="-0.5" transform="matrix(-0.707107 0.707107 0.707107 0.707107 775 26)" stroke="white"/>
</g>
<g opacity="0.55">
<rect x="1032.5" y="10.5" width="52" height="52" stroke="white" stroke-width="3"/>
<path d="M1026 36L1059 3L1075.5 19.5L1092 36L1059 69L1026 36Z" stroke="white" stroke-width="3"/>
<path d="M1037 36L1043 30L1049 36L1043 42L1037 36Z" stroke="white" stroke-width="2"/>
<path d="M1053 21L1059 15L1065 21L1059 27L1053 21Z" stroke="white" stroke-width="2"/>
<path d="M1068 36L1074 30L1080 36L1074 42L1068 36Z" stroke="white" stroke-width="2"/>
<path d="M1053 52L1059 46L1065 52L1059 58L1053 52Z" stroke="white" stroke-width="2"/>
<line x1="1047.35" y1="25.6464" x2="1071.35" y2="49.6464" stroke="white"/>
<line y1="-0.5" x2="33.9411" y2="-0.5" transform="matrix(-0.707107 0.707107 0.707107 0.707107 1071 26)" stroke="white"/>
</g>
<g opacity="0.55">
<rect x="440.5" y="10.5" width="52" height="52" stroke="white" stroke-width="3"/>
<path d="M434 36L467 3L483.5 19.5L500 36L467 69L434 36Z" stroke="white" stroke-width="3"/>
<path d="M445 36L451 30L457 36L451 42L445 36Z" stroke="white" stroke-width="2"/>
<path d="M461 21L467 15L473 21L467 27L461 21Z" stroke="white" stroke-width="2"/>
<path d="M476 36L482 30L488 36L482 42L476 36Z" stroke="white" stroke-width="2"/>
<path d="M461 52L467 46L473 52L467 58L461 52Z" stroke="white" stroke-width="2"/>
<line x1="455.354" y1="25.6464" x2="479.354" y2="49.6464" stroke="white"/>
<line y1="-0.5" x2="33.9411" y2="-0.5" transform="matrix(-0.707107 0.707107 0.707107 0.707107 479 26)" stroke="white"/>
</g>
<g opacity="0.55">
<rect x="1180.5" y="10.5" width="52" height="52" stroke="white" stroke-width="3"/>
<path d="M1174 36L1207 3L1223.5 19.5L1240 36L1207 69L1174 36Z" stroke="white" stroke-width="3"/>
<path d="M1185 36L1191 30L1197 36L1191 42L1185 36Z" stroke="white" stroke-width="2"/>
<path d="M1201 21L1207 15L1213 21L1207 27L1201 21Z" stroke="white" stroke-width="2"/>
<path d="M1216 36L1222 30L1228 36L1222 42L1216 36Z" stroke="white" stroke-width="2"/>
<path d="M1201 52L1207 46L1213 52L1207 58L1201 52Z" stroke="white" stroke-width="2"/>
<line x1="1195.35" y1="25.6464" x2="1219.35" y2="49.6464" stroke="white"/>
<line y1="-0.5" x2="33.9411" y2="-0.5" transform="matrix(-0.707107 0.707107 0.707107 0.707107 1219 26)" stroke="white"/>
</g>
<g opacity="0.55">
<rect x="588.5" y="10.5" width="52" height="52" stroke="white" stroke-width="3"/>
<path d="M582 36L615 3L631.5 19.5L648 36L615 69L582 36Z" stroke="white" stroke-width="3"/>
<path d="M593 36L599 30L605 36L599 42L593 36Z" stroke="white" stroke-width="2"/>
<path d="M609 21L615 15L621 21L615 27L609 21Z" stroke="white" stroke-width="2"/>
<path d="M624 36L630 30L636 36L630 42L624 36Z" stroke="white" stroke-width="2"/>
<path d="M609 52L615 46L621 52L615 58L609 52Z" stroke="white" stroke-width="2"/>
<line x1="603.354" y1="25.6464" x2="627.354" y2="49.6464" stroke="white"/>
<line y1="-0.5" x2="33.9411" y2="-0.5" transform="matrix(-0.707107 0.707107 0.707107 0.707107 627 26)" stroke="white"/>
</g>
<g opacity="0.55">
<rect x="884.5" y="10.5" width="52" height="52" stroke="white" stroke-width="3"/>
<path d="M878 36L911 3L927.5 19.5L944 36L911 69L878 36Z" stroke="white" stroke-width="3"/>
<path d="M889 36L895 30L901 36L895 42L889 36Z" stroke="white" stroke-width="2"/>
<path d="M905 21L911 15L917 21L911 27L905 21Z" stroke="white" stroke-width="2"/>
<path d="M920 36L926 30L932 36L926 42L920 36Z" stroke="white" stroke-width="2"/>
<path d="M905 52L911 46L917 52L911 58L905 52Z" stroke="white" stroke-width="2"/>
<line x1="899.354" y1="25.6464" x2="923.354" y2="49.6464" stroke="white"/>
<line y1="-0.5" x2="33.9411" y2="-0.5" transform="matrix(-0.707107 0.707107 0.707107 0.707107 923 26)" stroke="white"/>
</g>
<g opacity="0.55">
<rect x="292.5" y="10.5" width="52" height="52" stroke="white" stroke-width="3"/>
<path d="M286 36L319 3L335.5 19.5L352 36L319 69L286 36Z" stroke="white" stroke-width="3"/>
<path d="M297 36L303 30L309 36L303 42L297 36Z" stroke="white" stroke-width="2"/>
<path d="M313 21L319 15L325 21L319 27L313 21Z" stroke="white" stroke-width="2"/>
<path d="M328 36L334 30L340 36L334 42L328 36Z" stroke="white" stroke-width="2"/>
<path d="M313 52L319 46L325 52L319 58L313 52Z" stroke="white" stroke-width="2"/>
<line x1="307.354" y1="25.6464" x2="331.354" y2="49.6464" stroke="white"/>
<line y1="-0.5" x2="33.9411" y2="-0.5" transform="matrix(-0.707107 0.707107 0.707107 0.707107 331 26)" stroke="white"/>
</g>
<g opacity="0.55">
<rect x="70.5" y="10.5" width="52" height="52" stroke="white" stroke-width="3"/>
<path d="M64 36L97 3L113.5 19.5L130 36L97 69L64 36Z" stroke="white" stroke-width="3"/>
<path d="M75 36L81 30L87 36L81 42L75 36Z" stroke="white" stroke-width="2"/>
<path d="M91 21L97 15L103 21L97 27L91 21Z" stroke="white" stroke-width="2"/>
<path d="M106 36L112 30L118 36L112 42L106 36Z" stroke="white" stroke-width="2"/>
<path d="M91 52L97 46L103 52L97 58L91 52Z" stroke="white" stroke-width="2"/>
<line x1="85.3536" y1="25.6464" x2="109.354" y2="49.6464" stroke="white"/>
<line y1="-0.5" x2="33.9411" y2="-0.5" transform="matrix(-0.707107 0.707107 0.707107 0.707107 109 26)" stroke="white"/>
</g>
<g opacity="0.55">
<rect x="1254.5" y="10.5" width="52" height="52" stroke="white" stroke-width="3"/>
<path d="M1248 36L1281 3L1297.5 19.5L1314 36L1281 69L1248 36Z" stroke="white" stroke-width="3"/>
<path d="M1259 36L1265 30L1271 36L1265 42L1259 36Z" stroke="white" stroke-width="2"/>
<path d="M1275 21L1281 15L1287 21L1281 27L1275 21Z" stroke="white" stroke-width="2"/>
<path d="M1290 36L1296 30L1302 36L1296 42L1290 36Z" stroke="white" stroke-width="2"/>
<path d="M1275 52L1281 46L1287 52L1281 58L1275 52Z" stroke="white" stroke-width="2"/>
<line x1="1269.35" y1="25.6464" x2="1293.35" y2="49.6464" stroke="white"/>
<line y1="-0.5" x2="33.9411" y2="-0.5" transform="matrix(-0.707107 0.707107 0.707107 0.707107 1293 26)" stroke="white"/>
</g>
<g opacity="0.55">
<rect x="662.5" y="10.5" width="52" height="52" stroke="white" stroke-width="3"/>
<path d="M656 36L689 3L705.5 19.5L722 36L689 69L656 36Z" stroke="white" stroke-width="3"/>
<path d="M667 36L673 30L679 36L673 42L667 36Z" stroke="white" stroke-width="2"/>
<path d="M683 21L689 15L695 21L689 27L683 21Z" stroke="white" stroke-width="2"/>
<path d="M698 36L704 30L710 36L704 42L698 36Z" stroke="white" stroke-width="2"/>
<path d="M683 52L689 46L695 52L689 58L683 52Z" stroke="white" stroke-width="2"/>
<line x1="677.354" y1="25.6464" x2="701.354" y2="49.6464" stroke="white"/>
<line y1="-0.5" x2="33.9411" y2="-0.5" transform="matrix(-0.707107 0.707107 0.707107 0.707107 701 26)" stroke="white"/>
</g>
<g opacity="0.55">
<rect x="958.5" y="10.5" width="52" height="52" stroke="white" stroke-width="3"/>
<path d="M952 36L985 3L1001.5 19.5L1018 36L985 69L952 36Z" stroke="white" stroke-width="3"/>
<path d="M963 36L969 30L975 36L969 42L963 36Z" stroke="white" stroke-width="2"/>
<path d="M979 21L985 15L991 21L985 27L979 21Z" stroke="white" stroke-width="2"/>
<path d="M994 36L1000 30L1006 36L1000 42L994 36Z" stroke="white" stroke-width="2"/>
<path d="M979 52L985 46L991 52L985 58L979 52Z" stroke="white" stroke-width="2"/>
<line x1="973.354" y1="25.6464" x2="997.354" y2="49.6464" stroke="white"/>
<line y1="-0.5" x2="33.9411" y2="-0.5" transform="matrix(-0.707107 0.707107 0.707107 0.707107 997 26)" stroke="white"/>
</g>
<g opacity="0.55">
<rect x="366.5" y="10.5" width="52" height="52" stroke="white" stroke-width="3"/>
<path d="M360 36L393 3L409.5 19.5L426 36L393 69L360 36Z" stroke="white" stroke-width="3"/>
<path d="M371 36L377 30L383 36L377 42L371 36Z" stroke="white" stroke-width="2"/>
<path d="M387 21L393 15L399 21L393 27L387 21Z" stroke="white" stroke-width="2"/>
<path d="M402 36L408 30L414 36L408 42L402 36Z" stroke="white" stroke-width="2"/>
<path d="M387 52L393 46L399 52L393 58L387 52Z" stroke="white" stroke-width="2"/>
<line x1="381.354" y1="25.6464" x2="405.354" y2="49.6464" stroke="white"/>
<line y1="-0.5" x2="33.9411" y2="-0.5" transform="matrix(-0.707107 0.707107 0.707107 0.707107 405 26)" stroke="white"/>
</g>
<g opacity="0.55">
<rect x="144.5" y="10.5" width="52" height="52" stroke="white" stroke-width="3"/>
<path d="M138 36L171 3L187.5 19.5L204 36L171 69L138 36Z" stroke="white" stroke-width="3"/>
<path d="M149 36L155 30L161 36L155 42L149 36Z" stroke="white" stroke-width="2"/>
<path d="M165 21L171 15L177 21L171 27L165 21Z" stroke="white" stroke-width="2"/>
<path d="M180 36L186 30L192 36L186 42L180 36Z" stroke="white" stroke-width="2"/>
<path d="M165 52L171 46L177 52L171 58L165 52Z" stroke="white" stroke-width="2"/>
<line x1="159.354" y1="25.6464" x2="183.354" y2="49.6464" stroke="white"/>
<line y1="-0.5" x2="33.9411" y2="-0.5" transform="matrix(-0.707107 0.707107 0.707107 0.707107 183 26)" stroke="white"/>
</g>
<g opacity="0.55">
<rect x="1106.5" y="10.5" width="52" height="52" stroke="white" stroke-width="3"/>
<path d="M1100 36L1133 3L1149.5 19.5L1166 36L1133 69L1100 36Z" stroke="white" stroke-width="3"/>
<path d="M1111 36L1117 30L1123 36L1117 42L1111 36Z" stroke="white" stroke-width="2"/>
<path d="M1127 21L1133 15L1139 21L1133 27L1127 21Z" stroke="white" stroke-width="2"/>
<path d="M1142 36L1148 30L1154 36L1148 42L1142 36Z" stroke="white" stroke-width="2"/>
<path d="M1127 52L1133 46L1139 52L1133 58L1127 52Z" stroke="white" stroke-width="2"/>
<line x1="1121.35" y1="25.6464" x2="1145.35" y2="49.6464" stroke="white"/>
<line y1="-0.5" x2="33.9411" y2="-0.5" transform="matrix(-0.707107 0.707107 0.707107 0.707107 1145 26)" stroke="white"/>
</g>
<g opacity="0.55">
<rect x="514.5" y="10.5" width="52" height="52" stroke="white" stroke-width="3"/>
<path d="M508 36L541 3L557.5 19.5L574 36L541 69L508 36Z" stroke="white" stroke-width="3"/>
<path d="M519 36L525 30L531 36L525 42L519 36Z" stroke="white" stroke-width="2"/>
<path d="M535 21L541 15L547 21L541 27L535 21Z" stroke="white" stroke-width="2"/>
<path d="M550 36L556 30L562 36L556 42L550 36Z" stroke="white" stroke-width="2"/>
<path d="M535 52L541 46L547 52L541 58L535 52Z" stroke="white" stroke-width="2"/>
<line x1="529.354" y1="25.6464" x2="553.354" y2="49.6464" stroke="white"/>
<line y1="-0.5" x2="33.9411" y2="-0.5" transform="matrix(-0.707107 0.707107 0.707107 0.707107 553 26)" stroke="white"/>
</g>
<g opacity="0.55">
<rect x="810.5" y="10.5" width="52" height="52" stroke="white" stroke-width="3"/>
<path d="M804 36L837 3L853.5 19.5L870 36L837 69L804 36Z" stroke="white" stroke-width="3"/>
<path d="M815 36L821 30L827 36L821 42L815 36Z" stroke="white" stroke-width="2"/>
<path d="M831 21L837 15L843 21L837 27L831 21Z" stroke="white" stroke-width="2"/>
<path d="M846 36L852 30L858 36L852 42L846 36Z" stroke="white" stroke-width="2"/>
<path d="M831 52L837 46L843 52L837 58L831 52Z" stroke="white" stroke-width="2"/>
<line x1="825.354" y1="25.6464" x2="849.354" y2="49.6464" stroke="white"/>
<line y1="-0.5" x2="33.9411" y2="-0.5" transform="matrix(-0.707107 0.707107 0.707107 0.707107 849 26)" stroke="white"/>
</g>
<g opacity="0.55">
<rect x="218.5" y="10.5" width="52" height="52" stroke="white" stroke-width="3"/>
<path d="M212 36L245 3L261.5 19.5L278 36L245 69L212 36Z" stroke="white" stroke-width="3"/>
<path d="M223 36L229 30L235 36L229 42L223 36Z" stroke="white" stroke-width="2"/>
<path d="M239 21L245 15L251 21L245 27L239 21Z" stroke="white" stroke-width="2"/>
<path d="M254 36L260 30L266 36L260 42L254 36Z" stroke="white" stroke-width="2"/>
<path d="M239 52L245 46L251 52L245 58L239 52Z" stroke="white" stroke-width="2"/>
<line x1="233.354" y1="25.6464" x2="257.354" y2="49.6464" stroke="white"/>
<line y1="-0.5" x2="33.9411" y2="-0.5" transform="matrix(-0.707107 0.707107 0.707107 0.707107 257 26)" stroke="white"/>
</g>
<g opacity="0.55">
<rect x="-3.5" y="10.5" width="52" height="52" stroke="white" stroke-width="3"/>
<path d="M-10 36L23 3L39.5 19.5L56 36L23 69L-10 36Z" stroke="white" stroke-width="3"/>
<path d="M1 36L7 30L13 36L7 42L1 36Z" stroke="white" stroke-width="2"/>
<path d="M17 21L23 15L29 21L23 27L17 21Z" stroke="white" stroke-width="2"/>
<path d="M32 36L38 30L44 36L38 42L32 36Z" stroke="white" stroke-width="2"/>
<path d="M17 52L23 46L29 52L23 58L17 52Z" stroke="white" stroke-width="2"/>
<line x1="11.3536" y1="25.6464" x2="35.3536" y2="49.6464" stroke="white"/>
<line y1="-0.5" x2="33.9411" y2="-0.5" transform="matrix(-0.707107 0.707107 0.707107 0.707107 35 26)" stroke="white"/>
</g>
<g opacity="0.55">
<rect x="1402.5" y="10.5" width="52" height="52" stroke="white" stroke-width="3"/>
<path d="M1396 36L1429 3L1445.5 19.5L1462 36L1429 69L1396 36Z" stroke="white" stroke-width="3"/>
<path d="M1407 36L1413 30L1419 36L1413 42L1407 36Z" stroke="white" stroke-width="2"/>
<path d="M1423 21L1429 15L1435 21L1429 27L1423 21Z" stroke="white" stroke-width="2"/>
<path d="M1438 36L1444 30L1450 36L1444 42L1438 36Z" stroke="white" stroke-width="2"/>
<path d="M1423 52L1429 46L1435 52L1429 58L1423 52Z" stroke="white" stroke-width="2"/>
<line x1="1417.35" y1="25.6464" x2="1441.35" y2="49.6464" stroke="white"/>
<line y1="-0.5" x2="33.9411" y2="-0.5" transform="matrix(-0.707107 0.707107 0.707107 0.707107 1441 26)" stroke="white"/>
</g>
</svg>
