<svg width="66" height="59" viewBox="0 0 66 59" fill="none" xmlns="http://www.w3.org/2000/svg">
<path d="M65.966 57.1892L58.4178 22.2966C58.3767 22.0532 58.2425 21.831 58.039 21.6694C57.8355 21.5078 57.576 21.4173 57.3063 21.4139H43.0798C44.7228 17.689 45.9793 14.2465 45.9793 12.3046C46.0251 10.823 45.7451 9.348 45.1559 7.9669C44.5667 6.5858 43.6802 5.32661 42.5489 4.26383C41.4177 3.20106 40.0645 2.35624 38.5695 1.77937C37.0745 1.20249 35.4681 0.905273 33.8452 0.905273C32.2223 0.905273 30.6158 1.20249 29.1208 1.77937C27.6258 2.35624 26.2727 3.20106 25.1414 4.26383C24.0101 5.32661 23.1237 6.5858 22.5345 7.9669C21.9453 9.348 21.6653 10.823 21.7111 12.3046C21.7111 14.2465 22.9385 17.689 24.6105 21.4139H9.58183C9.31333 21.4176 9.05503 21.5085 8.85316 21.6702C8.6513 21.8319 8.51902 22.054 8.48003 22.2966L0.951214 57.2157C0.918271 57.3658 0.922234 57.5206 0.962864 57.6691C1.00349 57.8176 1.07977 57.956 1.18614 58.0742C1.2925 58.1925 1.42632 58.2877 1.57791 58.3529C1.7295 58.4182 1.89508 58.4518 2.06265 58.4515H64.8835C65.0503 58.4513 65.2149 58.4171 65.3654 58.3514C65.5159 58.2858 65.6484 58.1903 65.7534 58.0719C65.8617 57.9501 65.9374 57.8069 65.9743 57.6536C66.0112 57.5003 66.0083 57.3413 65.966 57.1892ZM19.2369 47.6474H37.1457C37.8881 48.5766 38.8679 49.3261 39.9999 49.8307C41.1318 50.3353 42.3815 50.5797 43.6404 50.5426C45.3931 50.5645 47.1107 50.093 48.5597 49.1921L60.9596 56.386H18.8213L19.2369 47.6474ZM45.8826 42.5984C47.5643 43.128 48.6467 44.2226 48.6467 45.3701C48.6248 45.7087 48.5279 46.0398 48.3617 46.3433C48.1956 46.6467 47.9638 46.9162 47.6802 47.1354V47.1354C46.5519 48.0174 45.1057 48.486 43.6211 48.4506C41.4272 48.4506 39.4459 47.5238 38.7887 46.191C38.651 45.9139 38.5817 45.6125 38.5857 45.3083C38.5857 43.6223 40.8763 42.2012 43.5921 42.2012C44.3752 42.2095 45.1506 42.344 45.8826 42.5984V42.5984ZM63.2211 55.2561L50.1544 47.6739C50.6415 46.9875 50.9031 46.188 50.9083 45.3701C50.8619 44.473 50.5497 43.6042 50.005 42.8564C49.4603 42.1087 48.7036 41.51 47.8156 41.1243L56.8231 25.5537L63.2211 55.2561ZM33.821 3.3277C35.1189 3.32306 36.4051 3.55209 37.6061 4.00171C38.807 4.45132 39.8992 5.11271 40.8201 5.94804C41.741 6.78338 42.4727 7.7763 42.9732 8.87003C43.4737 9.96376 43.7332 11.1369 43.737 12.3223C43.737 16.2414 37.339 28.6167 33.8693 34.8661C30.3997 28.6167 23.992 16.2414 23.992 12.3223C23.9945 9.93808 25.0293 7.65155 26.8707 5.96154C28.7121 4.27153 31.2105 3.31521 33.821 3.30122V3.3277ZM32.8545 37.6289C32.9505 37.7952 33.0944 37.9344 33.2707 38.0316C33.447 38.1287 33.649 38.1801 33.8548 38.1801C34.0607 38.1801 34.2627 38.1287 34.439 38.0316C34.6152 37.9344 34.7591 37.7952 34.8551 37.6289C35.1257 37.1522 39.069 30.232 42.1907 23.5059H55.4797L45.67 40.3741C45.0003 40.2392 44.3165 40.1711 43.6307 40.171C39.6295 40.171 36.3725 42.4925 36.3725 45.3436V45.5819H19.3142L20.2807 23.5147H25.4417C28.602 30.2408 32.5453 37.1258 32.8159 37.6024L32.8545 37.6289ZM10.5483 23.5059H18.0965L17.072 45.9791L4.44985 51.8137L10.5483 23.5059ZM3.89895 54.3999L16.9657 48.3535L16.5984 56.386H3.43503L3.89895 54.3999Z" fill="#CA0011"/>
<path d="M39.5905 12.2084C39.5905 11.1609 39.2504 10.1369 38.6132 9.26591C37.976 8.39494 37.0704 7.71612 36.0108 7.31526C34.9512 6.9144 33.7852 6.80952 32.6603 7.01388C31.5355 7.21824 30.5022 7.72264 29.6912 8.46334C28.8802 9.20403 28.328 10.1477 28.1042 11.1751C27.8805 12.2025 27.9953 13.2674 28.4342 14.2351C28.8731 15.2029 29.6164 16.0301 30.57 16.612C31.5236 17.194 32.6447 17.5046 33.7916 17.5046C35.3296 17.5046 36.8045 16.9466 37.892 15.9534C38.9795 14.9601 39.5905 13.613 39.5905 12.2084V12.2084ZM30.3027 12.2084C30.3027 11.5729 30.509 10.9517 30.8955 10.4233C31.2821 9.89489 31.8316 9.48307 32.4744 9.23988C33.1172 8.9967 33.8245 8.93305 34.507 9.05703C35.1894 9.181 35.8162 9.48702 36.3082 9.93637C36.8002 10.3857 37.1353 10.9582 37.271 11.5815C37.4067 12.2048 37.3371 12.8508 37.0708 13.4379C36.8046 14.0251 36.3536 14.5269 35.7751 14.8799C35.1966 15.233 34.5164 15.4214 33.8206 15.4214C32.8876 15.4214 31.9928 15.0829 31.3331 14.4803C30.6733 13.8778 30.3027 13.0605 30.3027 12.2084V12.2084Z" fill="#CA0011"/>
</svg>
