<svg width="54" height="54" viewBox="0 0 54 54" fill="none" xmlns="http://www.w3.org/2000/svg">
<g clip-path="url(#clip0_35_11)">
<path d="M21.6147 23.0522C22.7146 23.0513 23.7078 22.3936 24.138 21.3817C24.5687 20.3694 24.3533 19.198 23.5912 18.405L22.3251 17.0902C22.1566 16.916 21.9266 16.8155 21.6844 16.8106C21.4427 16.8092 21.2095 16.9004 21.033 17.0657L18.3905 19.6046L15.7546 22.1435C15.5094 22.3682 15.4048 22.7077 15.4821 23.0307C15.559 23.3542 15.8056 23.6102 16.1255 23.7C16.4453 23.7893 16.7889 23.6986 17.0225 23.4623L18.9999 21.5582L19.2425 21.8097L18.0648 25.1327C17.9513 25.4419 18.0125 25.7885 18.2252 26.0401C18.4383 26.2911 18.7698 26.4086 19.0937 26.3474C19.4171 26.2862 19.683 26.0557 19.7893 25.7439L20.7905 22.9168C21.0567 23.0035 21.3346 23.0495 21.6147 23.0522ZM21.6388 19.0153L22.2737 19.6743C22.6253 20.0393 22.6146 20.62 22.25 20.9716C21.885 21.3232 21.3042 21.3125 20.9526 20.948L20.3182 20.2881L21.6388 19.0153Z" fill="#858585"/>
<path d="M17.2618 18.4352C17.9395 18.4173 18.5864 18.1466 19.0752 17.6766C20.1671 16.6249 20.2001 14.8875 19.1485 13.7952L17.8783 12.4768C17.5276 12.1136 16.9495 12.1029 16.5854 12.4531L11.3137 17.5309C10.9496 17.8816 10.9394 18.4611 11.2901 18.8247L12.5588 20.1422C13.0619 20.6676 13.7535 20.9701 14.4803 20.9826H14.5335C15.972 20.9857 17.1653 19.8697 17.2582 18.4343L17.2618 18.4352ZM17.1957 14.4095L17.8301 15.068C18.1803 15.4321 18.1692 16.0115 17.8051 16.3618C17.6375 16.5409 17.3985 16.6352 17.1537 16.6182C16.9116 16.6138 16.681 16.5132 16.5135 16.3381L15.8791 15.6783L17.1957 14.4095ZM15.1692 18.9007C15.0003 19.0776 14.7622 19.1714 14.5179 19.1571C14.2753 19.1527 14.0447 19.0512 13.8772 18.8761L13.2433 18.2172L14.5607 16.9484L15.1947 17.6069C15.5427 17.971 15.5311 18.5473 15.1692 18.8971V18.9007Z" fill="#858585"/>
<path d="M28.6698 23.6797C28.4054 23.4049 27.9979 23.3232 27.6481 23.4746L20.471 26.5755C20.0113 26.7784 19.8013 27.314 20.0006 27.7755C20.1998 28.2366 20.7337 28.451 21.1965 28.2553L22.409 27.7313L24.3855 29.7841L23.8172 30.9738C23.5996 31.4295 23.7931 31.9759 24.2488 32.1935C24.3716 32.2533 24.5061 32.2846 24.6424 32.2846C24.9939 32.2842 25.3143 32.0818 25.4657 31.7641L28.8338 24.709C28.9991 24.3654 28.9339 23.9553 28.6698 23.6797ZM24.2032 26.9562L26.1336 26.1216L25.228 28.0203L24.2032 26.9562Z" fill="#858585"/>
<path d="M35.6521 30.9288C35.3014 30.5647 34.7224 30.554 34.3583 30.9042L31.383 33.7688L32.7049 28.4904C32.8036 28.0951 32.6285 27.6818 32.2756 27.4776C31.9226 27.2735 31.4772 27.3271 31.1833 27.6094L25.9116 32.6877C25.5631 33.0406 25.5595 33.6075 25.904 33.9645C26.248 34.3219 26.8144 34.3398 27.1803 34.0051L30.1548 31.1401L28.8329 36.4185C28.7337 36.8143 28.9084 37.228 29.2613 37.4326C29.6147 37.6373 30.0601 37.5832 30.3545 37.3008L35.6253 32.2226C35.9899 31.8728 36.002 31.2934 35.6521 30.9288Z" fill="#858585"/>
<path d="M37.5564 32.906C37.3884 32.7313 37.1579 32.6304 36.9158 32.625C36.675 32.6308 36.4444 32.7215 36.2644 32.8814L30.9922 37.9592C30.629 38.3095 30.6179 38.888 30.9677 39.2521L31.6025 39.912C32.7279 41.1263 34.4215 41.6378 36.0312 41.2496C37.6404 40.8614 38.9146 39.6341 39.3626 38.0401C39.8103 36.4461 39.3622 34.7346 38.1904 33.565L37.5564 32.906ZM36.8005 38.7152C35.7086 39.7668 33.9712 39.7346 32.9191 38.6428L36.8729 34.8338C37.9245 35.9256 37.8924 37.6635 36.8005 38.7152Z" fill="#858585"/>
<path d="M49.3286 32.1394L50.3543 31.1136L49.0605 29.8198L48.0348 30.8456V29.3945H46.2049V30.8456L45.1791 29.8198L43.8858 31.1136L44.9111 32.1394H43.46V33.9693H44.9111L43.8858 34.9959L45.1791 36.2897L46.2049 35.2631V36.7141H48.0348V35.2631L49.0605 36.2897L50.3543 34.9959L49.3286 33.9693H50.7796V32.1394H49.3286Z" fill="#858585"/>
<path d="M47.1201 26.192C45.5292 26.1902 43.9874 26.7442 42.7615 27.7583L19.3431 3.44552C19.1564 3.25074 18.8933 3.14888 18.6239 3.1663L3.49986 4.14246L1.88931 2.4707C1.53861 2.1066 0.959165 2.09588 0.595507 2.44658C0.231402 2.79728 0.220233 3.37672 0.570935 3.74083L2.16317 5.39337L0.0102588 19.7882C-0.0321828 20.0692 0.0585083 20.3538 0.255527 20.5584L30.0885 51.5306C30.4387 51.8947 31.0182 51.9058 31.3823 51.5551L44.1675 39.2399C46.7131 40.4622 49.747 40.0007 51.8137 38.0766C53.8799 36.1528 54.5576 33.1596 53.5203 30.5336C52.4834 27.9075 49.9436 26.1849 47.1201 26.192ZM3.76523 7.05663L5.12917 8.47285C4.70654 9.31408 4.74496 10.313 5.23192 11.119C5.71889 11.9245 6.58514 12.4235 7.52645 12.44H7.57872C9.09456 12.4543 10.3348 11.2365 10.3486 9.72063C10.3625 8.20435 9.14504 6.9646 7.62921 6.95031C7.22132 6.94182 6.81701 7.02804 6.44799 7.20228L5.16223 5.86916L18.3183 5.01988L18.6596 5.37416L2.84358 20.608L1.88663 19.6136L3.76523 7.05663ZM6.94389 9.03665C7.11321 8.8718 7.3406 8.77977 7.57694 8.78021H7.59525C7.96517 8.78781 8.29398 9.01699 8.4289 9.36144C8.56382 9.70589 8.47804 10.0977 8.21177 10.3541C8.04067 10.5275 7.80389 10.6204 7.56041 10.6092C7.19049 10.6025 6.86124 10.3733 6.72587 10.0289C6.5905 9.68444 6.67628 9.29219 6.94299 9.03576L6.94389 9.03665ZM30.772 49.6019L26.7307 45.406H35.1279L30.772 49.6019ZM36.9989 43.6043V43.5761H24.9673L4.11727 21.9255L19.9288 6.69164L41.5218 29.108C39.4913 31.9699 39.9608 35.9049 42.6079 38.2088L36.9989 43.6043ZM47.1201 38.0864C44.3408 38.0864 42.0878 35.8334 42.0878 33.0542C42.0878 30.2749 44.3408 28.0219 47.1201 28.0219C49.8993 28.0219 52.1523 30.2749 52.1523 33.0542C52.1496 35.8321 49.898 38.0833 47.1201 38.0864Z" fill="#858585"/>
</g>
<defs>
<clipPath id="clip0_35_11">
<rect width="54" height="54" fill="white"/>
</clipPath>
</defs>
</svg>
