<svg width="114" height="89" viewBox="0 0 114 89" fill="none" xmlns="http://www.w3.org/2000/svg">
<path d="M114 22.0142C114 19.1528 112.89 16.4628 110.874 14.4391C106.812 10.3646 100.264 10.2698 96.0842 14.1526C93.8037 12.8534 90.8475 13.1768 88.9057 15.1259C86.9667 17.0724 86.6426 20.0343 87.9307 22.3218L71.2231 39.0923V14.0087H81.9184C82.8409 14.0087 83.5883 13.2584 83.5883 12.3324C83.5883 11.4065 82.8409 10.6563 81.9184 10.6563H71.2231V2.09221C71.2231 1.16628 70.4755 0.416016 69.5532 0.416016C68.6306 0.416016 67.8832 1.16628 67.8832 2.09221V10.6563H28.2809C27.3587 10.6563 26.611 11.4065 26.611 12.3324C26.611 13.2584 27.3587 14.0087 28.2809 14.0087H35.5683L15.7627 25.4757C15.7427 25.4872 15.724 25.5005 15.7042 25.5123V14.0087H21.601C22.5232 14.0087 23.2709 13.2584 23.2709 12.3324C23.2709 11.4065 22.5232 10.6563 21.601 10.6563H15.7044V2.09288C15.7044 1.16695 14.9567 0.416687 14.0345 0.416687C13.1122 0.416687 12.3645 1.16695 12.3645 2.09288V10.6563H1.66992C0.747679 10.6563 0 11.4065 0 12.3324C0 13.2584 0.747679 14.0087 1.66992 14.0087H12.3645V74.9911H1.66992C0.747679 74.9911 0 75.7413 0 76.6672C0 77.5932 0.747679 78.3435 1.66992 78.3435H12.3645V86.9069C12.3645 87.8328 13.1122 88.583 14.0345 88.583C14.9567 88.583 15.7044 87.8328 15.7044 86.9069V78.3435H57.1888C58.1111 78.3435 58.8588 77.5932 58.8588 76.6672C58.8588 75.7413 58.1112 74.9911 57.1888 74.9911H48.02L55.0632 70.9123C55.7872 71.5336 56.6849 71.8641 57.608 71.8641C58.0552 71.8641 58.5076 71.7872 58.9487 71.6295L67.8832 68.434V74.9911H63.8685C62.946 74.9911 62.1985 75.7413 62.1985 76.6672C62.1985 77.5932 62.946 78.3435 63.8685 78.3435H67.8832V86.9074C67.8832 87.8333 68.6306 88.5837 69.5532 88.5837C70.4755 88.5837 71.2231 87.8333 71.2231 86.9074V78.3435H81.9184C82.8409 78.3435 83.5883 77.5932 83.5883 76.6672C83.5883 75.7413 82.8409 74.9911 81.9184 74.9911H71.2231V67.2393L74.1937 66.1769C74.1944 66.1767 74.195 66.1763 74.196 66.176C74.2501 66.1566 74.303 66.134 74.3547 66.1092C74.367 66.1032 74.379 66.0965 74.391 66.0902C74.4287 66.0709 74.4655 66.0504 74.5016 66.0283C74.5177 66.0187 74.5333 66.0086 74.5488 65.9983C74.5827 65.976 74.6155 65.9525 74.6475 65.9277C74.6602 65.9179 74.6734 65.9087 74.6861 65.8985C74.729 65.8633 74.7707 65.8263 74.81 65.7869C74.8113 65.7856 74.8128 65.7847 74.8141 65.7834L103.022 37.4697C103.931 37.9858 104.948 38.2452 105.964 38.2452C107.495 38.2452 109.025 37.6605 110.19 36.4907C112.132 34.5415 112.455 31.5741 111.16 29.2851C112.994 27.3009 114 24.7358 114 22.0142ZM108.512 16.8099C109.898 18.2 110.66 20.0482 110.66 22.0139C110.66 23.7671 110.052 25.4249 108.938 26.7488L98.6113 16.3831C101.489 13.9526 105.805 14.0936 108.512 16.8099ZM64.1288 66.2179L59.2902 61.3611L62.1385 53.3369C63.6117 53.1835 64.658 53.3763 65.1886 53.9087C65.8264 54.5488 65.9771 55.9343 65.6245 57.9146C65.6228 57.9239 65.6228 57.9334 65.6213 57.9429C65.6134 57.9921 65.6074 58.0417 65.6039 58.0913C65.6026 58.1113 65.6016 58.1311 65.601 58.151C65.5994 58.1946 65.5998 58.2382 65.6016 58.2818C65.647 59.3163 66.59 60.0344 67.5617 59.8595C69.5356 59.5054 70.9156 59.6571 71.553 60.2972C72.0837 60.83 72.2757 61.8802 72.1228 63.3586L64.1288 66.2179ZM73.915 57.9269C73.2318 57.2413 72.3576 56.7758 71.3028 56.5309L86.1963 41.5815C86.8484 40.9267 86.8484 39.8656 86.1963 39.2109C85.5438 38.5565 84.4867 38.5565 83.8346 39.2109L68.9415 54.1598C68.6974 53.1006 68.234 52.2242 67.5506 51.5383C66.867 50.8524 65.9918 50.3891 64.9362 50.1443L90.1379 24.8476L94.1409 28.8656L89.2866 33.7383C88.6343 34.3931 88.6343 35.4542 89.2866 36.1087C89.9391 36.7634 90.9961 36.7632 91.6483 36.1087L96.5026 31.2362L100.505 35.2542L75.3034 60.5509C75.0596 59.4914 74.5982 58.6127 73.915 57.9269ZM67.8832 14.0087V25.5241C67.8676 25.515 67.8529 25.5045 67.8372 25.4953L48.034 14.0087H67.8832ZM15.7107 31.3652C15.7121 30.1389 16.373 28.9941 17.4335 28.3786L40.0888 15.2617C41.1482 14.6483 42.4637 14.6492 43.5221 15.2636L66.1656 28.3978C67.2252 29.0131 67.8835 30.1578 67.8835 31.3855V42.4448L60.5207 49.8353V37.5807C60.5216 35.1583 59.2256 32.9012 57.1386 31.6904L45.1895 24.7598C43.1009 23.5478 40.5048 23.5472 38.4149 24.7569L26.4604 31.6787C24.3691 32.8896 23.0694 35.1455 23.0683 37.5669V51.4189C23.0675 53.8415 24.3633 56.0984 26.4505 57.3091L38.3996 64.2399C39.4447 64.8464 40.6167 65.1496 41.789 65.1496C42.9593 65.1496 44.13 64.8468 45.1741 64.2425L57.1285 57.3209C57.1507 57.3082 57.1714 57.2935 57.1935 57.2805L53.8995 66.5604C53.749 66.9846 53.6746 67.4194 53.6684 67.8499L43.5021 73.7372C42.4409 74.3506 41.1242 74.3507 40.0656 73.7362L17.4217 60.6021C16.3648 59.9883 15.7093 58.8446 15.7107 57.6145V31.3652ZM57.1806 37.58V51.4322C57.1801 52.6589 56.5206 53.8025 55.4594 54.4169L43.505 61.3388C42.4454 61.952 41.1294 61.9517 40.0706 61.3372L28.1215 54.4064C27.0639 53.7929 26.4075 52.6486 26.408 51.4194V37.5673C26.4084 36.3406 27.0678 35.197 28.1291 34.5826L40.0834 27.6607C40.6129 27.3543 41.206 27.201 41.7997 27.201C42.394 27.201 42.9882 27.3548 43.5182 27.662L55.4673 34.5927C56.5244 35.2063 57.1811 36.3506 57.1806 37.58ZM15.7044 74.9911V63.4759C15.72 63.4851 15.7345 63.4955 15.75 63.5045L35.5528 74.9912H15.7044V74.9911ZM57.8278 68.4715C57.5112 68.5845 57.2913 68.4297 57.1888 68.3272C57.0867 68.2243 56.9319 68.0046 57.045 67.6859L58.0491 64.8568L60.646 67.4633L57.8278 68.4715ZM107.829 34.1204C106.801 35.1526 105.127 35.1526 104.099 34.1204L104.048 34.069L91.319 21.2918L91.2677 21.2405C90.2395 20.2084 90.2395 18.529 91.2677 17.4969C91.7818 16.9807 92.4571 16.7228 93.1324 16.7228C93.8077 16.7228 94.4831 16.9807 94.9972 17.4969L107.829 30.3771C108.857 31.4089 108.857 33.0881 107.829 34.1204Z" fill="#858585"/>
</svg>
