<svg width="63" height="53" viewBox="0 0 63 53" fill="none" xmlns="http://www.w3.org/2000/svg">
<path d="M62.8729 26.3708C62.7178 25.4138 62.3297 24.5009 61.7371 23.699C61.1445 22.8972 60.3625 22.227 59.4488 21.7378C58.1475 20.9891 56.6238 20.628 55.0882 20.7043C55.0882 20.4325 54.97 20.1719 54.7596 19.9798C54.5492 19.7876 54.2638 19.6797 53.9663 19.6797H1.11209C0.81878 19.6889 0.540887 19.8019 0.337035 19.9947C0.133184 20.1875 0.0193253 20.4452 0.0194999 20.7132C0.0154495 24.8524 1.13196 28.9283 3.26967 32.5782C5.40738 36.228 8.49997 39.3385 12.2722 41.6329C9.77325 41.9166 7.30139 42.3723 4.87765 42.996C2.79002 43.5841 0 44.573 0 46.4619C0 48.0656 2.05837 48.9209 2.74124 49.206C4.64296 49.9189 6.62578 50.4358 8.65295 50.7474C14.8963 51.7277 21.2241 52.1899 27.5587 52.1284C33.8901 52.1899 40.2146 51.7277 46.4547 50.7474C48.4853 50.4369 50.4715 49.9199 52.3762 49.206C53.0493 48.9209 55.1077 48.0656 55.1077 46.4619C55.1077 44.573 52.3372 43.5841 50.23 42.996C47.8096 42.3722 45.341 41.9165 42.8453 41.6329C43.9518 40.9559 45.0047 40.2086 45.9962 39.3966C46.9718 39.0937 47.8887 38.8085 48.8155 38.5056C52.6298 37.3652 56.2198 36.2871 58.883 34.5587C60.3594 33.7066 61.5263 32.4742 62.2364 31.0169C62.9466 29.5596 63.168 27.9429 62.8729 26.3708ZM49.2155 44.8671C52.1908 45.6422 52.7762 46.3193 52.864 46.4619C52.7371 46.6401 51.7421 47.7805 45.5182 48.814C39.5888 49.7021 33.5866 50.1224 27.5782 50.0703C21.5666 50.122 15.5613 49.7017 9.62848 48.814C3.41435 47.7805 2.40954 46.6401 2.29247 46.4619C2.38027 46.3193 2.9656 45.6422 5.93121 44.8671C9.09194 44.1188 12.3161 43.6151 15.5694 43.3613C19.3138 45.0148 23.4191 45.8737 27.5782 45.8737C31.7373 45.8737 35.8426 45.0148 39.587 43.3613C42.8241 43.6162 46.032 44.1199 49.1765 44.8671H49.2155ZM44.8061 37.6414L44.572 37.8374C42.8583 39.2554 40.9418 40.4543 38.8748 41.4012C35.1067 43.1204 30.9282 43.9529 26.7185 43.8233C22.5088 43.6937 18.4011 42.606 14.7683 40.659C11.1355 38.712 8.09259 35.9673 5.91564 32.674C3.73869 29.3807 2.49665 25.643 2.30224 21.8002H52.8347V22.4238C52.3676 28.2501 49.4818 33.6935 44.7671 37.6414H44.8061ZM49.2545 36.2426C49.8398 35.5566 50.3861 34.8527 50.8934 34.1221C53.2589 30.6999 54.6815 26.8052 55.0394 22.7713C56.1866 22.6691 57.338 22.9234 58.3074 23.493C58.9251 23.8298 59.4536 24.2872 59.855 24.8325C60.2564 25.3778 60.5208 25.9974 60.6292 26.647C61.4779 32.26 55.9174 34.2201 49.2155 36.2426H49.2545Z" fill="#CA0011"/>
<path d="M22.72 13.63C22.552 13.8569 22.4895 14.1354 22.5462 14.4044C22.6029 14.6734 22.7742 14.9108 23.0225 15.0645C23.2073 15.1778 23.4242 15.2397 23.6468 15.2427C23.8385 15.2503 24.0291 15.2124 24.2001 15.1328C24.371 15.0531 24.5165 14.9345 24.6224 14.7883C25.4809 13.63 26.5735 10.9036 24.5248 8.85428C23.2176 7.53561 24.5248 5.79817 24.6029 5.71798C24.7661 5.49649 24.829 5.22593 24.7787 4.96296C24.7284 4.69998 24.5686 4.465 24.3328 4.30723C24.097 4.14946 23.8035 4.08114 23.5138 4.11657C23.2241 4.152 22.9606 4.28845 22.7786 4.49732C21.9103 5.58433 20.8275 8.17712 22.8566 10.2442C24.1639 11.5985 22.7688 13.5498 22.72 13.63Z" fill="#CA0011"/>
<path d="M30.4854 9.52248C30.3174 9.74938 30.2548 10.0279 30.3115 10.2969C30.3682 10.5659 30.5395 10.8033 30.7878 10.957C30.9761 11.0705 31.1962 11.1324 31.4218 11.1352C31.6132 11.141 31.8032 11.1024 31.9738 11.0229C32.1444 10.9434 32.2901 10.8257 32.3973 10.6808C33.2558 9.52248 34.3483 6.79607 32.2998 4.75572C30.9829 3.42815 32.2998 1.69073 32.3778 1.61054C32.541 1.38906 32.604 1.1185 32.5537 0.855526C32.5033 0.592557 32.3435 0.357579 32.1078 0.199809C31.872 0.0420385 31.5785 -0.0262853 31.2888 0.00914791C30.9991 0.0445811 30.7356 0.181022 30.5536 0.389895C29.6854 1.4769 28.6026 4.06966 30.6219 6.13674C31.9291 7.49104 30.5439 9.4512 30.4854 9.52248Z" fill="#CA0011"/>
</svg>
