<svg width="48" height="48" viewBox="0 0 48 48" fill="none" xmlns="http://www.w3.org/2000/svg">
<path d="M45.1875 17.1169V12.6562C45.1875 10.33 43.295 8.4375 40.9688 8.4375H38.7387L30.7141 0.412875C30.7124 0.411187 30.7104 0.409594 30.7087 0.407812C30.4595 0.1605 30.1132 0.00684375 29.7405 0.00103125C29.7332 0.0009375 29.7262 0 29.7188 0H9.84375C9.06712 0 8.4375 0.629625 8.4375 1.40625V8.4375H7.03125C4.70503 8.4375 2.8125 10.33 2.8125 12.6562V17.1169C1.17572 17.6974 0 19.2605 0 21.0938V38.1562C0 40.4825 1.89253 42.375 4.21875 42.375H8.4375V46.5938C8.4375 47.3704 9.06712 48 9.84375 48H38.1562C38.9329 48 39.5625 47.3704 39.5625 46.5938V42.375H43.7812C46.1075 42.375 48 40.4825 48 38.1562V21.0938C48 19.2605 46.8243 17.6974 45.1875 17.1169ZM39.5625 11.25H40.9688C41.7442 11.25 42.375 11.8808 42.375 12.6562V16.875H39.5625V11.25ZM31.125 4.80122L34.7613 8.4375H31.125V4.80122ZM11.25 2.8125H28.3125V9.84375C28.3125 10.6204 28.9421 11.25 29.7188 11.25H36.75V16.875H11.25V2.8125ZM5.625 12.6562C5.625 11.8808 6.25584 11.25 7.03125 11.25H8.4375V16.875H5.625V12.6562ZM36.75 45.1875H11.25V31.125H36.75V45.1875ZM45.1875 38.1562C45.1875 38.9317 44.5567 39.5625 43.7812 39.5625H39.5625V31.125H40.9688C41.7454 31.125 42.375 30.4954 42.375 29.7188C42.375 28.9421 41.7454 28.3125 40.9688 28.3125C39.8207 28.3125 8.64638 28.3125 7.03125 28.3125C6.25462 28.3125 5.625 28.9421 5.625 29.7188C5.625 30.4954 6.25462 31.125 7.03125 31.125H8.4375V39.5625H4.21875C3.44334 39.5625 2.8125 38.9317 2.8125 38.1562V21.0938C2.8125 20.3183 3.44334 19.6875 4.21875 19.6875C5.91956 19.6875 41.8435 19.6875 43.7812 19.6875C44.5567 19.6875 45.1875 20.3183 45.1875 21.0938V38.1562Z" fill="#858585"/>
<path d="M32.5312 33.9375H15.4688C14.6921 33.9375 14.0625 34.5671 14.0625 35.3438C14.0625 36.1204 14.6921 36.75 15.4688 36.75H32.5312C33.3079 36.75 33.9375 36.1204 33.9375 35.3438C33.9375 34.5671 33.3079 33.9375 32.5312 33.9375Z" fill="#858585"/>
<path d="M32.5312 39.5625H15.4688C14.6921 39.5625 14.0625 40.1921 14.0625 40.9688C14.0625 41.7454 14.6921 42.375 15.4688 42.375H32.5312C33.3079 42.375 33.9375 41.7454 33.9375 40.9688C33.9375 40.1921 33.3079 39.5625 32.5312 39.5625Z" fill="#858585"/>
<path d="M9.84375 22.5H7.03125C6.25462 22.5 5.625 23.1296 5.625 23.9062C5.625 24.6829 6.25462 25.3125 7.03125 25.3125H9.84375C10.6204 25.3125 11.25 24.6829 11.25 23.9062C11.25 23.1296 10.6204 22.5 9.84375 22.5Z" fill="#858585"/>
</svg>
