<svg width="56" height="49" viewBox="0 0 56 49" fill="none" xmlns="http://www.w3.org/2000/svg">
<path d="M53.0747 12.4082C54.0187 9.46725 52.1384 5.47933 48.4319 2.86948C43.7272 -0.487147 36.2059 -1.54956 28.437 4.64018L24.0573 0.282721C23.9675 0.193102 23.8608 0.122005 23.7432 0.0734909C23.6257 0.0249767 23.4997 0 23.3725 0C23.2453 0 23.1193 0.0249767 23.0018 0.0734909C22.8843 0.122005 22.7776 0.193102 22.6877 0.282721L0.286314 22.5704C0.195267 22.6584 0.122977 22.7637 0.0737842 22.8801C0.0245913 22.9965 -0.000490018 23.1216 1.28334e-05 23.2479C-0.000649464 23.3753 0.0243289 23.5016 0.0735008 23.6193C0.122673 23.737 0.195039 23.8437 0.286314 23.9331L9.804 33.4025C9.98654 33.5845 10.2343 33.6869 10.4927 33.6873C10.6196 33.6878 10.7453 33.6628 10.8623 33.6139C10.9793 33.565 11.0852 33.493 11.1736 33.4025L33.6137 11.1148C33.7038 11.0254 33.7753 10.9192 33.824 10.8023C33.8728 10.6853 33.8979 10.56 33.8979 10.4334C33.8979 10.3069 33.8728 10.1815 33.824 10.0646C33.7753 9.94769 33.7038 9.8415 33.6137 9.75211L29.8608 6.00284C36.7399 0.613759 43.2707 1.52221 47.3486 4.42462C49.8944 6.24151 51.4652 8.82827 51.411 10.8607C49.8335 9.69109 47.9771 8.9501 46.0244 8.71061C44.0718 8.47111 42.0901 8.74137 40.2742 9.49478C38.4583 10.2482 36.8708 11.4588 35.6677 13.0077C34.4647 14.5565 33.6875 16.3902 33.4125 18.3284C33.1131 20.4522 33.4244 22.6169 34.3101 24.5721L17.4027 41.3937C17.2225 41.5772 17.12 41.8224 17.1164 42.0789V48.0377C17.1164 48.2929 17.2183 48.5377 17.3997 48.7181C17.5811 48.8986 17.8271 49 18.0836 49H24.0728C24.3306 48.9964 24.5771 48.8944 24.7615 48.7152L42.5588 31.0082C43.2429 31.134 43.9369 31.1984 44.6326 31.2006V31.2006C46.8193 31.1984 48.9587 30.5669 50.7929 29.3823C52.6271 28.1977 54.0778 26.5105 54.9701 24.5243C55.8624 22.538 56.1582 20.3373 55.8219 18.1875C55.4856 16.0378 54.5315 14.0307 53.0747 12.4082V12.4082ZM31.54 10.4296L10.5159 31.3546L2.36008 23.2402L23.3996 2.31517L26.99 5.88736C26.6728 6.17991 26.3555 6.48786 26.0383 6.80351C25.9482 6.8929 25.8767 6.99909 25.8279 7.11601C25.7792 7.23292 25.7541 7.35826 25.7541 7.48484C25.7541 7.61142 25.7792 7.73676 25.8279 7.85368C25.8767 7.97059 25.9482 8.07679 26.0383 8.16618C26.2217 8.34348 26.4673 8.44266 26.7231 8.44266C26.9788 8.44266 27.2244 8.34348 27.4079 8.16618C27.7251 7.84283 28.0424 7.54258 28.3596 7.25003L31.54 10.4296ZM51.264 26.5352C50.3918 27.4042 49.3556 28.093 48.2148 28.5621C47.0741 29.0311 45.8514 29.2711 44.6171 29.2683C43.8879 29.2675 43.1611 29.1849 42.4505 29.0219C42.2903 28.9848 42.1233 28.9887 41.965 29.0331C41.8067 29.0776 41.6623 29.1611 41.5451 29.276L23.6704 47.0522H19.0277V42.433L22.7187 38.7608L23.8639 39.9001C24.0484 40.0231 24.2698 40.0792 24.4909 40.0589C24.712 40.0386 24.9194 39.9433 25.0782 39.7889C25.237 39.6345 25.3376 39.4304 25.363 39.211C25.3885 38.9915 25.3373 38.77 25.218 38.5837L24.0806 37.4443L26.5412 34.9961L28.3906 36.8438C28.5708 37.0246 28.8156 37.127 29.0715 37.1286C29.3295 37.1258 29.5763 37.0237 29.7602 36.8438C29.8503 36.7544 29.9218 36.6482 29.9705 36.5313C30.0193 36.4144 30.0444 36.289 30.0444 36.1625C30.0444 36.0359 30.0193 35.9105 29.9705 35.7936C29.9218 35.6767 29.8503 35.5705 29.7602 35.4811L27.9031 33.6411L30.1858 31.37L31.331 32.5094C31.5158 32.6728 31.7564 32.7596 32.0034 32.7521C32.2505 32.7445 32.4853 32.6431 32.6595 32.4687C32.8338 32.2944 32.9344 32.0602 32.9406 31.8143C32.9468 31.5685 32.8582 31.3296 32.6929 31.1467L31.5554 30.0073L36.1363 25.4497C36.2827 25.3041 36.3782 25.1155 36.4088 24.9118C36.4395 24.7081 36.4036 24.4999 36.3065 24.318C35.4849 22.7883 35.1065 21.0617 35.2136 19.3305C35.3207 17.5994 35.909 15.9319 36.913 14.514C37.917 13.0961 39.2971 11.9836 40.8995 11.3006C42.5018 10.6175 44.2634 10.3907 45.9878 10.6456C47.7121 10.9004 49.3314 11.6269 50.665 12.7439C51.9986 13.8609 52.9941 15.3245 53.5404 16.9715C54.0868 18.6185 54.1626 20.3842 53.7592 22.0715C53.3559 23.7589 52.4894 25.3016 51.2563 26.5275L51.264 26.5352Z" fill="#CA0011"/>
<path d="M46.1106 14.0867C45.8326 13.8346 45.4677 13.6988 45.0916 13.7074C44.7155 13.7161 44.3573 13.8686 44.0913 14.1332C43.8253 14.3979 43.6721 14.7543 43.6634 15.1284C43.6546 15.5026 43.7912 15.8657 44.0446 16.1423L48.3624 20.4305C48.6404 20.6826 49.0053 20.8184 49.3814 20.8098C49.7574 20.8011 50.1157 20.6486 50.3817 20.384C50.6476 20.1193 50.8009 19.7629 50.8096 19.3888C50.8183 19.0146 50.6818 18.6515 50.4284 18.3749L46.1106 14.0867Z" fill="#CA0011"/>
</svg>
