<svg width="59" height="51" viewBox="0 0 59 51" fill="none" xmlns="http://www.w3.org/2000/svg">
<path d="M58.9998 20.4689C59.0136 17.4538 58.2354 14.481 56.7324 11.8076C56.6423 11.6472 56.5049 11.5139 56.3362 11.4231C56.1676 11.3324 55.9746 11.288 55.7797 11.295H37.6025C38.2413 7.88373 38.5443 4.42558 38.5076 0.963348C38.5088 0.837258 38.4831 0.712187 38.432 0.595358C38.3808 0.47853 38.3052 0.37226 38.2096 0.282687C38.1139 0.193114 38.0001 0.122014 37.8746 0.073494C37.7492 0.0249737 37.6146 -5.40455e-06 37.4787 8.77105e-10H1.02893C0.893009 -5.40455e-06 0.758434 0.0249737 0.632977 0.073494C0.50752 0.122014 0.393659 0.193114 0.297991 0.282687C0.202323 0.37226 0.12675 0.47853 0.0756065 0.595358C0.0244632 0.712187 -0.00121442 0.837258 4.41209e-05 0.963348C4.41209e-05 10.6233 1.81967 17.4198 5.56372 21.7416C8.56468 25.2061 12.7089 26.9914 18.2154 27.1859V49.0777H10.9368C10.6798 49.1006 10.4412 49.2116 10.2676 49.3889C10.094 49.5662 9.99777 49.7971 9.99777 50.0366C9.99777 50.2762 10.094 50.5071 10.2676 50.6844C10.4412 50.8617 10.6798 50.9727 10.9368 50.9956H27.5707C27.8277 50.9727 28.0664 50.8617 28.24 50.6844C28.4136 50.5071 28.5098 50.2762 28.5098 50.0366C28.5098 49.7971 28.4136 49.5662 28.24 49.3889C28.0664 49.2116 27.8277 49.1006 27.5707 49.0777H20.2922V27.1859C22.7215 27.1402 25.1185 26.6601 27.3516 25.7718C29.3808 32.2147 34.9731 36.9696 41.7372 37.4115V49.0777H34.4491C34.1921 49.1006 33.9535 49.2116 33.7799 49.3889C33.6062 49.5662 33.51 49.7971 33.51 50.0366C33.51 50.2762 33.6062 50.5071 33.7799 50.6844C33.9535 50.8617 34.1921 50.9727 34.4491 50.9956H51.0735C51.2176 51.0084 51.3629 50.9932 51.5003 50.9508C51.6377 50.9085 51.7639 50.84 51.8711 50.7497C51.9782 50.6594 52.0638 50.5493 52.1224 50.4265C52.181 50.3037 52.2112 50.1709 52.2112 50.0366C52.2112 49.9024 52.181 49.7696 52.1224 49.6468C52.0638 49.524 51.9782 49.4139 51.8711 49.3236C51.7639 49.2333 51.6377 49.1648 51.5003 49.1225C51.3629 49.0801 51.2176 49.0649 51.0735 49.0777H43.7949V37.4115C52.2738 36.8547 58.9998 29.4661 58.9998 20.4689ZM56.8944 19.3377H28.6473C28.7907 17.214 29.3695 15.1353 30.3526 13.2129H55.1795C56.1699 15.1333 56.7521 17.2128 56.8944 19.3377ZM36.4402 1.91786C36.4402 3.98596 36.2878 5.93034 36.0782 7.72446H2.48654C2.27695 5.95685 2.14356 4.03899 2.11498 1.91786H36.4402ZM19.2538 25.3122C12.9947 25.3122 4.96353 23.5446 2.70567 9.66883H35.8305C35.7352 10.2345 35.6305 10.7913 35.5161 11.3215H29.7428C29.5476 11.3123 29.3537 11.3558 29.1846 11.4468C29.0155 11.5378 28.8784 11.6723 28.7902 11.8342C26.73 15.5449 26.0597 19.7861 26.8848 23.8893C24.4913 24.8969 21.8811 25.3836 19.2538 25.3122ZM28.6187 21.282H56.9134C56.5324 29.2363 50.3304 35.5555 42.7661 35.5555C35.2017 35.5555 29.0093 29.1921 28.6187 21.2555V21.282Z" fill="#CA0011"/>
</svg>
