<svg width="57" height="51" viewBox="0 0 57 51" fill="none" xmlns="http://www.w3.org/2000/svg">
<path d="M17.9278 15.7756H25.7018C25.9773 15.7756 26.2416 15.6823 26.4364 15.5163C26.6313 15.3502 26.7407 15.1249 26.7407 14.89V8.26353C26.7407 8.02866 26.6313 7.8034 26.4364 7.63731C26.2416 7.47123 25.9773 7.37793 25.7018 7.37793H17.9278C17.6523 7.37793 17.388 7.47123 17.1932 7.63731C16.9983 7.8034 16.8889 8.02866 16.8889 8.26353V14.89C16.8889 15.1249 16.9983 15.3502 17.1932 15.5163C17.388 15.6823 17.6523 15.7756 17.9278 15.7756ZM18.9668 9.14914H24.6628V14.0044H18.9303L18.9668 9.14914Z" fill="#CA0011"/>
<path d="M31.2982 15.7756H39.0722C39.3477 15.7756 39.612 15.6823 39.8068 15.5163C40.0017 15.3502 40.1111 15.1249 40.1111 14.89V8.26353C40.1111 8.02866 40.0017 7.8034 39.8068 7.63731C39.612 7.47123 39.3477 7.37793 39.0722 7.37793H31.2982C31.0227 7.37793 30.7584 7.47123 30.5636 7.63731C30.3687 7.8034 30.2593 8.02866 30.2593 8.26353V14.89C30.2593 15.1249 30.3687 15.3502 30.5636 15.5163C30.7584 15.6823 31.0227 15.7756 31.2982 15.7756ZM32.3463 9.14914H38.0332V14.0044H32.3737L32.3463 9.14914Z" fill="#CA0011"/>
<path d="M25.7018 28.0493C25.9773 28.0493 26.2416 27.956 26.4364 27.7899C26.6313 27.6238 26.7407 27.3986 26.7407 27.1637V20.537C26.7407 20.3021 26.6313 20.0769 26.4364 19.9108C26.2416 19.7447 25.9773 19.6514 25.7018 19.6514H17.9278C17.6523 19.6514 17.388 19.7447 17.1932 19.9108C16.9983 20.0769 16.8889 20.3021 16.8889 20.537V27.1637C16.8889 27.3986 16.9983 27.6238 17.1932 27.7899C17.388 27.956 17.6523 28.0493 17.9278 28.0493H25.7018ZM18.9303 21.4226H24.6263V26.3091H18.9303V21.4226Z" fill="#CA0011"/>
<path d="M31.2982 28.0493H39.0722C39.3477 28.0493 39.612 27.956 39.8068 27.7899C40.0017 27.6238 40.1111 27.3986 40.1111 27.1637V20.537C40.1111 20.3021 40.0017 20.0769 39.8068 19.9108C39.612 19.7447 39.3477 19.6514 39.0722 19.6514H31.2982C31.0227 19.6514 30.7584 19.7447 30.5636 19.9108C30.3687 20.0769 30.2593 20.3021 30.2593 20.537V27.1637C30.2593 27.3986 30.3687 27.6238 30.5636 27.7899C30.7584 27.956 31.0227 28.0493 31.2982 28.0493ZM32.3463 21.4226H38.0332V26.3091H32.3737L32.3463 21.4226Z" fill="#CA0011"/>
<path d="M55.9883 11.7541H44.922V1.84681C44.922 1.72415 44.8955 1.60271 44.8442 1.48948C44.7928 1.37626 44.7174 1.27351 44.6226 1.18715C44.5277 1.1008 44.4151 1.03255 44.2913 0.986355C44.1675 0.940161 44.035 0.916929 43.9014 0.918004H13.0986C12.8294 0.917995 12.5712 1.0156 12.38 1.18955C12.1889 1.3635 12.0803 1.59973 12.078 1.84681V11.7541H1.01168C0.743363 11.7541 0.486035 11.8519 0.296308 12.0261C0.106582 12.2003 0 12.4365 0 12.6829V49.7292C0 49.9755 0.106582 50.2117 0.296308 50.3859C0.486035 50.5601 0.743363 50.658 1.01168 50.658H55.9883C56.2566 50.658 56.514 50.5601 56.7037 50.3859C56.8934 50.2117 57 49.9755 57 49.7292V12.6829C57 12.4365 56.8934 12.2003 56.7037 12.0261C56.514 11.8519 56.2566 11.7541 55.9883 11.7541ZM2.02335 20.0726H7.53433V25.1566H1.98785L2.02335 20.0726ZM2.02335 32.4811H7.53433V37.5651H1.98785L2.02335 32.4811ZM12.078 48.7759H2.02335V39.4064H8.5815C8.85063 39.4042 9.10794 39.3046 9.29741 39.1291C9.48689 38.9536 9.59319 38.7165 9.59318 38.4694V31.5686C9.59319 31.3215 9.48689 31.0844 9.29741 30.9089C9.10794 30.7334 8.85063 30.6338 8.5815 30.6316H2.02335V27.0386H8.5815C8.84982 27.0386 9.10714 26.9408 9.29686 26.7666C9.48659 26.5924 9.59318 26.3561 9.59318 26.1098V19.1601C9.59318 18.9137 9.48659 18.6775 9.29686 18.5033C9.10714 18.3291 8.84982 18.2313 8.5815 18.2313H2.02335V13.6443H12.078V48.7759ZM32.7286 48.7759H24.2714V35.2675H32.7286V48.7759ZM42.8898 12.6584V48.7759H34.7608V34.3387C34.7609 34.216 34.7344 34.0946 34.683 33.9814C34.6316 33.8681 34.5563 33.7654 34.4614 33.679C34.3665 33.5927 34.254 33.5244 34.1302 33.4782C34.0064 33.432 33.8739 33.4088 33.7403 33.4099H23.2597C22.9914 33.4099 22.734 33.5078 22.5443 33.6819C22.3546 33.8561 22.248 34.0924 22.248 34.3387V48.8004H14.1102V2.77562H42.8898V12.6584ZM54.9766 37.5406H49.4302V32.4566H54.9766V37.5406ZM54.9766 25.1321H49.4302V20.0481H54.9766V25.1321ZM54.9766 18.1905H48.4185C48.1502 18.1905 47.8929 18.2884 47.7031 18.4626C47.5134 18.6367 47.4068 18.873 47.4068 19.1193V26.0691C47.4068 26.3154 47.5134 26.5517 47.7031 26.7258C47.8929 26.9 48.1502 26.9979 48.4185 26.9979H54.9766V30.5909H48.4185C48.1494 30.593 47.8921 30.6927 47.7026 30.8682C47.5131 31.0437 47.4068 31.2807 47.4068 31.5278V38.4694C47.4068 38.7165 47.5131 38.9536 47.7026 39.1291C47.8921 39.3046 48.1494 39.4042 48.4185 39.4064H54.9766V48.7759H44.922V13.6443H54.9766V18.1905Z" fill="#CA0011"/>
</svg>
