<svg width="54" height="54" viewBox="0 0 54 54" fill="none" xmlns="http://www.w3.org/2000/svg">
<g clip-path="url(#clip0_35_2)">
<path d="M47.163 7.02285H46.5223C47.7436 5.03449 47.2926 2.36502 45.3325 0.910739C43.2205 -0.656074 40.2193 -0.151733 38.7454 2.05083L35.4183 7.02296H6.83719C4.48792 7.02296 2.57666 8.93422 2.57666 11.2835V38.5228C2.57666 40.8721 4.48792 42.7833 6.83719 42.7833H23.3864L22.1359 48.0353H19.4372C17.6783 48.0353 16.2473 49.4661 16.2473 51.225V51.891H12.9204C12.3379 51.891 11.8657 52.3633 11.8657 52.9457C11.8657 53.5281 12.3379 54.0003 12.9204 54.0003H41.0799C41.6624 54.0003 42.1345 53.5281 42.1345 52.9457C42.1345 52.3633 41.6624 51.891 41.0799 51.891H37.7529V51.225C37.7529 49.4661 36.3219 48.0353 34.5631 48.0353H31.8643L30.6139 42.7833H47.1631C49.5123 42.7833 51.4236 40.8721 51.4236 38.5228V32.5291V11.2834C51.4236 8.93412 49.5124 7.02285 47.163 7.02285ZM32.0515 25.5638C30.4025 26.7181 27.3133 25.1491 24.3632 26.7233C23.6434 22.984 24.0972 19.4672 27.8439 18.6909C28.3281 18.59 28.8494 18.5443 29.2932 18.5532C30.5614 19.4941 31.844 20.4457 33.1086 21.384C33.6622 22.9943 33.4544 24.5818 32.0515 25.5638ZM33.1144 14.259L36.0998 16.474L33.8039 19.2732C32.8587 18.572 32.0462 17.9691 31.101 17.2678C31.2973 16.9745 32.935 14.527 33.1144 14.259ZM40.4985 3.22394C41.2973 2.02995 42.9265 1.75215 44.0756 2.60485C45.2252 3.45765 45.4311 5.09724 44.5202 6.20791C42.9039 8.17834 39.0613 12.8633 37.4389 14.8413L34.2887 12.504L40.4985 3.22394ZM35.6435 51.225V51.891H18.3566V51.225C18.3566 50.6293 18.8414 50.1446 19.4372 50.1446H34.563C35.1588 50.1446 35.6435 50.6293 35.6435 51.225ZM29.6959 48.0353H24.3042L25.5546 42.7833H28.4455L29.6959 48.0353ZM49.3143 38.5228C49.3143 39.709 48.3493 40.674 47.1631 40.674C45.4889 40.674 8.71967 40.674 6.8373 40.674C5.65112 40.674 4.6861 39.709 4.6861 38.5228V33.5838H7.69991C8.2824 33.5838 8.75458 33.1115 8.75458 32.5291C8.75458 31.9467 8.2824 31.4745 7.69991 31.4745H4.68588V11.2834C4.68588 10.0972 5.6509 9.13218 6.83709 9.13218H34.0069C32.9965 10.6422 30.0488 15.0473 29.1151 16.4425C27.0483 16.4612 24.9848 17.1812 23.634 18.7581C21.7958 20.9038 21.4729 24.2754 22.6741 28.779C22.8795 29.5492 23.8404 29.8251 24.4218 29.2697C27.1489 26.6639 30.5453 29.5062 33.5869 27.0444C35.4435 25.5415 35.8829 23.1523 35.1828 20.9181C36.1292 19.7643 43.9011 10.2887 44.8497 9.13218H47.1629C48.3491 9.13218 49.3141 10.0972 49.3141 11.2834V31.4744H16.137C15.5545 31.4744 15.0823 31.9466 15.0823 32.529C15.0823 33.1114 15.5545 33.5837 16.137 33.5837H49.3143V38.5228Z" fill="#858585"/>
<path d="M11.7146 31.4943C11.2069 31.5981 10.8667 32.0369 10.8667 32.529C10.8667 33.1887 11.4698 33.6939 12.127 33.5626C12.711 33.4441 13.0667 32.8813 12.9549 32.3223C12.8376 31.7454 12.2779 31.3809 11.7146 31.4943Z" fill="#858585"/>
</g>
<defs>
<clipPath id="clip0_35_2">
<rect width="54" height="54" fill="white"/>
</clipPath>
</defs>
</svg>
