<svg width="61" height="39" viewBox="0 0 61 39" fill="none" xmlns="http://www.w3.org/2000/svg">
<path d="M30.7198 6.25977C27.3263 6.25833 24.0085 7.16937 21.1861 8.87764C18.3638 10.5859 16.1636 13.0147 14.8638 15.8568C13.5641 18.6988 13.2232 21.8265 13.8843 24.8443C14.5453 27.862 16.1787 30.6342 18.5777 32.8103C20.9767 34.9863 24.0337 36.4685 27.3619 37.0692C30.6901 37.67 34.14 37.3624 37.2754 36.1853C40.4108 35.0083 43.0907 33.0146 44.9762 30.4565C46.8617 27.8985 47.8681 24.8909 47.8681 21.8142C47.8617 17.6919 46.0533 13.74 42.839 10.8245C39.6246 7.9089 35.2666 6.26744 30.7198 6.25977ZM30.7198 35.5421C27.7251 35.5421 24.7976 34.737 22.3076 33.2285C19.8176 31.7201 17.8768 29.5761 16.7308 27.0677C15.5848 24.5592 15.2849 21.799 15.8691 19.136C16.4534 16.4731 17.8955 14.027 20.0131 12.1071C22.1307 10.1872 24.8287 8.87976 27.7658 8.35007C30.703 7.82037 33.7475 8.09223 36.5143 9.13127C39.281 10.1703 41.6458 11.9298 43.3096 14.1874C44.9734 16.4449 45.8615 19.0991 45.8615 21.8142C45.8488 25.4515 44.2495 28.9366 41.4126 31.5086C38.5757 34.0806 34.7317 35.5307 30.7198 35.5421Z" fill="#CA0011"/>
<path d="M60.4776 0.552482C60.3239 0.470144 60.1491 0.426758 59.9711 0.426758C59.7931 0.426758 59.6183 0.470144 59.4646 0.552482C59.1639 0.734112 52.1042 5.03511 52.1042 19.3911C52.1032 19.5116 52.1282 19.6311 52.178 19.7426C52.2277 19.8541 52.3011 19.9554 52.3939 20.0406C52.4868 20.1258 52.5971 20.1932 52.7186 20.2388C52.84 20.2845 52.9702 20.3075 53.1014 20.3065H59.0056V37.6195C59.0056 37.8623 59.1106 38.0951 59.2976 38.2668C59.4847 38.4385 59.7383 38.5349 60.0028 38.5349C60.2673 38.5349 60.5209 38.4385 60.7079 38.2668C60.8949 38.0951 61 37.8623 61 37.6195V1.35165C61.0006 1.18739 60.9522 1.0261 60.8601 0.885243C60.7681 0.744385 60.6358 0.629316 60.4776 0.552482ZM54.1461 18.512C54.2886 12.0896 55.9664 8.0211 57.3752 5.71077C57.8523 4.91968 58.4116 4.17274 59.0451 3.48036V18.512H54.1461Z" fill="#CA0011"/>
<path d="M10.8334 0.434009C10.5624 0.434002 10.3024 0.529269 10.11 0.699053C9.91767 0.868838 9.80852 1.09938 9.80637 1.34045V12.7616C9.80745 12.8012 9.79961 12.8406 9.78331 12.8776C9.767 12.9145 9.74255 12.9481 9.71141 12.9765C9.68027 13.0049 9.64306 13.0274 9.60197 13.0428C9.56089 13.0582 9.51676 13.0661 9.47218 13.0661H6.93721V1.34045C6.91437 1.1131 6.79672 0.901597 6.6074 0.74755C6.41808 0.593504 6.17081 0.508075 5.91425 0.508075C5.65769 0.508075 5.41042 0.593504 5.2211 0.74755C5.03178 0.901597 4.91413 1.1131 4.8913 1.34045V13.0806H2.38893C2.34435 13.0806 2.30022 13.0727 2.25913 13.0573C2.21804 13.0419 2.18083 13.0194 2.14969 12.991C2.11855 12.9626 2.09411 12.929 2.0778 12.8921C2.0615 12.8551 2.05365 12.8157 2.05474 12.7761V1.34045C2.05474 1.09812 1.94654 0.865721 1.75393 0.694371C1.56133 0.523021 1.3001 0.426758 1.02771 0.426758C0.755328 0.426758 0.4941 0.523021 0.301495 0.694371C0.108889 0.865721 0.000681767 1.09812 0.000681735 1.34045V12.7616C-0.00692723 13.0448 0.0492233 13.3266 0.165833 13.5902C0.282442 13.8539 0.457155 14.0942 0.679687 14.2969C0.902219 14.4996 1.16807 14.6606 1.46161 14.7706C1.75515 14.8805 2.07044 14.9371 2.38893 14.937H4.9239V37.5399C4.91121 37.6662 4.92823 37.7936 4.97388 37.9137C5.01952 38.0339 5.09278 38.1443 5.18901 38.2379C5.28523 38.3315 5.40231 38.4062 5.53279 38.4574C5.66326 38.5085 5.80428 38.5349 5.94685 38.5349C6.08943 38.5349 6.23045 38.5085 6.36092 38.4574C6.4914 38.4062 6.60847 38.3315 6.7047 38.2379C6.80093 38.1443 6.8742 38.0339 6.91984 37.9137C6.96548 37.7936 6.9825 37.6662 6.96981 37.5399V14.937H9.50478C9.82052 14.9332 10.1323 14.8738 10.422 14.7622C10.7118 14.6505 10.9738 14.4889 11.1928 14.2866C11.4119 14.0843 11.5837 13.8453 11.6983 13.5835C11.8129 13.3218 11.868 13.0424 11.8604 12.7616V1.34045C11.8604 1.2208 11.8338 1.10233 11.7821 0.991885C11.7304 0.881435 11.6546 0.781187 11.5591 0.696921C11.4637 0.612655 11.3504 0.546039 11.2258 0.500915C11.1012 0.455791 10.9679 0.433052 10.8334 0.434009Z" fill="#CA0011"/>
</svg>
