<svg width="54" height="54" viewBox="0 0 54 54" fill="none" xmlns="http://www.w3.org/2000/svg">
<path d="M26.0998 37.7998H20.6998C20.2028 37.7998 19.7998 38.2028 19.7998 38.6998V43.1998C19.7998 43.6968 20.2028 44.0998 20.6998 44.0998H26.0998C26.5969 44.0998 26.9998 43.6968 26.9998 43.1998V38.6998C26.9998 38.2028 26.5969 37.7998 26.0998 37.7998ZM25.1998 42.2998H21.5998V39.5998H25.1998V42.2998Z" fill="#858585"/>
<path d="M45.0002 38.7002H43.2002V40.5002H45.0002V38.7002Z" fill="#858585"/>
<path d="M50.3999 38.7002H46.7998V40.5002H50.3999V38.7002Z" fill="#858585"/>
<path d="M50.4002 42.2998H43.2002V44.0998H50.4002V42.2998Z" fill="#858585"/>
<path d="M53.9937 14.3674C53.9899 14.2727 53.9711 14.1791 53.9379 14.0902C53.9298 14.0704 53.9253 14.0497 53.9163 14.0308C53.9073 14.0119 53.9109 14.0083 53.9055 13.9975L50.3055 6.7975C50.1531 6.4924 49.8411 6.29969 49.5 6.2998H20.7C20.3589 6.29969 20.0469 6.4924 19.8945 6.7975L16.2945 13.9975C16.2891 14.0083 16.2882 14.02 16.2828 14.0308C16.2774 14.0416 16.2702 14.0704 16.2621 14.0902C16.2289 14.1791 16.2101 14.2727 16.2063 14.3674C16.2063 14.3782 16.2 14.3881 16.2 14.3998V18.8998H0V20.6998H16.2V22.4998H3.6V24.2998H16.2V46.7998C16.2 47.2968 16.603 47.6998 17.1 47.6998H53.1C53.597 47.6998 54 47.2968 54 46.7998V14.3998C54 14.3881 53.9937 14.3791 53.9937 14.3674ZM48.9438 8.0998L51.6438 13.4998H39.4938L38.8188 8.0998H48.9438ZM33.1947 8.0998H37.0053L37.6803 13.4998H32.5197L33.1947 8.0998ZM32.4 15.2998H37.8V26.0998H32.4V15.2998ZM21.2553 8.0998H31.3803L30.7053 13.4998H18.5553L21.2553 8.0998ZM52.2 45.8998H18V24.2998H23.4V22.4998H18V20.6998H23.4V18.8998H18V15.2998H30.6V26.9998C30.6 27.4968 31.003 27.8998 31.5 27.8998H38.7C39.197 27.8998 39.6 27.4968 39.6 26.9998V15.2998H52.2V45.8998Z" fill="#858585"/>
<path d="M14.4 34.2002H0V36.0002H14.4V34.2002Z" fill="#858585"/>
<path d="M14.4001 37.7998H3.6001V39.5998H14.4001V37.7998Z" fill="#858585"/>
</svg>
