<svg width="78" height="47" viewBox="0 0 78 47" fill="none" xmlns="http://www.w3.org/2000/svg">
<path d="M76.5145 12.7293C76.3224 12.7293 76.1322 12.7643 75.9549 12.8322C75.7776 12.9001 75.6167 12.9996 75.4814 13.1249C75.3462 13.2503 75.2393 13.399 75.1669 13.5625C75.0945 13.7261 75.0581 13.9011 75.0598 14.0777V19.0292H21.4201C22.1515 18.2859 22.5635 17.3233 22.5789 16.3212C22.5789 13.2845 18.7079 10.9164 13.752 10.9164C8.7961 10.9164 4.93741 13.2845 4.93741 16.3212C4.95288 17.3233 5.36481 18.2859 6.09625 19.0292H2.92792V2.22573C2.9466 2.03904 2.92272 1.85082 2.85779 1.67309C2.79287 1.49536 2.68834 1.33203 2.55086 1.19352C2.41339 1.05502 2.246 0.944387 2.05938 0.86869C1.87277 0.792993 1.67102 0.753906 1.46704 0.753906C1.26306 0.753906 1.06132 0.792993 0.874707 0.86869C0.688091 0.944387 0.5207 1.05502 0.383226 1.19352C0.245752 1.33203 0.141217 1.49536 0.0762927 1.67309C0.011368 1.85082 -0.0125148 2.03904 0.00616452 2.22573V45.1805C-0.0125148 45.3672 0.011368 45.5554 0.0762927 45.7331C0.141217 45.9109 0.245752 46.0742 0.383226 46.2127C0.5207 46.3512 0.688091 46.4618 0.874707 46.5375C1.06132 46.6132 1.26306 46.6523 1.46704 46.6523C1.67102 46.6523 1.87277 46.6132 2.05938 46.5375C2.246 46.4618 2.41339 46.3512 2.55086 46.2127C2.68834 46.0742 2.79287 45.9109 2.85779 45.7331C2.92272 45.5554 2.9466 45.3672 2.92792 45.1805V32.7167H75.0721V45.1805C75.0534 45.3672 75.0773 45.5554 75.1422 45.7331C75.2071 45.9109 75.3117 46.0742 75.4491 46.2127C75.5866 46.3512 75.754 46.4618 75.9406 46.5375C76.1272 46.6132 76.329 46.6523 76.533 46.6523C76.7369 46.6523 76.9387 46.6132 77.1253 46.5375C77.3119 46.4618 77.4793 46.3512 77.6168 46.2127C77.7542 46.0742 77.8588 45.9109 77.9237 45.7331C77.9886 45.5554 78.0125 45.3672 77.9938 45.1805V14.1343C78.0022 13.9516 77.97 13.7692 77.8993 13.5983C77.8285 13.4273 77.7207 13.2713 77.5823 13.1399C77.4439 13.0085 77.2779 12.9043 77.0943 12.8337C76.9107 12.7631 76.7135 12.7276 76.5145 12.7293ZM7.84685 16.3212C7.84685 15.0408 10.3125 13.6018 13.7397 13.6018C17.1669 13.6018 19.6448 15.0408 19.6448 16.3212C19.6448 17.6015 17.1792 19.0292 13.7397 19.0292C10.3001 19.0292 7.85917 17.6015 7.85917 16.3212H7.84685ZM2.9156 29.9973V21.7259H75.0598V29.9973H2.9156Z" fill="#CA0011"/>
</svg>
